<svg width="1251" height="390" viewBox="0 0 1251 390" fill="none" xmlns="http://www.w3.org/2000/svg">
<path d="M0 0C412.83 0 825.66 0 1251 0C1251 128.7 1251 257.4 1251 390C838.17 390 425.34 390 0 390C0 261.3 0 132.6 0 0Z" fill="black"/>
<path d="M411.63 181.31C413.39 178.45 415.92 176.14 419.22 174.38C422.52 172.62 426.297 171.74 430.55 171.74C435.61 171.74 440.193 173.023 444.3 175.59C448.407 178.157 451.633 181.823 453.98 186.59C456.4 191.357 457.61 196.893 457.61 203.2C457.61 209.507 456.4 215.08 453.98 219.92C451.633 224.687 448.407 228.39 444.3 231.03C440.193 233.597 435.61 234.88 430.55 234.88C426.223 234.88 422.447 234.037 419.22 232.35C415.993 230.59 413.463 228.28 411.63 225.42V234H392.82V152.6H411.63V181.31ZM438.47 203.2C438.47 198.507 437.15 194.84 434.51 192.2C431.943 189.487 428.753 188.13 424.94 188.13C421.2 188.13 418.01 189.487 415.37 192.2C412.803 194.913 411.52 198.617 411.52 203.31C411.52 208.003 412.803 211.707 415.37 214.42C418.01 217.133 421.2 218.49 424.94 218.49C428.68 218.49 431.87 217.133 434.51 214.42C437.15 211.633 438.47 207.893 438.47 203.2ZM476.938 166.24C473.638 166.24 470.925 165.287 468.798 163.38C466.745 161.4 465.718 158.98 465.718 156.12C465.718 153.187 466.745 150.767 468.798 148.86C470.925 146.88 473.638 145.89 476.938 145.89C480.165 145.89 482.805 146.88 484.858 148.86C486.985 150.767 488.048 153.187 488.048 156.12C488.048 158.98 486.985 161.4 484.858 163.38C482.805 165.287 480.165 166.24 476.938 166.24ZM486.288 172.62V234H467.478V172.62H486.288ZM537.43 234L518.73 208.26V234H499.92V152.6H518.73V197.59L537.32 172.62H560.53L535.01 203.42L560.75 234H537.43ZM564.178 203.31C564.178 196.93 565.461 191.357 568.028 186.59C570.668 181.823 574.298 178.157 578.918 175.59C583.611 173.023 588.964 171.74 594.978 171.74C602.678 171.74 609.094 173.757 614.228 177.79C619.434 181.823 622.844 187.507 624.458 194.84H604.438C602.751 190.147 599.488 187.8 594.648 187.8C591.201 187.8 588.451 189.157 586.398 191.87C584.344 194.51 583.318 198.323 583.318 203.31C583.318 208.297 584.344 212.147 586.398 214.86C588.451 217.5 591.201 218.82 594.648 218.82C599.488 218.82 602.751 216.473 604.438 211.78H624.458C622.844 218.967 619.434 224.613 614.228 228.72C609.021 232.827 602.604 234.88 594.978 234.88C588.964 234.88 583.611 233.597 578.918 231.03C574.298 228.463 570.668 224.797 568.028 220.03C565.461 215.263 564.178 209.69 564.178 203.31ZM653.329 182.85C655.529 179.477 658.279 176.837 661.579 174.93C664.879 172.95 668.546 171.96 672.579 171.96V191.87H667.409C662.716 191.87 659.196 192.897 656.849 194.95C654.503 196.93 653.329 200.45 653.329 205.51V234H634.519V172.62H653.329V182.85ZM677.83 203.2C677.83 196.893 679.003 191.357 681.35 186.59C683.77 181.823 687.033 178.157 691.14 175.59C695.247 173.023 699.83 171.74 704.89 171.74C709.217 171.74 712.993 172.62 716.22 174.38C719.52 176.14 722.05 178.45 723.81 181.31V172.62H742.62V234H723.81V225.31C721.977 228.17 719.41 230.48 716.11 232.24C712.883 234 709.107 234.88 704.78 234.88C699.793 234.88 695.247 233.597 691.14 231.03C687.033 228.39 683.77 224.687 681.35 219.92C679.003 215.08 677.83 209.507 677.83 203.2ZM723.81 203.31C723.81 198.617 722.49 194.913 719.85 192.2C717.283 189.487 714.13 188.13 710.39 188.13C706.65 188.13 703.46 189.487 700.82 192.2C698.253 194.84 696.97 198.507 696.97 203.2C696.97 207.893 698.253 211.633 700.82 214.42C703.46 217.133 706.65 218.49 710.39 218.49C714.13 218.49 717.283 217.133 719.85 214.42C722.49 211.707 723.81 208.003 723.81 203.31ZM787.028 188.24H776.908V234H758.098V188.24H751.278V172.62H758.098V170.86C758.098 163.307 760.262 157.587 764.588 153.7C768.915 149.74 775.258 147.76 783.618 147.76C785.012 147.76 786.038 147.797 786.698 147.87V163.82C783.105 163.6 780.575 164.113 779.108 165.36C777.642 166.607 776.908 168.843 776.908 172.07V172.62H787.028V188.24ZM830.077 218.05V234H820.507C813.687 234 808.37 232.35 804.557 229.05C800.744 225.677 798.837 220.213 798.837 212.66V188.24H791.357V172.62H798.837V157.66H817.647V172.62H829.967V188.24H817.647V212.88C817.647 214.713 818.087 216.033 818.967 216.84C819.847 217.647 821.314 218.05 823.367 218.05H830.077Z" fill="white"/>
<path d="M849.354 234.88C846.054 234.88 843.341 233.927 841.214 232.02C839.161 230.04 838.134 227.62 838.134 224.76C838.134 221.827 839.161 219.37 841.214 217.39C843.341 215.41 846.054 214.42 849.354 214.42C852.581 214.42 855.221 215.41 857.274 217.39C859.401 219.37 860.464 221.827 860.464 224.76C860.464 227.62 859.401 230.04 857.274 232.02C855.221 233.927 852.581 234.88 849.354 234.88Z" fill="#F1C500"/>
</svg>
