<svg width="80" height="61" viewBox="0 0 80 61" fill="none" xmlns="http://www.w3.org/2000/svg">
<path d="M34.2862 7.7583H10.7242C9.33565 7.7583 8.20996 8.88486 8.20996 10.2746V11.6852C8.20996 13.0749 9.33565 14.2014 10.7242 14.2014H34.2862C35.6748 14.2014 36.8004 13.0749 36.8004 11.6852V10.2746C36.8004 8.88486 35.6748 7.7583 34.2862 7.7583Z" fill="#1141BD"/>
<path d="M34.2862 17.4805H10.7242C9.33565 17.4805 8.20996 18.607 8.20996 19.9967V21.4073C8.20996 22.797 9.33565 23.9236 10.7242 23.9236H34.2862C35.6748 23.9236 36.8004 22.797 36.8004 21.4073V19.9967C36.8004 18.607 35.6748 17.4805 34.2862 17.4805Z" fill="url(#paint0_linear_555_169)"/>
<path d="M34.2862 27.2021H10.7242C9.33565 27.2021 8.20996 28.3287 8.20996 29.7184V31.129C8.20996 32.5187 9.33565 33.6453 10.7242 33.6453H34.2862C35.6748 33.6453 36.8004 32.5187 36.8004 31.129V29.7184C36.8004 28.3287 35.6748 27.2021 34.2862 27.2021Z" fill="url(#paint1_linear_555_169)"/>
<path d="M68.7998 27.2021H45.2379C43.8493 27.2021 42.7236 28.3287 42.7236 29.7184V50.3059C42.7236 51.6956 43.8493 52.8221 45.2379 52.8221H68.7998C70.1884 52.8221 71.3141 51.6956 71.3141 50.3059V29.7184C71.3141 28.3287 70.1884 27.2021 68.7998 27.2021Z" fill="url(#paint2_linear_555_169)"/>
<path d="M34.2862 36.9238H10.7242C9.33565 36.9238 8.20996 38.0504 8.20996 39.4401V40.8507C8.20996 42.2404 9.33565 43.367 10.7242 43.367H34.2862C35.6748 43.367 36.8004 42.2404 36.8004 40.8507V39.4401C36.8004 38.0504 35.6748 36.9238 34.2862 36.9238Z" fill="#1141BD"/>
<path d="M34.2862 46.646H10.7242C9.33565 46.646 8.20996 47.7726 8.20996 49.1622V50.5729C8.20996 51.9626 9.33565 53.0891 10.7242 53.0891H34.2862C35.6748 53.0891 36.8004 51.9626 36.8004 50.5729V49.1622C36.8004 47.7726 35.6748 46.646 34.2862 46.646Z" fill="#1141BD"/>
<path d="M60.4766 12.6577L67.5813 19.768" stroke="#EDEEF0" stroke-width="2" stroke-linecap="round" stroke-linejoin="round"/>
<path d="M67.5813 12.6577L60.4766 19.768" stroke="#EDEEF0" stroke-width="2" stroke-linecap="round" stroke-linejoin="round"/>
<path d="M30.9521 40.4315H32.3807C35.4118 40.4315 38.3187 39.2265 40.4619 37.0816C42.6052 34.9366 43.8093 32.0274 43.8093 28.994V27.6787C43.8093 24.6453 45.0134 21.7361 47.1566 19.5912C49.2999 17.4462 52.2068 16.2412 55.2379 16.2412" stroke="#EDEEF0" stroke-width="2" stroke-linecap="round" stroke-linejoin="round"/>
<path d="M24.762 45.0829C27.4971 45.0829 29.7143 42.8639 29.7143 40.1267C29.7143 37.3894 27.4971 35.1704 24.762 35.1704C22.0268 35.1704 19.8096 37.3894 19.8096 40.1267C19.8096 42.8639 22.0268 45.0829 24.762 45.0829Z" stroke="#EDEEF0" stroke-width="2" stroke-linecap="round" stroke-linejoin="round"/>
<defs>
<linearGradient id="paint0_linear_555_169" x1="22.5052" y1="17.4805" x2="22.5052" y2="23.9236" gradientUnits="userSpaceOnUse">
<stop stop-color="#538BF0"/>
<stop offset="1" stop-color="#1141BD"/>
</linearGradient>
<linearGradient id="paint1_linear_555_169" x1="22.5052" y1="27.2021" x2="22.5052" y2="33.6453" gradientUnits="userSpaceOnUse">
<stop stop-color="#538BF0"/>
<stop offset="1" stop-color="#1141BD"/>
</linearGradient>
<linearGradient id="paint2_linear_555_169" x1="57.0189" y1="27.2021" x2="57.0189" y2="52.8221" gradientUnits="userSpaceOnUse">
<stop stop-color="#538BF0"/>
<stop offset="1" stop-color="#1141BD"/>
</linearGradient>
</defs>
</svg>
