<svg width="80" height="61" viewBox="0 0 80 61" fill="none" xmlns="http://www.w3.org/2000/svg">
<path d="M70.0003 17.7661H59.1432C57.7546 17.7661 56.6289 18.8927 56.6289 20.2824V45.3686C56.6289 46.7583 57.7546 47.8849 59.1432 47.8849H70.0003C71.3889 47.8849 72.5146 46.7583 72.5146 45.3686V20.2824C72.5146 18.8927 71.3889 17.7661 70.0003 17.7661Z" fill="url(#paint0_linear_555_183)"/>
<path d="M32.0955 17.7661H17.2955C15.9069 17.7661 14.7812 18.8927 14.7812 20.2824V25.4483C14.7812 26.838 15.9069 27.9646 17.2955 27.9646H32.0955C33.4841 27.9646 34.6098 26.838 34.6098 25.4483V20.2824C34.6098 18.8927 33.4841 17.7661 32.0955 17.7661Z" fill="url(#paint1_linear_555_183)"/>
<path d="M32.0955 32.063H17.2955C15.9069 32.063 14.7812 33.1896 14.7812 34.5792V44.2249C14.7812 45.6146 15.9069 46.7411 17.2955 46.7411H32.0955C33.4841 46.7411 34.6098 45.6146 34.6098 44.2249V34.5792C34.6098 33.1896 33.4841 32.063 32.0955 32.063Z" fill="url(#paint2_linear_555_183)"/>
<path d="M48.8572 30.8813V52.8985H9.7334V9.43604H48.8572V13.4963" stroke="url(#paint3_linear_555_183)" stroke-width="2" stroke-linecap="round" stroke-linejoin="round"/>
<path d="M51.9808 22.856H41.2189V40.1266H24.6855" stroke="#EDEEF0" stroke-width="2" stroke-linecap="round" stroke-linejoin="round"/>
<path d="M56.6281 27.469C59.1949 27.469 61.2757 25.3866 61.2757 22.8178C61.2757 20.2489 59.1949 18.1665 56.6281 18.1665C54.0613 18.1665 51.9805 20.2489 51.9805 22.8178C51.9805 25.3866 54.0613 27.469 56.6281 27.469Z" stroke="#EDEEF0" stroke-width="2" stroke-linecap="round" stroke-linejoin="round"/>
<defs>
<linearGradient id="paint0_linear_555_183" x1="64.5718" y1="17.7661" x2="64.5718" y2="47.8849" gradientUnits="userSpaceOnUse">
<stop stop-color="#538BF0"/>
<stop offset="1" stop-color="#1141BD"/>
</linearGradient>
<linearGradient id="paint1_linear_555_183" x1="24.6955" y1="17.7661" x2="24.6955" y2="27.9646" gradientUnits="userSpaceOnUse">
<stop stop-color="#538BF0"/>
<stop offset="1" stop-color="#1141BD"/>
</linearGradient>
<linearGradient id="paint2_linear_555_183" x1="24.6955" y1="32.063" x2="24.6955" y2="46.7411" gradientUnits="userSpaceOnUse">
<stop stop-color="#538BF0"/>
<stop offset="1" stop-color="#1141BD"/>
</linearGradient>
<linearGradient id="paint3_linear_555_183" x1="29.2953" y1="9.43604" x2="29.2953" y2="52.8985" gradientUnits="userSpaceOnUse">
<stop stop-color="#538BF0"/>
<stop offset="1" stop-color="#1141BD"/>
</linearGradient>
</defs>
</svg>
