<svg width="287" height="366" viewBox="0 0 287 366" fill="none" xmlns="http://www.w3.org/2000/svg">
<path d="M187.447 151.391C189.244 151.391 190.702 152.911 190.702 154.782C190.702 156.655 189.244 158.172 187.447 158.172C185.65 158.172 184.195 156.655 184.195 154.782C184.195 152.911 185.65 151.391 187.447 151.391Z" fill="#1141BD"/>
<path d="M159.532 268.365C159.532 268.365 167.371 262.864 177.126 254.544L154.534 244.054L159.532 268.365Z" fill="url(#paint0_linear_463_756)"/>
<path d="M212.042 213.214C222.642 187.455 151.489 206.061 152.622 234.717L154.541 244.05L177.126 254.544C189.925 243.623 206.028 227.833 212.042 213.214Z" fill="url(#paint1_linear_463_756)"/>
<path d="M116.044 95.2622L96.9344 121.116L63.1231 142.231C63.1231 142.231 55.1585 148.095 57.064 157.089L101.129 133.702L116.044 95.2622Z" fill="#1141BD"/>
<path d="M167.211 158.06L150.821 146.112H164.489L137.564 108.618L133.152 93.6213L120.692 89.2212L120.414 89.3588L116.047 95.2656L101.131 133.702L57.0635 157.089C57.4704 159.019 58.335 161.094 59.8336 163.289C68.2966 175.699 80.53 166.719 80.53 166.719L111.988 144.439L126.368 127.809L134.57 147.89C134.57 147.89 104.573 198.832 95.9539 226.746C95.9539 226.746 110.378 220.451 131.63 205.261L155.097 177.484L139.435 181.136L167.211 158.06Z" fill="url(#paint2_linear_463_756)"/>
<path d="M0.589229 358.138H24.2863L29.7723 357.153L21.2314 342.379C0.239996 339.655 0.589229 358.138 0.589229 358.138Z" fill="#192033" fill-opacity="0.196078"/>
<path d="M35.2487 326.572L21.8693 342.464C21.6523 342.433 21.4421 342.408 21.2285 342.38L29.7695 357.154L37.5747 355.749L37.6086 355.795L57.1318 343.463L35.2487 326.572Z" fill="white"/>
<path d="M57.135 343.463L37.6084 355.795L39.2834 358.138H59.3898C59.3898 345.647 58.22 344.299 58.22 344.299L57.135 343.463Z" fill="#192033"/>
<path d="M170.27 358.139H190.376L191.841 356.089L171.778 342.398C171.019 346.389 170.27 351.918 170.27 358.139Z" fill="#192033"/>
<path d="M173.338 335.774L173.305 335.922C173.305 335.922 172.542 338.374 171.775 342.397L191.841 356.088L192.082 355.749L202.345 357.594L205.848 343.156L173.338 335.774Z" fill="white"/>
<path d="M207.662 343.565L205.848 343.156L202.349 357.595L205.37 358.138H229.067C229.067 358.138 229.301 340.382 207.662 343.565Z" fill="#192033"/>
<path d="M175.715 335.922C175.715 335.922 172.681 345.647 172.681 358.138H192.787L194.493 355.749L207.78 358.138H231.477C231.477 358.138 231.711 340.383 210.072 343.565" stroke="#192033" stroke-width="2.22066" stroke-miterlimit="10" stroke-linecap="round" stroke-linejoin="round"/>
<path d="M60.6269 344.299C60.6269 344.299 61.7967 345.647 61.7967 358.138H41.6869L39.9848 355.749L26.697 358.138H3.00331C3.00331 358.138 2.64051 339.278 24.2761 342.464L37.6589 326.572" stroke="#12192B" stroke-width="2.22066" stroke-miterlimit="10" stroke-linecap="round" stroke-linejoin="round"/>
<path d="M95.9477 226.746L33.1533 324.952L35.2521 326.572L42.8878 332.468L154.07 187.699C121.188 215.74 95.9477 226.746 95.9477 226.746Z" fill="url(#paint3_linear_463_756)"/>
<path d="M152.622 189.583L42.8945 332.468L58.2202 344.299L60.441 346.014L167.89 216.28L185.972 181.651L152.622 189.583Z" fill="url(#paint4_linear_463_756)"/>
<path d="M183.442 159.647C178.601 164.809 173.803 169.622 169.104 174.118L191.105 171.277L183.442 159.647Z" fill="white"/>
<path d="M169.1 174.118C163.96 179.026 158.928 183.55 154.069 187.699L152.618 189.583L185.968 181.651L191.258 171.514L191.105 171.277L169.1 174.118Z" fill="#1141BD"/>
<path d="M191.964 172.583L191.258 171.514L167.887 216.28L169.565 214.258L191.841 256.516L170.976 335.238L173.339 335.774L185.962 338.64L206.686 252.328L191.964 172.583Z" fill="url(#paint5_linear_463_756)"/>
<path d="M214.64 206.993L191.967 172.583L195.764 193.165L217.485 213.214C216.576 211.231 215.627 209.156 214.64 206.993Z" fill="#1141BD"/>
<path d="M229.484 238.817C226.771 233.178 222.771 224.717 217.485 213.214L195.768 193.165L206.685 252.328L185.962 338.639L207.662 343.565L231.142 256.999C232.786 250.937 232.193 244.452 229.484 238.817Z" fill="url(#paint6_linear_463_756)"/>
<path d="M217.05 206.993C223.76 221.714 228.717 232.208 231.894 238.817C234.603 244.452 235.196 250.934 233.548 257L210.075 343.565L175.752 335.774L173.385 335.238L194.251 256.513L171.975 214.258L62.8474 346.014L60.6265 344.299L37.6584 326.568L35.5664 324.952L98.3608 226.746C98.3608 226.746 139.91 208.627 185.852 159.647L217.05 206.993Z" stroke="#12192B" stroke-width="2.22067" stroke-miterlimit="10" stroke-linecap="round" stroke-linejoin="round"/>
<path d="M183.443 150.829L145.654 97.1954L151.995 89.1151L139.175 80.1349L138.012 79.3198L154.053 70.1104C157.742 72.792 162.017 74.514 166.347 74.6234C172.057 95.1524 183.443 150.829 183.443 150.829Z" fill="url(#paint7_linear_463_756)"/>
<path d="M166.347 74.6231C167.723 74.6548 169.1 74.5278 170.466 74.2173C173.932 73.4269 176.986 71.5391 181.323 66.9556L181.499 67.1038C192.624 103.839 183.622 149.922 183.446 150.818L183.442 150.829C183.442 150.829 172.063 95.1521 166.347 74.6231Z" fill="white"/>
<path d="M203.589 92.4176L182.123 153.865C182.353 152.941 194.094 105.416 179.589 67.5308L199.702 78.273L199.167 80.1434L196.434 89.5537L203.589 92.4176Z" fill="url(#paint8_linear_463_756)"/>
<path d="M211.626 127.573L207.801 98.4199L203.685 93.5576L205.085 114.111L200.932 139.556L228.752 153.441C228.752 153.441 242.687 160.6 248.509 145.932C248.648 145.568 248.777 145.215 248.899 144.866L211.626 127.573Z" fill="#1141BD"/>
<path d="M187.447 158.172C185.535 158.172 184.002 156.443 184.212 154.4C184.375 152.848 185.579 151.588 187.067 151.412C189.037 151.182 190.702 152.777 190.702 154.781C190.702 156.655 189.247 158.172 187.447 158.172ZM203.688 93.554L207.804 98.4163L211.629 127.569L248.902 144.866C253.842 130.681 241.141 126.504 241.141 126.504L215.586 114.584L210.093 86.5005L196.51 79.334L194.415 88.4588L199.908 91.2358L183.443 150.819V150.829L145.658 97.1955L151.995 89.1151L139.175 80.1314L120.692 89.221L133.153 93.6246L137.568 108.621L164.489 146.112H150.825L167.208 158.059L139.432 181.136L155.097 177.484L131.631 205.261C146.444 194.675 165.344 180.222 184.212 160.106L214.647 206.993C214.647 206.993 207.116 171.729 198.338 148.38C198.338 148.38 199.433 144.979 200.738 139.457L200.935 139.556L205.085 114.111L203.688 93.554Z" fill="url(#paint9_linear_463_756)"/>
<path d="M248.372 71.3843C242.638 72.9898 238.166 77.651 236.623 83.6178C235.077 77.651 230.605 72.9898 224.878 71.3843C230.605 69.7788 235.077 65.1176 236.623 59.1509C238.166 65.1176 242.638 69.7788 248.372 71.3843Z" fill="#538BF0"/>
<path d="M221.548 63.8792C217.859 64.9131 214.977 67.9124 213.984 71.7549C212.987 67.9124 210.108 64.9131 206.416 63.8792C210.108 62.8454 212.987 59.8426 213.984 56C214.977 59.8426 217.859 62.8454 221.548 63.8792Z" fill="#538BF0"/>
<path d="M253.19 71.3847C247.46 72.9902 242.985 77.6514 241.442 83.6182C239.899 77.6514 235.42 72.9902 229.693 71.3847C235.42 69.7792 239.899 65.118 241.442 59.1513C242.985 65.118 247.46 69.7792 253.19 71.3847Z" stroke="#1141BD" stroke-width="2.22066" stroke-miterlimit="10" stroke-linecap="round" stroke-linejoin="round"/>
<path d="M226.359 63.8796C222.674 64.917 219.792 67.9162 218.798 71.7588C217.802 67.9162 214.919 64.917 211.23 63.8796C214.919 62.8457 217.802 59.8465 218.798 56.0039C219.792 59.8465 222.674 62.8457 226.359 63.8796Z" stroke="#1141BD" stroke-width="2.22066" stroke-miterlimit="10" stroke-linecap="round" stroke-linejoin="round"/>
<path d="M154.053 70.6514L140.589 79.3777L152.903 89.1534L147.321 97.2212L180.589 150.745C180.589 150.745 170.767 96.1577 165.737 75.6696" stroke="#12192B" stroke-width="2.22067" stroke-miterlimit="10" stroke-linecap="round" stroke-linejoin="round"/>
<path d="M179.089 66.9494L200.04 77.3025L196.635 88.1746L204.089 90.9346L181.724 150.163C181.724 150.163 194.346 103.82 179.089 66.9494Z" stroke="#12192B" stroke-width="2.22066" stroke-miterlimit="10" stroke-linecap="round" stroke-linejoin="round"/>
<path d="M141.582 80.1345L122.818 89.3616L99.3382 121.115L65.5304 142.233C65.5304 142.233 53.775 150.885 62.2414 163.292C70.7078 175.702 82.9378 166.721 82.9378 166.721L114.396 144.442L128.776 127.809L136.978 147.89C136.978 147.89 106.984 198.831 98.3584 226.749C98.3584 226.749 139.907 208.626 185.85 159.647L217.051 206.993C217.051 206.993 209.527 171.728 200.745 148.38C200.745 148.38 209.211 122.096 207.17 96.9515" stroke="#12192B" stroke-width="2.22066" stroke-miterlimit="10" stroke-linecap="round" stroke-linejoin="round"/>
<path d="M250.915 145.932C245.097 160.6 231.158 153.441 231.158 153.441L203.145 139.457" stroke="#12192B" stroke-width="2.22066" stroke-miterlimit="10" stroke-linecap="round" stroke-linejoin="round"/>
<path d="M198.92 79.3344L212.503 86.5044L217.989 114.584L243.547 126.504C243.547 126.504 248.593 128.162 251.088 132.94" stroke="#12192B" stroke-width="2.22066" stroke-miterlimit="10" stroke-linecap="round" stroke-linejoin="round"/>
<path d="M189.627 88.8507L186.338 73.2192L173.098 81.229L189.627 88.8507Z" fill="white"/>
<path d="M159.501 93.6421L158.158 77.7002L173.091 81.2287L159.501 93.6421Z" fill="white"/>
<path d="M192.031 88.8501L188.742 73.2187L175.502 81.2285L192.031 88.8501Z" stroke="#12192B" stroke-width="2.22066" stroke-miterlimit="10" stroke-linecap="round" stroke-linejoin="round"/>
<path d="M161.915 93.6421L160.565 77.7001L175.501 81.2287L161.915 93.6421Z" stroke="#12192B" stroke-width="2.22066" stroke-miterlimit="10" stroke-linecap="round" stroke-linejoin="round"/>
<path d="M196.937 38.0961C196.554 36.5718 195.764 35.2591 194.73 34.2782C193.591 33.2126 192.062 33.0291 190.76 33.5548L190.705 33.0467C189.512 22.2353 183.219 12.6059 173.762 7.97998C169.867 6.07457 165.567 5.0407 161.265 6.01811L159.949 6.31804C155.65 7.29544 152.157 10.1042 149.38 13.5268C142.64 21.8436 140.778 33.329 144.03 43.6676L144.183 44.1546C142.789 44.2428 141.467 45.0791 140.863 46.5399C140.317 47.8772 140.121 49.4156 140.385 50.9682C140.873 53.8828 142.562 56.4339 144.956 57.8736L145.379 58.1276L146.085 59.9307C146.932 62.0972 148.865 63.4487 150.893 63.4769C155.823 71.9877 165.862 78.6884 175.376 76.5219C184.89 74.3554 191.333 63.9038 192.407 54.0274C194.235 53.1206 195.449 51.0529 195.351 48.717L195.269 46.7692L195.554 46.3564C197.151 44.0064 197.663 40.9577 196.937 38.0961Z" fill="#ECCBC5"/>
<path d="M196.936 38.0964C196.553 36.5721 195.763 35.2595 194.729 34.2785C193.59 33.2129 192.061 33.0294 190.759 33.5552L190.704 33.0471C189.511 22.2356 183.218 12.6062 173.761 7.98032C169.866 6.07491 165.566 5.04103 161.264 6.01844L159.948 6.31839C155.649 7.2958 152.156 10.1045 149.379 13.5272C142.639 21.844 140.777 33.3293 144.029 43.6679L144.182 44.1549C142.788 44.2431 141.466 45.0794 140.862 46.5402C140.316 47.8775 140.12 49.416 140.384 50.9685C140.872 53.8831 142.561 56.4342 144.955 57.8739L145.378 58.1279L146.084 59.931C146.931 62.0975 148.864 63.449 150.892 63.4772C155.822 71.988 165.861 78.6887 175.375 76.5222C184.889 74.3557 191.332 63.9041 192.406 54.0278C194.234 53.1209 195.448 51.0532 195.35 48.7173L195.268 46.7696L195.553 46.3567C197.15 44.0067 197.662 40.958 196.936 38.0964Z" stroke="#12192B" stroke-width="2.22066" stroke-miterlimit="10" stroke-linecap="round" stroke-linejoin="round"/>
<path d="M144.03 43.6719C140.779 33.3262 142.64 21.8443 149.381 13.5311C152.158 10.1049 155.653 7.29615 159.953 6.32228L161.268 6.0153C165.567 5.04142 169.87 6.07174 173.766 7.97716C183.219 12.6066 189.519 22.236 190.706 33.0475" stroke="#12192B" stroke-width="2.22066" stroke-miterlimit="10" stroke-linecap="round" stroke-linejoin="round"/>
<path d="M157.792 3.37499C176.898 -0.975703 189.508 9.04535 191.607 21.614C193.431 32.556 191.79 42.9405 191.79 42.9405L188.874 29.0381L188.677 32.3443L186.575 25.8694C186.575 25.8694 172.487 24.8991 167.303 20.2485C167.303 20.2485 169.219 24.0875 173.236 25.8941C173.236 25.8941 162.685 25.8659 157.894 23.2654C157.894 23.2654 161.44 26.3423 163.221 26.7198C163.221 26.7198 154.791 28.2477 149.346 24.7262C149.346 24.7262 149.346 33.8263 144.857 35.3612L145.542 42.1642L144.036 39.2426L146.959 53.1451C146.959 53.1451 141.459 42.9935 138.581 33.6852C135.862 24.892 139.137 18.1137 144.264 17.5315C144.264 17.5315 145.145 6.25428 157.792 3.37499Z" fill="#0C1221"/>
<path d="M159.39 3.008C178.503 -1.34269 189.509 9.04532 191.608 21.614C193.432 32.556 191.791 42.9405 191.791 42.9405L188.875 29.038L188.678 32.3443L186.576 25.8694C186.576 25.8694 172.488 24.8991 167.304 20.2485C167.304 20.2485 169.22 24.0875 173.237 25.8941C173.237 25.8941 162.686 25.8659 157.895 23.2654C157.895 23.2654 161.441 26.3423 163.222 26.7198C163.222 26.7198 154.792 28.2476 149.347 24.7261C149.347 24.7261 149.347 33.8263 144.858 35.3612L145.543 42.1642L144.037 39.2426L146.96 53.145C146.96 53.145 141.46 42.9934 138.582 33.6851C135.863 24.892 139.138 18.1137 144.265 17.5315C144.265 17.5315 146.75 5.88729 159.39 3.008Z" stroke="#12192B" stroke-width="2.22066" stroke-miterlimit="10" stroke-linecap="round" stroke-linejoin="round"/>
<path d="M161.363 45.4632C161.749 47.3087 155.341 48.7695 154.954 46.9276C154.565 45.0821 155.683 43.2614 157.457 42.8592C159.227 42.4534 160.973 43.6249 161.363 45.4632Z" fill="#12192B"/>
<path d="M182.788 40.5872C183.175 42.4326 176.76 43.8934 176.38 42.048C175.99 40.2061 177.112 38.3818 178.882 37.9796C180.649 37.5809 182.398 38.7453 182.788 40.5872Z" fill="#12192B"/>
<path d="M162.484 62.2416C169.645 70.322 178.102 68.3954 181.367 57.9438L162.484 62.2416Z" fill="white"/>
<path d="M150.296 41.1445C153.232 37.2278 159.044 35.9082 163.279 38.1912" stroke="#12192B" stroke-width="2.22066" stroke-miterlimit="10" stroke-linecap="round" stroke-linejoin="round"/>
<path d="M166.74 53.3784C167.947 49.1936 171.179 48.4561 173.956 51.7341" stroke="#12192B" stroke-width="2.22066" stroke-miterlimit="10" stroke-linecap="round" stroke-linejoin="round"/>
<path d="M171.718 36.2642C174.654 32.351 180.462 31.0314 184.697 33.3143" stroke="#12192B" stroke-width="2.22066" stroke-miterlimit="10" stroke-linecap="round" stroke-linejoin="round"/>
<path d="M39.2727 169.573C35.2514 171.792 33.5493 176.93 35.482 181.288C37.0722 184.862 40.6256 186.831 44.1823 186.46L123.258 364.507L126.086 363.145L39.2727 169.573Z" fill="#C2D9E9"/>
<path d="M128.382 362.045L49.3063 183.994C51.8866 181.411 52.7444 177.315 51.1542 173.74C49.1571 169.234 44.0237 167.273 39.6973 169.354C39.5515 169.425 39.4125 169.499 39.2734 169.573L126.087 363.145L128.382 362.045Z" fill="white"/>
<path d="M128.383 362.044L49.3066 183.994C51.8869 181.411 52.7447 177.314 51.1545 173.74C49.1575 169.234 44.0241 167.272 39.6976 169.354C35.3678 171.439 33.486 176.782 35.483 181.288C37.0699 184.862 40.6232 186.831 44.1868 186.46L123.263 364.507L128.383 362.044Z" stroke="#12192B" stroke-width="2.22066" stroke-miterlimit="10" stroke-linecap="round" stroke-linejoin="round"/>
<path d="M251.598 134.768C246.929 135.103 242.399 136.698 238.215 139.552C237.011 140.304 234.122 138.296 231.956 137.545C231.379 137.305 230.643 137.178 229.952 136.924C229.853 137.132 229.755 137.343 229.664 137.569C225.486 147.601 232.552 150.755 232.552 150.755L238.408 153.822C238.408 153.822 249.329 159.429 253.886 147.94C256.656 140.96 254.124 136.913 251.598 134.768Z" fill="#1141BD"/>
<path d="M238.221 139.548C242.402 136.697 246.931 135.099 251.6 134.767C249.861 133.289 248.122 132.717 248.122 132.717L244.185 131.27C244.185 131.27 234.495 127.16 229.951 136.92C230.646 137.177 231.382 137.301 231.958 137.544C234.125 138.296 237.014 140.304 238.221 139.548Z" fill="url(#paint10_linear_463_756)"/>
<path d="M234.967 150.755L240.823 153.818C240.823 153.818 251.741 159.428 256.298 147.939C260.977 136.154 250.53 132.717 250.53 132.717L246.594 131.27C246.594 131.27 236.479 126.98 232.075 137.565C227.901 147.601 234.967 150.755 234.967 150.755Z" stroke="#12192B" stroke-width="2.22067" stroke-miterlimit="10" stroke-linecap="round" stroke-linejoin="round"/>
<path d="M281.411 162.047C282.72 161.556 283.809 160.762 283.1 159.114C282.774 158.359 278.085 157.333 274.6 154.481C270.494 151.119 267.757 146.645 267.757 146.645L266.181 143.194L267.91 142.633L273.118 143.053C275.434 143.236 277.366 141.186 277.4 138.504C277.41 137.647 276.793 136.938 276.058 136.955L263.906 137.287L263.719 137.23C259.108 135.875 254.33 136.264 250.062 138.271C247.302 137.1 244.138 138.243 242.66 140.939L241.833 142.463C240.202 145.438 241.209 149.231 244.077 150.914L247.858 153.134C247.858 153.134 261.447 166.344 265.686 170.279C268.761 173.133 271.111 171.884 270.772 169.891C270.602 168.913 266.191 164.517 265.116 163.278C266.889 164.753 272.46 169.411 273.24 169.344C274.62 169.224 275.868 168.747 275.59 166.965C275.491 166.288 272.558 164.633 270.046 162.004C271.904 163.193 277.143 166.454 278.397 166.302C279.933 166.119 281.259 165.6 280.662 163.892C280.425 163.208 276.451 161.623 273.057 158.945L273.098 158.92C273.098 158.92 280.106 162.534 281.411 162.047Z" fill="#ECCBC5"/>
<path d="M283.819 162.047C285.128 161.557 286.213 160.763 285.508 159.115C285.186 158.36 280.49 157.333 277.004 154.482C272.905 151.119 270.165 146.648 270.165 146.648L268.589 143.194L270.318 142.633L275.526 143.053C277.838 143.24 279.771 141.186 279.805 138.505C279.819 137.647 279.201 136.938 278.466 136.959L266.31 137.287L266.124 137.231C261.516 135.876 256.738 136.267 252.473 138.272C249.71 137.1 246.546 138.243 245.068 140.939L244.237 142.464C242.61 145.442 243.613 149.231 246.485 150.914L250.262 153.134C250.262 153.134 263.855 166.345 268.09 170.279C271.169 173.137 273.522 171.885 273.176 169.891C273.01 168.914 268.599 164.517 267.524 163.278C269.297 164.753 274.865 169.411 275.648 169.344C277.025 169.224 278.272 168.748 278.001 166.966C277.899 166.292 274.967 164.637 272.451 162.005C274.312 163.194 279.551 166.454 280.809 166.302C282.345 166.119 283.67 165.6 283.07 163.892C282.833 163.208 278.856 161.624 275.465 158.949L275.506 158.921C275.506 158.921 282.514 162.537 283.819 162.047Z" stroke="#12192B" stroke-width="2.22066" stroke-miterlimit="10" stroke-linecap="round" stroke-linejoin="round"/>
<path d="M56.7996 149.52C61.4787 149.362 66.1408 150.466 70.5791 152.862C71.8506 153.483 74.5326 151.179 76.6111 150.198C77.1603 149.901 77.8792 149.697 78.5471 149.369C78.6658 149.566 78.7811 149.771 78.8896 149.983C84.0264 159.52 77.3095 163.409 77.3095 163.409L71.776 167.078C71.776 167.078 61.4651 173.814 55.8096 162.869C52.3715 156.221 54.494 151.927 56.7996 149.52Z" fill="#538BF0"/>
<path d="M70.5715 152.862C66.1332 150.466 61.4745 149.365 56.7988 149.524C58.3856 147.873 60.0606 147.117 60.0606 147.117L63.8276 145.261C63.8276 145.261 73.0704 140.145 78.5429 149.372C77.8783 149.7 77.1561 149.901 76.6102 150.201C74.525 151.182 71.843 153.483 70.5715 152.862Z" fill="#1141BD"/>
<path d="M79.7123 163.409L74.1855 167.078C74.1855 167.078 63.8747 173.814 58.2123 162.869C52.411 151.641 62.4642 147.117 62.4642 147.117L66.2379 145.258C66.2379 145.258 75.8809 139.916 81.2957 149.983C86.4325 159.52 79.7123 163.409 79.7123 163.409Z" stroke="#12192B" stroke-width="2.22066" stroke-miterlimit="10" stroke-linecap="round" stroke-linejoin="round"/>
<path d="M59.6538 154.76C60.1421 154.538 60.9592 154.136 61.9018 153.677C64.9296 152.202 68.6729 153.762 70.1647 157.121L70.2326 157.269C71.6871 160.544 70.4462 164.273 67.459 165.621L67.4556 165.625L67.2488 166.119C64.7703 171.944 60.0132 175.97 54.0796 177.269L53.8897 177.311L43.606 183.525C42.9821 183.902 42.1005 183.557 41.6835 182.773C40.3883 180.317 41.0291 177.512 43.1109 176.556L47.7968 174.4L49.0005 173.052C49.5497 172.438 48.8038 171.288 48.0341 171.549L36.2822 175.533L33.6511 183.07C33.0849 184.7 31.3523 185.328 29.7078 184.502L29.5383 184.894C28.8635 186.436 27.1038 186.93 25.5102 186.02L25.2627 185.882L29.579 171.718L41.1105 160.332C41.7106 159.743 42.4362 159.326 43.25 159.111L59.6538 154.76Z" fill="#ECCBC5"/>
<path d="M59.6548 154.76C60.1431 154.538 60.9602 154.136 61.9028 153.677C64.9307 152.202 68.6739 153.762 70.1658 157.121L70.2336 157.269C71.6882 160.543 70.4472 164.273 67.4601 165.621L67.4567 165.625L67.2498 166.119C64.7713 171.944 60.0142 175.97 54.0806 177.269L53.8908 177.311L43.607 183.525C42.9831 183.902 42.1016 183.557 41.6845 182.773C40.3893 180.317 41.0301 177.512 43.112 176.556L47.7978 174.4L49.0015 173.052C49.5508 172.438 48.8048 171.288 48.0351 171.549L36.2832 175.533L33.6521 183.07C33.0859 184.7 31.3533 185.328 29.7088 184.502L29.5393 184.894C28.8645 186.436 27.1048 186.93 25.5112 186.02L25.2637 185.882L29.58 171.718L41.1115 160.332C41.7116 159.742 42.4372 159.326 43.251 159.111L59.6548 154.76Z" stroke="#12192B" stroke-width="2.22067" stroke-miterlimit="10" stroke-linecap="round" stroke-linejoin="round"/>
<path d="M185.847 159.647L191.248 154.28" stroke="#12192B" stroke-width="2.22066" stroke-miterlimit="10" stroke-linecap="round" stroke-linejoin="round"/>
<path d="M142.673 138.13L166.896 146.112L131.918 116.225" stroke="#12192B" stroke-width="2.22066" stroke-miterlimit="10" stroke-linecap="round" stroke-linejoin="round"/>
<path d="M92.6582 270.8L108.448 250.243" stroke="#12192B" stroke-width="2.22067" stroke-miterlimit="10" stroke-linecap="round" stroke-linejoin="round"/>
<path d="M45.2949 332.468L82.9037 283.499" stroke="#12192B" stroke-width="2.22066" stroke-miterlimit="10" stroke-linecap="round" stroke-linejoin="round"/>
<path d="M135.007 356L143.877 350.132" stroke="#538BF0" stroke-width="2.22066" stroke-miterlimit="10" stroke-linecap="round" stroke-linejoin="round"/>
<path d="M131.301 352.309L139.326 332.775" stroke="#1141BD" stroke-width="2.22066" stroke-miterlimit="10" stroke-linecap="round" stroke-linejoin="round"/>
<path d="M134.24 359.391L152.183 356.886" stroke="#1850E1" stroke-width="2.22066" stroke-miterlimit="10" stroke-linecap="round" stroke-linejoin="round"/>
<path d="M155.028 234.717L161.942 268.362C161.942 268.362 175.111 259.131 188.548 246.478" stroke="#12192B" stroke-width="2.22067" stroke-miterlimit="10" stroke-linecap="round" stroke-linejoin="round"/>
<path d="M172.541 174.114L191.089 171.548" stroke="#12192B" stroke-width="2.22066" stroke-miterlimit="10" stroke-linecap="round" stroke-linejoin="round"/>
<path d="M162.485 62.2421C169.646 70.3225 178.103 68.3959 181.368 57.9443L162.485 62.2421Z" stroke="#12192B" stroke-width="2.22066" stroke-miterlimit="10" stroke-linecap="round" stroke-linejoin="round"/>
<defs>
<linearGradient id="paint0_linear_463_756" x1="163.589" y1="298.449" x2="172.227" y2="246.025" gradientUnits="userSpaceOnUse">
<stop stop-color="#538BF0"/>
<stop offset="1" stop-color="#1141BD"/>
</linearGradient>
<linearGradient id="paint1_linear_463_756" x1="182.864" y1="200.973" x2="182.864" y2="254.544" gradientUnits="userSpaceOnUse">
<stop stop-color="#538BF0"/>
<stop offset="1" stop-color="#1141BD"/>
</linearGradient>
<linearGradient id="paint2_linear_463_756" x1="112.137" y1="89.2212" x2="112.314" y2="158.026" gradientUnits="userSpaceOnUse">
<stop stop-color="#538BF0"/>
<stop offset="1" stop-color="#1141BD"/>
</linearGradient>
<linearGradient id="paint3_linear_463_756" x1="93.6116" y1="187.699" x2="80.8348" y2="467.432" gradientUnits="userSpaceOnUse">
<stop stop-color="#1141BD"/>
<stop offset="1" stop-color="#538BF0"/>
</linearGradient>
<linearGradient id="paint4_linear_463_756" x1="114.433" y1="181.651" x2="114.433" y2="346.014" gradientUnits="userSpaceOnUse">
<stop stop-color="#1141BD"/>
<stop offset="1" stop-color="#538BF0"/>
</linearGradient>
<linearGradient id="paint5_linear_463_756" x1="187.286" y1="171.514" x2="187.286" y2="338.64" gradientUnits="userSpaceOnUse">
<stop stop-color="#1141BD"/>
<stop offset="1" stop-color="#0E64FF"/>
</linearGradient>
<linearGradient id="paint6_linear_463_756" x1="199.301" y1="204.313" x2="198.76" y2="436.271" gradientUnits="userSpaceOnUse">
<stop stop-color="#1141BD"/>
<stop offset="1" stop-color="#538BF0"/>
</linearGradient>
<linearGradient id="paint7_linear_463_756" x1="160.727" y1="70.1104" x2="160.727" y2="150.829" gradientUnits="userSpaceOnUse">
<stop stop-color="#538BF0"/>
<stop offset="1" stop-color="#1141BD"/>
</linearGradient>
<linearGradient id="paint8_linear_463_756" x1="191.589" y1="67.5308" x2="191.589" y2="153.865" gradientUnits="userSpaceOnUse">
<stop stop-color="#538BF0"/>
<stop offset="1" stop-color="#1141BD"/>
</linearGradient>
<linearGradient id="paint9_linear_463_756" x1="185.368" y1="79.334" x2="185.295" y2="155.946" gradientUnits="userSpaceOnUse">
<stop stop-color="#538BF0"/>
<stop offset="1" stop-color="#1141BD"/>
</linearGradient>
<linearGradient id="paint10_linear_463_756" x1="240.776" y1="130.411" x2="240.776" y2="139.715" gradientUnits="userSpaceOnUse">
<stop stop-color="#538BF0"/>
<stop offset="1" stop-color="#1141BD"/>
</linearGradient>
</defs>
</svg>
