<svg width="177" height="376" viewBox="0 0 177 376" fill="none" xmlns="http://www.w3.org/2000/svg">
<path d="M174.938 190.166L168.987 174.996C166.987 165.925 160.799 150.588 155.9 139.194C152.282 130.777 149.366 124.508 149.366 124.508C149.366 124.508 140.272 104.457 136.539 89.7478C132.806 75.0424 119.162 75.4596 119.162 75.4596C119.162 75.4596 108.4 74.2078 104.62 71.9113C102.158 70.4153 101.731 63.3153 101.731 58.5424C105.301 55.6861 108.068 51.8867 109.56 47.9585C111.523 47.5514 113.12 46.0588 113.5 44.0913L113.815 42.4528L114.175 42.1577C116.209 40.5057 117.328 38.0564 117.206 35.5326C117.145 34.1859 116.646 32.9409 115.839 31.93C114.954 30.8207 113.5 30.3797 112.133 30.5731L112.181 30.1355C113.232 20.8949 109.082 11.6646 100.839 6.00966C97.4452 3.67917 93.4816 2 89.1043 2H87.765C83.3911 2 79.4274 3.67917 76.03 6.00966C67.7908 11.6646 63.6407 20.8949 64.6918 30.1355L64.7392 30.5731C63.3694 30.3797 61.9182 30.8207 61.0333 31.93C60.2229 32.9409 59.7279 34.1859 59.6635 35.5326C59.5448 38.0564 60.6637 40.5057 62.6947 42.1577L63.0575 42.4528L63.3728 44.0913C63.7526 46.0588 65.3496 47.5514 67.3127 47.9585C68.8046 51.8867 71.5714 55.6861 75.1417 58.5424C75.1417 63.3153 74.7145 70.4153 72.2529 71.9113C68.4723 74.2078 57.7071 75.4596 57.7071 75.4596C57.7071 75.4596 44.0632 75.0424 40.3335 89.7478C36.6004 104.457 27.5034 124.508 27.5034 124.508C27.5034 124.508 24.5909 130.777 20.9731 139.194C16.0736 150.588 9.88571 165.925 7.88524 174.996L1.93131 190.166C1.63632 190.919 1.52782 191.719 1.6092 192.513L3.20618 207.87L10.6825 219.193L10.9131 219.082C12.4185 218.356 13.039 216.714 12.3371 215.323L12.1608 214.97C13.6324 214.163 14.1443 212.467 13.3238 211.106L9.52631 204.82L13.1916 193.466C13.4323 192.72 14.6394 192.791 14.7648 193.561L15.0395 195.261L13.9714 200.102C13.5001 202.256 15.0971 204.335 17.5112 204.712C18.2809 204.831 19.0065 204.339 19.0845 203.643L20.3967 192.167L20.4712 191.998C22.8176 186.668 22.6243 180.705 19.9321 175.508L19.705 175.067C19.705 175.067 26.8049 161.834 32.7521 153.275C35.7697 148.94 37.7939 143.502 39.0587 139.194C40.2861 135.011 40.798 131.89 40.798 131.89C40.798 131.89 51.3632 113.952 54.2792 101.743C54.2792 101.743 55.7609 110.051 56.8696 119.376C57.6664 126.082 58.2733 133.315 57.9919 138.359C57.3273 150.408 53.835 156.667 53.9164 165.195C53.9164 165.195 49.1356 185.664 51.9362 213.569C52.7263 225.072 54.781 236.935 55.6524 242.671C56.934 251.125 57.7512 262.492 57.8698 264.161C57.9851 265.83 56.0016 273.863 54.0215 282.001C52.038 290.136 55.5371 320.178 55.5371 320.178C56.3508 327.275 60.0127 341.023 59.6431 343.259C59.2702 345.494 58.3445 346.532 58.4835 347.693C58.6226 348.853 59.4567 350.467 59.2261 351.088C58.9921 351.709 55.4286 358.711 53.1128 359.705C50.797 360.699 44.4972 364.715 44.1276 366.208C43.7581 367.697 45.5653 368.073 45.5653 368.073C45.5653 368.073 45.1923 369.976 48.2032 370.224C48.2032 370.224 48.1421 372.544 51.8786 372.09C51.8786 372.09 54.1775 374.576 57.4189 372.711C57.4189 372.711 60.7553 375.445 63.4406 374.536C66.126 373.623 66.7736 371.801 68.2113 369.108C69.6455 366.415 71.1747 365.712 72.6089 363.307C74.0431 360.906 75.5723 357.798 74.3686 353.076C74.3686 353.076 75.9554 349.518 75.9114 347.526C75.8639 345.542 73.7075 340.732 74.0397 336.851C74.8162 327.756 79.6478 292.561 79.2952 286.225C78.946 279.888 79.3834 272.455 81.394 266.509C83.408 260.566 81.3092 256.495 81.6585 246.793C81.889 240.409 83.408 223.24 84.4184 212.256L85.083 205.119C85.083 205.116 85.083 205.112 85.083 205.105H91.7863C91.7863 205.112 91.7897 205.116 91.7897 205.122L92.3695 211.351C93.3799 222.277 94.9768 240.229 95.2142 246.793C95.5634 256.495 93.4646 260.566 95.4753 266.509C97.4893 272.455 97.9267 279.888 97.5741 286.225C97.2248 292.561 102.053 327.756 102.833 336.851C103.165 340.732 101.009 345.542 100.961 347.526C100.917 349.518 102.504 353.076 102.504 353.076C101.3 357.798 102.826 360.906 104.264 363.307C105.698 365.712 107.227 366.415 108.661 369.108C110.099 371.801 110.747 373.623 113.432 374.536C116.117 375.445 119.454 372.711 119.454 372.711C122.695 374.576 124.994 372.09 124.994 372.09C128.731 372.544 128.669 370.224 128.669 370.224C131.677 369.976 131.307 368.073 131.307 368.073C131.307 368.073 133.115 367.697 132.745 366.208C132.372 364.715 126.076 360.699 123.76 359.705C121.444 358.711 117.877 351.709 117.647 351.088C117.416 350.467 118.247 348.853 118.389 347.693C118.525 346.532 117.599 345.494 117.23 343.259C116.86 341.023 120.518 327.275 121.336 320.178C121.336 320.178 124.835 290.136 122.851 282.001C120.868 273.863 118.888 265.83 119.003 264.161C119.121 262.492 119.935 251.125 121.22 242.671C122.105 236.847 124.207 224.702 124.97 213.036C127.656 185.406 122.953 165.195 122.953 165.195C123.038 156.667 119.545 150.408 118.877 138.359C118.599 133.315 119.206 126.082 120.003 119.376C121.112 110.051 122.593 101.743 122.593 101.743C125.509 113.952 136.075 131.89 136.075 131.89C136.075 131.89 136.583 135.011 137.814 139.194C139.079 143.502 141.103 148.94 144.121 153.275C150.068 161.834 157.168 175.067 157.168 175.067L156.941 175.508C154.248 180.705 154.055 186.668 156.401 191.998L156.476 192.167L157.788 203.643C157.866 204.339 158.588 204.831 159.361 204.712C161.776 204.335 163.373 202.256 162.901 200.102L161.833 195.261L162.108 193.561C162.233 192.791 163.44 192.72 163.681 193.466L167.346 204.82L163.549 211.106C162.728 212.467 163.24 214.163 164.712 214.97L164.536 215.323C163.834 216.714 164.454 218.356 165.956 219.082L166.187 219.193L173.666 207.87L175.263 192.513C175.345 191.719 175.233 190.919 174.938 190.166Z" fill="url(#paint0_linear_463_754)"/>
<path d="M103.938 46.1842C103.768 44.7255 102.09 45.2852 102.09 45.2852C102.121 47.6836 101.436 49.7121 100.391 51.4083C95.9429 58.6304 85.8626 58.6304 81.4141 51.4083C80.3731 49.7155 79.6848 47.6836 79.7154 45.2852C79.7154 45.2852 78.037 44.7255 77.8675 46.1842C77.7013 47.6428 77.6403 50.3329 77.6437 52.5209C77.6437 54.7089 81.058 63.0166 90.9044 63.0166C100.751 63.0166 104.162 54.7089 104.165 52.5209C104.165 50.3329 104.104 47.6428 103.938 46.1842Z" fill="#FAFAFA"/>
<path d="M105.956 34.3621C104.657 36.3737 101.188 36.6417 98.2081 34.9558C95.2277 33.2732 93.8681 30.2778 95.1667 28.2662C96.4653 26.2546 99.9339 25.99 102.914 27.6726C105.895 29.3551 107.254 32.3505 105.956 34.3621ZM95.7567 40.5055C94.9022 43.8774 90.9047 41.8523 90.9047 41.8523C90.9047 41.8523 86.9037 43.8774 86.0527 40.5055C85.1982 37.1302 90.9047 32.4082 90.9047 32.4082C90.9047 32.4082 96.6077 37.1302 95.7567 40.5055ZM83.5979 34.9558C80.6209 36.6417 77.1523 36.3737 75.8537 34.3621C74.5517 32.3505 75.9147 29.3551 78.8951 27.6726C81.872 25.99 85.3407 26.2546 86.6393 28.2662C87.9413 30.2778 86.5782 33.2732 83.5979 34.9558ZM108.936 30.4474C108.739 27.8693 112.672 5.73137 90.9047 4.62549C69.1335 5.73137 73.0666 27.8693 72.8699 30.4474C72.6733 33.0222 68.0858 36.7639 74.5754 40.4445C81.0685 44.1217 80.4785 45.2886 80.4785 47.9889C80.4785 50.6857 90.9047 50.6857 90.9047 50.6857C90.9047 50.6857 101.331 50.6857 101.331 47.9889C101.331 45.2886 100.741 44.1217 107.231 40.4445C113.724 36.7639 109.133 33.0222 108.936 30.4474Z" fill="#FAFAFA"/>
<path d="M82.8555 51.5677C82.1536 51.5677 81.584 50.9978 81.584 50.2956V48.3722C81.584 47.6666 82.1536 47.0967 82.8555 47.0967C83.5573 47.0967 84.127 47.6666 84.127 48.3722V50.2956C84.127 50.9978 83.5573 51.5677 82.8555 51.5677Z" fill="#FAFAFA"/>
<path d="M86.0762 52.9178C85.3743 52.9178 84.8047 52.3513 84.8047 51.6457V49.7223C84.8047 49.0201 85.3743 48.4502 86.0762 48.4502C86.778 48.4502 87.3443 49.0201 87.3443 49.7223V51.6457C87.3443 52.3513 86.778 52.9178 86.0762 52.9178Z" fill="#FAFAFA"/>
<path d="M89.2939 53.0872C88.5921 53.0872 88.0225 52.5139 88.0225 51.8151V49.8883C88.0225 49.1861 88.5921 48.6162 89.2939 48.6162C89.9958 48.6162 90.5654 49.1861 90.5654 49.8883V51.8151C90.5654 52.5139 89.9958 53.0872 89.2939 53.0872Z" fill="#FAFAFA"/>
<path d="M92.5113 53.2503C91.8128 53.2503 91.2432 52.6838 91.2432 51.9782V50.0514C91.2432 49.3492 91.8128 48.7793 92.5113 48.7793C93.2131 48.7793 93.7827 49.3492 93.7827 50.0514V51.9782C93.7827 52.6838 93.2131 53.2503 92.5113 53.2503Z" fill="#FAFAFA"/>
<path d="M82.8555 56.3201C82.1536 56.3201 81.584 55.7502 81.584 55.048V53.1212C81.584 52.419 82.1536 51.8491 82.8555 51.8491C83.5573 51.8491 84.127 52.419 84.127 53.1212V55.048C84.127 55.7502 83.5573 56.3201 82.8555 56.3201Z" fill="#FAFAFA"/>
<path d="M86.0728 57.6736C85.3709 57.6736 84.8047 57.1037 84.8047 56.3982V54.4747C84.8047 53.7725 85.3709 53.2026 86.0728 53.2026C86.7746 53.2026 87.3443 53.7725 87.3443 54.4747V56.3982C87.3443 57.1037 86.7746 57.6736 86.0728 57.6736Z" fill="#FAFAFA"/>
<path d="M89.2939 58.1654C88.5921 58.1654 88.0225 57.5955 88.0225 56.8967V54.9699C88.0225 54.2677 88.5921 53.6978 89.2939 53.6978C89.9958 53.6978 90.5654 54.2677 90.5654 54.9699V56.8967C90.5654 57.5955 89.9958 58.1654 89.2939 58.1654Z" fill="#FAFAFA"/>
<path d="M92.5113 58.3319C91.8094 58.3319 91.2432 57.762 91.2432 57.0598V55.1363C91.2432 54.4307 91.8094 53.8608 92.5113 53.8608C93.2131 53.8608 93.7827 54.4307 93.7827 55.1363V57.0598C93.7827 57.762 93.2131 58.3319 92.5113 58.3319Z" fill="#FAFAFA"/>
<path d="M98.9507 51.5677C99.6526 51.5677 100.222 50.9978 100.222 50.2956V48.3722C100.222 47.6666 99.6526 47.0967 98.9507 47.0967C98.2489 47.0967 97.6826 47.6666 97.6826 48.3722V50.2956C97.6826 50.9978 98.2489 51.5677 98.9507 51.5677Z" fill="#FAFAFA"/>
<path d="M95.7324 52.9178C96.4343 52.9178 97.0039 52.3513 97.0039 51.6457V49.7223C97.0039 49.0201 96.4343 48.4502 95.7324 48.4502C95.0306 48.4502 94.4609 49.0201 94.4609 49.7223V51.6457C94.4609 52.3513 95.0306 52.9178 95.7324 52.9178Z" fill="#FAFAFA"/>
<path d="M92.5113 53.0872C93.2131 53.0872 93.7827 52.5139 93.7827 51.8151V49.8883C93.7827 49.1861 93.2131 48.6162 92.5113 48.6162C91.8094 48.6162 91.2432 49.1861 91.2432 49.8883V51.8151C91.2432 52.5139 91.8094 53.0872 92.5113 53.0872Z" fill="#FAFAFA"/>
<path d="M89.2939 53.2503C89.9958 53.2503 90.5654 52.6838 90.5654 51.9782V50.0514C90.5654 49.3492 89.9958 48.7793 89.2939 48.7793C88.5921 48.7793 88.0225 49.3492 88.0225 50.0514V51.9782C88.0225 52.6838 88.5921 53.2503 89.2939 53.2503Z" fill="#FAFAFA"/>
<path d="M98.9502 56.3201C99.6521 56.3201 100.222 55.7502 100.222 55.048V53.1212C100.222 52.419 99.6521 51.8491 98.9502 51.8491C98.2483 51.8491 97.6787 52.419 97.6787 53.1212V55.048C97.6787 55.7502 98.2483 56.3201 98.9502 56.3201Z" fill="#FAFAFA"/>
<path d="M95.7324 57.6736C96.4343 57.6736 97.0005 57.1037 97.0005 56.3982V54.4747C97.0005 53.7725 96.4343 53.2026 95.7324 53.2026C95.0306 53.2026 94.4609 53.7725 94.4609 54.4747V56.3982C94.4609 57.1037 95.0306 57.6736 95.7324 57.6736Z" fill="#FAFAFA"/>
<path d="M92.5113 58.1654C93.2131 58.1654 93.7827 57.5955 93.7827 56.8967V54.9699C93.7827 54.2677 93.2131 53.6978 92.5113 53.6978C91.8094 53.6978 91.2432 54.2677 91.2432 54.9699V56.8967C91.2432 57.5955 91.8094 58.1654 92.5113 58.1654Z" fill="#FAFAFA"/>
<path d="M89.2939 58.3319C89.9958 58.3319 90.5654 57.762 90.5654 57.0598V55.1363C90.5654 54.4307 89.9958 53.8608 89.2939 53.8608C88.5921 53.8608 88.0225 54.4307 88.0225 55.1363V57.0598C88.0225 57.762 88.5921 58.3319 89.2939 58.3319Z" fill="#FAFAFA"/>
<path d="M86.5953 82.7153C86.5953 82.7187 88.5008 86.0499 83.9981 85.3612C79.4987 84.659 64.0171 80.5951 61.7624 81.4805C59.5178 82.3523 59.4025 88.092 56.6595 87.5391C53.9131 86.9895 50.163 82.6372 53.2316 81.7451C56.2967 80.8529 58.1954 76.0054 64.0205 78.0746C69.8388 80.127 85.1611 79.3976 86.5953 82.7153Z" fill="#FAFAFA"/>
<path d="M117.612 135.947C117.127 135.411 116.303 135.367 115.764 135.838C115.693 135.896 114.767 136.602 112.943 136.269C111.176 135.95 108.064 134.532 103.69 129.383C107.091 131.964 110.01 133.281 112.438 133.301C112.801 133.304 113.15 133.277 113.489 133.223C115.662 132.877 116.839 131.401 117.188 130.584C117.476 129.912 117.164 129.132 116.49 128.847C115.825 128.562 115.052 128.864 114.757 129.522C114.703 129.631 114.262 130.452 113.001 130.621C111.332 130.852 107.759 130.058 100.988 123.545C104.734 125.729 107.966 126.839 110.675 126.863C111.536 126.866 112.339 126.764 113.092 126.554C116.31 125.645 117.266 123.039 117.303 122.927C117.547 122.239 117.181 121.482 116.486 121.242C115.798 121.001 115.045 121.357 114.794 122.039C114.76 122.127 114.184 123.521 112.299 124.027C110.22 124.58 105.307 124.308 95.366 116.404C95.2778 116.33 95.1795 116.275 95.0778 116.231C95.1287 115.736 95.166 115.217 95.1897 114.688C100.652 118.002 105.263 119.698 108.996 119.722C110.054 119.732 111.041 119.603 111.956 119.345C115.127 118.446 116.188 116.268 116.3 116.021C116.601 115.353 116.3 114.572 115.625 114.274C114.957 113.979 114.174 114.27 113.869 114.925C113.825 115.013 113.153 116.289 111.119 116.828C108.583 117.503 103.802 117.093 95.1863 111.557C95.166 110.96 95.132 110.352 95.0914 109.745C100.527 111.323 104.361 112.089 107.165 112.11C111.434 112.137 113.333 110.441 114.882 107.316C115.208 106.658 114.933 105.864 114.269 105.542C113.601 105.223 112.801 105.495 112.475 106.153C110.966 109.202 109.878 111.39 94.8438 106.913C94.7828 106.339 94.7184 105.773 94.654 105.22C94.8303 105.223 95.01 105.223 95.1829 105.223C107.799 105.254 112.709 100.986 112.933 100.779C113.482 100.287 113.519 99.4496 113.018 98.9102C112.519 98.3742 111.672 98.3335 111.126 98.822C111.031 98.9068 106.358 102.777 94.3081 102.564C94.1454 101.38 93.9928 100.315 93.8741 99.453C104.402 98.7033 109.373 93.9507 109.596 93.7268C110.122 93.2112 110.122 92.3699 109.593 91.8543C109.068 91.3387 108.216 91.3387 107.691 91.8543C107.613 91.9289 103.161 96.0878 93.8029 96.8002C94.3285 95.2805 96.3493 93.3469 98.3837 91.7084C103.775 90.2396 106.318 87.5665 106.464 87.407C106.962 86.8677 106.921 86.0298 106.369 85.5379C105.816 85.0494 104.965 85.0901 104.463 85.6261C104.426 85.6668 103.103 87.0169 100.343 88.2076C99.038 88.0075 97.4411 87.5393 95.9288 86.4809C92.5552 84.1233 90.9005 87.7259 90.9039 87.7259C90.9039 87.7259 89.2493 84.1233 85.8756 86.4809C84.3634 87.5393 82.7664 88.0075 81.461 88.2076C78.7011 87.0169 77.3787 85.6668 77.3414 85.6261C76.8396 85.0901 75.9886 85.0494 75.4359 85.5379C74.8832 86.0298 74.8425 86.8677 75.341 87.407C75.4868 87.5665 78.0297 90.2396 83.4242 91.7084C85.4552 93.3469 87.476 95.2805 88.0016 96.8002C78.6434 96.0878 74.1915 91.9289 74.1136 91.8543C73.588 91.3387 72.737 91.3387 72.2114 91.8543C71.6825 92.3699 71.6825 93.2112 72.208 93.7268C72.4352 93.9507 77.4025 98.7033 87.9304 99.453C87.8117 100.315 87.6591 101.38 87.4964 102.564C75.4461 102.777 70.7738 98.9068 70.6789 98.822C70.133 98.3335 69.2887 98.3742 68.7869 98.9102C68.2851 99.4496 68.3224 100.287 68.8717 100.779C69.0954 100.986 74.0051 105.254 86.6216 105.223C86.7945 105.223 86.9742 105.223 87.1505 105.22C87.0861 105.773 87.0217 106.339 86.9606 106.913C71.9266 111.39 70.8416 109.202 69.3294 106.153C69.0039 105.495 68.2037 105.223 67.5358 105.542C66.8712 105.864 66.5965 106.658 66.922 107.316C68.4716 110.441 70.3703 112.137 74.6391 112.11C77.4432 112.089 81.278 111.323 86.7131 109.745C86.6724 110.352 86.6385 110.96 86.6182 111.557C78.006 117.093 73.2252 117.503 70.6856 116.828C68.6513 116.289 67.9799 115.013 67.9358 114.925C67.6307 114.27 66.8475 113.979 66.1795 114.274C65.5048 114.572 65.203 115.353 65.5048 116.021C65.6167 116.268 66.6779 118.446 69.8482 119.345C70.7636 119.603 71.7503 119.732 72.8082 119.722C76.5413 119.698 81.1525 118.002 86.6182 114.688C86.6385 115.217 86.6758 115.736 86.7267 116.231C86.6284 116.279 86.5266 116.33 86.4385 116.404C76.4972 124.308 71.5842 124.58 69.5057 124.027C67.6205 123.521 67.0441 122.127 67.0102 122.039C66.7593 121.357 66.0066 121.001 65.3183 121.242C64.6232 121.482 64.257 122.239 64.5011 122.927C64.5418 123.039 65.4946 125.645 68.7123 126.554C69.465 126.764 70.2686 126.866 71.1298 126.863C73.8389 126.839 77.0702 125.729 80.8168 123.545C74.0458 130.058 70.472 130.852 68.8038 130.621C67.5425 130.452 67.1018 129.631 67.0475 129.522C66.7525 128.864 65.9795 128.562 65.3149 128.847C64.6402 129.132 64.3282 129.912 64.6164 130.584C64.9657 131.401 66.1422 132.877 68.3156 133.223C68.6547 133.277 69.0039 133.304 69.3667 133.301C71.7944 133.281 74.7137 131.964 78.1145 129.383C73.7406 134.532 70.628 135.95 68.8615 136.269C67.0373 136.602 66.1117 135.896 66.0405 135.838C65.5014 135.367 64.6775 135.411 64.1926 135.947C63.701 136.483 63.7416 137.324 64.2808 137.813C64.4367 137.955 65.6913 139.027 67.9901 139.007C68.3427 139 68.7191 138.973 69.1192 138.912C74.6289 138.06 80.8507 131.744 87.7473 120.156C88.0422 120.699 88.3983 121.14 88.8323 121.445C88.8323 121.445 88.7611 124.42 90.9039 124.42C93.0434 124.42 92.9756 121.445 92.9756 121.445C93.4062 121.14 93.7622 120.699 94.0572 120.156C100.954 131.744 107.176 138.06 112.685 138.912C113.085 138.973 113.462 139 113.814 139.007C116.113 139.027 117.371 137.955 117.524 137.813C118.066 137.324 118.104 136.483 117.612 135.947Z" fill="#FAFAFA"/>
<path d="M95.2106 82.7153C95.2106 82.7187 93.3051 86.0499 97.8112 85.3612C102.307 84.659 117.792 80.5951 120.044 81.4805C122.292 82.3523 122.403 88.092 125.15 87.5391C127.893 86.9895 131.646 82.6372 128.578 81.7451C125.509 80.8529 123.614 76.0054 117.785 78.0746C111.967 80.127 96.6449 79.3976 95.2106 82.7153Z" fill="#FAFAFA"/>
<path d="M94.142 70.8494H87.6625C86.0181 70.8494 84.6855 69.5162 84.6855 67.871C84.6855 66.2257 86.0181 64.8926 87.6625 64.8926H94.142C95.7865 64.8926 97.119 66.2257 97.119 67.871C97.119 69.5162 95.7865 70.8494 94.142 70.8494Z" fill="#FAFAFA"/>
<path d="M94.142 78.4378H87.6625C86.0181 78.4378 84.6855 77.1012 84.6855 75.456C84.6855 73.8107 86.0181 72.4775 87.6625 72.4775H94.142C95.7865 72.4775 97.119 73.8107 97.119 75.456C97.119 77.1012 95.7865 78.4378 94.142 78.4378Z" fill="#FAFAFA"/>
<path d="M94.142 132.327H87.6625C86.0181 132.327 84.6855 130.994 84.6855 129.346C84.6855 127.7 86.0181 126.367 87.6625 126.367H94.142C95.7865 126.367 97.119 127.7 97.119 129.346C97.119 130.994 95.7865 132.327 94.142 132.327Z" fill="#FAFAFA"/>
<path d="M94.142 140.018H87.6625C86.0181 140.018 84.6855 138.685 84.6855 137.039C84.6855 135.391 86.0181 134.058 87.6625 134.058H94.142C95.7865 134.058 97.119 135.391 97.119 137.039C97.119 138.685 95.7865 140.018 94.142 140.018Z" fill="#FAFAFA"/>
<path d="M84.8422 192.788C78.0745 197.384 78.5017 189.246 78.5017 189.246C80.7599 190.003 84.8422 192.788 84.8422 192.788ZM85.3236 178.245C87.8598 182.848 87.2122 185.912 90.9046 185.912V166.739C90.9046 166.739 88.1141 163.563 82.1263 165.019C82.1263 165.019 70.8898 155.765 63.1286 165.019C55.4828 174.13 73.5005 179.378 73.5005 188.751C73.5005 198.127 85.6593 199.301 90.9046 195.342V189.982C90.9046 189.982 84.9032 188.972 82.2314 185.834C79.5596 182.699 81.3261 180.681 79.5596 179.144C77.7965 177.611 82.7908 173.642 85.3236 178.245Z" fill="#FAFAFA"/>
<path d="M103.304 189.246C103.304 189.246 103.734 197.384 96.9633 192.788C96.9633 192.788 101.046 190.003 103.304 189.246ZM102.246 179.144C100.479 180.681 102.246 182.699 99.5741 185.834C96.9023 188.972 90.9043 189.982 90.9043 189.982V195.342C96.1462 199.301 108.305 198.127 108.305 188.751C108.305 179.378 126.323 174.13 118.677 165.019C110.916 155.765 99.6826 165.019 99.6826 165.019C93.6914 163.563 90.9043 166.739 90.9043 166.739V185.912C94.5933 185.912 93.9491 182.848 96.4819 178.245C99.0181 173.642 104.012 177.611 102.246 179.144Z" fill="#FAFAFA"/>
<path d="M94.142 147.711H87.6625C86.0181 147.711 84.6855 146.375 84.6855 144.729C84.6855 143.084 86.0181 141.748 87.6625 141.748H94.142C95.7865 141.748 97.119 143.084 97.119 144.729C97.119 146.375 95.7865 147.711 94.142 147.711Z" fill="#FAFAFA"/>
<path d="M94.142 155.398H87.6625C86.0181 155.398 84.6855 154.065 84.6855 152.42C84.6855 150.775 86.0181 149.438 87.6625 149.438H94.142C95.7865 149.438 97.119 150.775 97.119 152.42C97.119 154.065 95.7865 155.398 94.142 155.398Z" fill="#FAFAFA"/>
<path d="M94.142 163.092H87.6625C86.0181 163.092 84.6855 161.759 84.6855 160.11C84.6855 158.465 86.0181 157.132 87.6625 157.132H94.142C95.7865 157.132 97.119 158.465 97.119 160.11C97.119 161.759 95.7865 163.092 94.142 163.092Z" fill="#FAFAFA"/>
<path d="M51.9464 86.8033C49.7696 86.4132 47.7081 87.7667 47.3453 89.8191C47.2165 90.5314 47.3114 91.2336 47.5827 91.8646C47.8844 92.5702 47.8471 93.3742 47.5522 94.0831L34.9865 124.237C34.1728 126.191 32.6741 127.758 30.8093 128.752C29.9006 129.241 29.0766 129.909 28.9241 130.764C28.5579 132.819 30.0294 134.797 32.2062 135.184C32.9284 135.313 33.637 135.248 34.2779 135.028C34.8543 135.978 35.8511 136.69 37.0683 136.907C39.2451 137.294 41.2083 135.923 41.6694 133.888C41.8525 133.081 41.6593 132.351 41.2253 131.7C39.9877 129.844 39.6147 127.544 40.4013 125.455L51.6277 95.5486C51.9023 94.8125 52.4652 94.2358 53.167 93.8932C54.2249 93.3809 55.0149 92.4243 55.2285 91.2235C55.5947 89.1677 54.1232 87.19 51.9464 86.8033Z" fill="#FAFAFA"/>
<path d="M30.4905 134.902C28.6154 134.522 26.8015 135.645 26.442 137.416C26.3607 137.802 26.3607 138.189 26.4251 138.555C26.6726 140.007 26.4319 141.503 25.8758 142.867L15.9006 167.373C15.409 168.58 14.68 169.697 13.6696 170.514C13.2254 170.874 12.9033 171.376 12.7914 171.966C12.5269 173.353 13.5 174.703 14.9648 174.982C16.4261 175.26 17.8265 174.364 18.0909 172.98C18.1316 172.76 18.1418 172.543 18.1248 172.336C18.0197 171.036 18.3181 169.737 18.8301 168.54L29.2461 144.166C29.8462 142.765 30.8532 141.598 32.0603 140.669C32.6503 140.214 33.0809 139.57 33.2369 138.803C33.5963 137.032 32.3689 135.285 30.4905 134.902Z" fill="#FAFAFA"/>
<path d="M34.8708 136.917C33.5112 136.564 32.1447 137.317 31.8125 138.596C31.748 138.851 31.7277 139.105 31.748 139.356C31.8531 140.587 31.6192 141.826 31.1309 142.962L20.247 168.299C19.7418 169.469 19.0366 170.568 18.0533 171.379C17.7583 171.62 17.5413 171.949 17.4464 172.339C17.2023 173.34 17.86 174.361 18.9213 174.622C19.9792 174.883 21.037 174.279 21.2812 173.279C21.3117 173.153 21.3286 173.024 21.332 172.895C21.3558 171.783 21.6914 170.701 22.1458 169.683L33.5112 144.143C34.0537 142.928 34.9284 141.914 35.9592 141.069C36.3254 140.767 36.6034 140.357 36.7289 139.872C37.0578 138.589 36.227 137.266 34.8708 136.917Z" fill="#FAFAFA"/>
<path d="M16.1278 175.426C16.1278 175.426 11.8285 175.328 10.6723 179.982C9.5127 184.643 20.539 186.244 21.0917 181.987C21.641 177.729 19.2709 175.579 16.1278 175.426Z" fill="#FAFAFA"/>
<path d="M19.9457 192.232C18.8641 192.245 18.0334 191.662 18.2063 191.007L18.4436 190.118C18.742 189.002 18.7284 187.869 18.4097 186.76L18.1554 185.878C17.9656 185.227 18.7827 184.626 19.8677 184.616C20.9493 184.602 21.78 185.189 21.6071 185.841L21.3697 186.733C21.0714 187.845 21.0849 188.978 21.4037 190.088L21.658 190.973C21.8478 191.621 21.0307 192.221 19.9457 192.232Z" fill="#FAFAFA"/>
<path d="M19.0227 203.606C18.2123 203.501 17.6427 203.039 17.8326 202.636L18.0903 202.09C18.4124 201.404 18.5073 200.672 18.3683 199.929L18.2564 199.332C18.175 198.894 18.843 198.592 19.6567 198.697C20.4671 198.802 21.0367 199.264 20.8468 199.664L20.5892 200.214C20.2671 200.899 20.1721 201.628 20.3111 202.374L20.423 202.972C20.5044 203.409 19.8364 203.711 19.0227 203.606Z" fill="#FAFAFA"/>
<path d="M19.7418 198.219C18.7924 198.182 18.0871 197.724 18.2634 197.252L18.5042 196.611C18.8026 195.811 18.8331 194.983 18.5923 194.159L18.4025 193.504C18.2601 193.022 18.9992 192.615 19.9486 192.649C20.898 192.686 21.6032 193.144 21.4269 193.616L21.1862 194.257C20.8878 195.057 20.8573 195.885 21.098 196.709L21.2879 197.364C21.4303 197.846 20.6911 198.253 19.7418 198.219Z" fill="#FAFAFA"/>
<path d="M10.8217 201.584C9.8316 201.36 9.22129 200.573 9.53661 199.935L9.974 199.063C10.5165 197.974 10.7844 196.797 10.764 195.579L10.7505 194.606C10.7403 193.894 11.632 193.449 12.6187 193.673C13.6088 193.9 14.2191 194.687 13.9003 195.325L13.4663 196.197C12.9238 197.282 12.656 198.463 12.6729 199.677L12.6899 200.651C12.7001 201.367 11.8083 201.811 10.8217 201.584Z" fill="#FAFAFA"/>
<path d="M12.9808 193.273C11.9908 192.94 11.4516 192.051 11.8517 191.407L12.3976 190.528C13.0791 189.426 13.486 188.201 13.6047 186.912L13.6962 185.884C13.7674 185.124 14.7338 184.741 15.7238 185.074C16.7139 185.403 17.253 186.295 16.8529 186.939L16.3104 187.818C15.6255 188.92 15.2186 190.142 15.1 191.431L15.0084 192.465C14.9372 193.218 13.9709 193.605 12.9808 193.273Z" fill="#FAFAFA"/>
<path d="M7.20361 205.699C6.18643 205.733 5.38285 204.898 5.51847 203.942L5.70496 202.636C5.93552 201.004 5.87449 199.352 5.52865 197.741L5.25061 196.452C5.04718 195.509 5.78633 194.616 6.80352 194.582C7.81732 194.542 8.6209 195.383 8.48527 196.336L8.30218 197.642C8.07161 199.271 8.12926 200.926 8.4751 202.537L8.75313 203.823C8.95657 204.766 8.21741 205.662 7.20361 205.699Z" fill="#FAFAFA"/>
<path d="M7.18305 193.822C6.09127 193.361 5.59624 192.214 6.14552 191.424L6.89485 190.339C7.83405 188.985 8.47827 187.469 8.7936 185.851L9.0479 184.558C9.23438 183.608 10.4008 183.167 11.4925 183.632C12.5843 184.093 13.0793 185.24 12.5301 186.03L11.7773 187.116C10.8381 188.469 10.1973 189.986 9.8786 191.604L9.62769 192.896C9.44121 193.846 8.27483 194.287 7.18305 193.822Z" fill="#FAFAFA"/>
<path d="M10.431 212.056C9.68163 212.494 8.8577 212.389 8.70173 211.836L8.49152 211.083C8.22366 210.143 7.73541 209.305 7.04372 208.61L6.49105 208.057C6.08756 207.65 6.3995 206.883 7.14544 206.442C7.89138 206.004 8.7153 206.106 8.87127 206.659L9.08488 207.415C9.34934 208.359 9.84098 209.193 10.5327 209.885L11.0853 210.441C11.4888 210.848 11.1769 211.619 10.431 212.056Z" fill="#FAFAFA"/>
<path d="M11.2378 208.379C10.38 208.494 9.65781 208.084 9.72562 207.514L9.82056 206.734C9.93584 205.763 9.80361 204.803 9.43403 203.898L9.13566 203.172C8.91527 202.642 9.49845 202.052 10.3597 201.933C11.2175 201.815 11.9363 202.229 11.8685 202.799L11.777 203.575C11.6617 204.549 11.7905 205.509 12.1635 206.415L12.4619 207.141C12.6789 207.67 12.0957 208.26 11.2378 208.379Z" fill="#FAFAFA"/>
<path d="M13.9003 217.338C13.2527 217.762 12.5135 217.711 12.3576 217.229L12.1406 216.574C11.8693 215.753 11.4048 215.038 10.764 214.461L10.252 213.996C9.87901 213.66 10.1299 212.965 10.7775 212.541C11.4285 212.117 12.1643 212.168 12.3236 212.649L12.5406 213.304C12.8085 214.125 13.273 214.837 13.9139 215.418L14.4258 215.879C14.8022 216.218 14.5513 216.914 13.9003 217.338Z" fill="#FAFAFA"/>
<path d="M14.6864 212.978C14.0354 213.402 13.32 213.382 13.1844 212.934L12.9979 212.327C12.7639 211.567 12.3401 210.909 11.7366 210.39L11.2551 209.973C10.9025 209.668 11.1737 209.006 11.8247 208.582C12.4724 208.158 13.1878 208.178 13.3268 208.623L13.5099 209.233C13.7438 209.993 14.1711 210.651 14.7712 211.17L15.2527 211.584C15.6053 211.893 15.334 212.554 14.6864 212.978Z" fill="#FAFAFA"/>
<path d="M129.86 86.8033C132.04 86.4132 134.101 87.7667 134.464 89.8191C134.59 90.5314 134.495 91.2336 134.227 91.8646C133.925 92.5702 133.959 93.3742 134.254 94.0831L146.82 124.237C147.633 126.191 149.132 127.758 150.997 128.752C151.909 129.241 152.733 129.909 152.885 130.764C153.248 132.819 151.78 134.797 149.603 135.184C148.878 135.313 148.169 135.248 147.532 135.028C146.952 135.978 145.958 136.69 144.741 136.907C142.564 137.294 140.601 135.923 140.137 133.888C139.954 133.081 140.147 132.351 140.581 131.7C141.822 129.844 142.191 127.544 141.408 125.455L130.182 95.5486C129.904 94.8125 129.344 94.2358 128.639 93.8932C127.585 93.3809 126.791 92.4243 126.578 91.2235C126.215 89.1677 127.683 87.19 129.86 86.8033Z" fill="#FAFAFA"/>
<path d="M151.316 134.902C153.194 134.522 155.005 135.645 155.367 137.416C155.445 137.802 155.449 138.189 155.384 138.555C155.133 140.007 155.374 141.503 155.93 142.867L165.905 167.373C166.397 168.58 167.126 169.697 168.136 170.514C168.581 170.874 168.903 171.376 169.015 171.966C169.279 173.353 168.306 174.703 166.845 174.982C165.38 175.26 163.98 174.364 163.719 172.98C163.674 172.76 163.664 172.543 163.681 172.336C163.786 171.036 163.491 169.737 162.979 168.54L152.563 144.166C151.963 142.765 150.953 141.598 149.746 140.669C149.156 140.214 148.729 139.57 148.569 138.803C148.21 137.032 149.441 135.285 151.316 134.902Z" fill="#FAFAFA"/>
<path d="M146.938 136.917C148.294 136.564 149.664 137.317 149.993 138.596C150.058 138.851 150.078 139.105 150.058 139.356C149.952 140.587 150.186 141.826 150.675 142.962L161.562 168.299C162.064 169.469 162.769 170.568 163.756 171.379C164.047 171.62 164.264 171.949 164.359 172.339C164.607 173.34 163.946 174.361 162.888 174.622C161.826 174.883 160.769 174.279 160.524 173.279C160.494 173.153 160.477 173.024 160.474 172.895C160.45 171.783 160.114 170.701 159.66 169.683L148.294 144.143C147.755 142.928 146.877 141.914 145.85 141.069C145.48 140.767 145.202 140.357 145.077 139.872C144.748 138.589 145.579 137.266 146.938 136.917Z" fill="#FAFAFA"/>
<path d="M165.678 175.426C165.678 175.426 169.977 175.328 171.136 179.982C172.293 184.643 161.266 186.244 160.717 181.987C160.164 177.729 162.534 175.579 165.678 175.426Z" fill="#FAFAFA"/>
<path d="M161.86 192.232C162.945 192.245 163.772 191.662 163.599 191.007L163.362 190.118C163.064 189.002 163.077 187.869 163.396 186.76L163.654 185.878C163.84 185.227 163.023 184.626 161.938 184.616C160.856 184.602 160.026 185.189 160.202 185.841L160.439 186.733C160.734 187.845 160.724 188.978 160.402 190.088L160.148 190.973C159.961 191.621 160.778 192.221 161.86 192.232Z" fill="#FAFAFA"/>
<path d="M162.783 203.606C163.596 203.501 164.166 203.039 163.976 202.636L163.715 202.09C163.393 201.404 163.298 200.672 163.437 199.929L163.549 199.332C163.63 198.894 162.966 198.592 162.152 198.697C161.338 198.802 160.769 199.264 160.959 199.664L161.216 200.214C161.542 200.899 161.633 201.628 161.494 202.374L161.382 202.972C161.301 203.409 161.969 203.711 162.783 203.606Z" fill="#FAFAFA"/>
<path d="M162.064 198.219C163.013 198.182 163.718 197.724 163.542 197.252L163.305 196.611C163.003 195.811 162.972 194.983 163.213 194.159L163.406 193.504C163.545 193.022 162.81 192.615 161.86 192.649C160.911 192.686 160.202 193.144 160.379 193.616L160.619 194.257C160.921 195.057 160.952 195.885 160.711 196.709L160.518 197.364C160.379 197.846 161.114 198.253 162.064 198.219Z" fill="#FAFAFA"/>
<path d="M170.987 201.584C171.974 201.36 172.588 200.573 172.269 199.935L171.835 199.063C171.289 197.974 171.021 196.797 171.042 195.579L171.055 194.606C171.069 193.894 170.177 193.449 169.187 193.673C168.197 193.9 167.587 194.687 167.905 195.325L168.339 196.197C168.885 197.282 169.153 198.463 169.133 199.677L169.116 200.651C169.106 201.367 169.997 201.811 170.987 201.584Z" fill="#FAFAFA"/>
<path d="M168.824 193.273C169.814 192.94 170.354 192.051 169.953 191.407L169.411 190.528C168.729 189.426 168.319 188.201 168.204 186.912L168.109 185.884C168.041 185.124 167.075 184.741 166.085 185.074C165.091 185.403 164.552 186.295 164.952 186.939L165.498 187.818C166.18 188.92 166.587 190.142 166.705 191.431L166.8 192.465C166.868 193.218 167.834 193.605 168.824 193.273Z" fill="#FAFAFA"/>
<path d="M174.605 205.699C175.619 205.733 176.423 204.898 176.287 203.942L176.104 202.636C175.87 201.004 175.931 199.352 176.277 197.741L176.555 196.452C176.758 195.509 176.019 194.616 175.002 194.582C173.988 194.542 173.185 195.383 173.32 196.336L173.507 197.642C173.737 199.271 173.676 200.926 173.33 202.537L173.052 203.823C172.849 204.766 173.588 205.662 174.605 205.699Z" fill="#FAFAFA"/>
<path d="M174.622 193.822C175.717 193.361 176.212 192.214 175.66 191.424L174.91 190.339C173.971 188.985 173.33 187.469 173.012 185.851L172.757 184.558C172.571 183.608 171.408 183.167 170.316 183.632C169.221 184.093 168.726 185.24 169.278 186.03L170.028 187.116C170.967 188.469 171.608 189.986 171.927 191.604L172.181 192.896C172.367 193.846 173.53 194.287 174.622 193.822Z" fill="#FAFAFA"/>
<path d="M171.377 212.056C172.123 212.494 172.947 212.389 173.103 211.836L173.317 211.083C173.581 210.143 174.069 209.305 174.761 208.61L175.314 208.057C175.72 207.65 175.409 206.883 174.659 206.442C173.913 206.004 173.089 206.106 172.933 206.659L172.72 207.415C172.455 208.359 171.967 209.193 171.275 209.885L170.723 210.441C170.316 210.848 170.628 211.619 171.377 212.056Z" fill="#FAFAFA"/>
<path d="M170.567 208.379C171.425 208.494 172.147 208.084 172.08 207.514L171.985 206.734C171.869 205.763 172.002 204.803 172.375 203.898L172.673 203.172C172.89 202.642 172.307 202.052 171.449 201.933C170.591 201.815 169.869 202.229 169.937 202.799L170.032 203.575C170.147 204.549 170.015 205.509 169.642 206.415L169.343 207.141C169.126 207.67 169.71 208.26 170.567 208.379Z" fill="#FAFAFA"/>
<path d="M167.905 217.338C168.556 217.762 169.292 217.711 169.452 217.229L169.665 216.574C169.936 215.753 170.401 215.038 171.042 214.461L171.554 213.996C171.927 213.66 171.679 212.965 171.028 212.541C170.377 212.117 169.641 212.168 169.485 212.649L169.268 213.304C168.997 214.125 168.533 214.837 167.892 215.418L167.38 215.879C167.007 216.218 167.258 216.914 167.905 217.338Z" fill="#FAFAFA"/>
<path d="M167.123 212.978C167.77 213.402 168.486 213.382 168.625 212.934L168.808 212.327C169.042 211.567 169.469 210.909 170.069 210.39L170.551 209.973C170.903 209.668 170.632 209.006 169.984 208.582C169.333 208.158 168.618 208.178 168.482 208.623L168.296 209.233C168.062 209.993 167.638 210.651 167.034 211.17L166.553 211.584C166.2 211.893 166.472 212.554 167.123 212.978Z" fill="#FAFAFA"/>
<path d="M70.6593 184.27C70.1643 187.051 67.3738 188.887 64.4206 188.361C61.4707 187.835 59.4804 185.152 59.9721 182.37C60.4671 179.585 63.261 177.753 66.2108 178.279C69.1606 178.805 71.1543 181.488 70.6593 184.27Z" fill="#FAFAFA"/>
<path d="M69.4822 259.985C70.3502 259.823 71.1335 259.47 71.7845 258.988C72.7847 259.721 74.1783 260.043 75.643 259.772C78.2606 259.283 80.0034 257.092 79.7931 254.833C79.3964 250.524 69.7637 251.6 68.2989 251.874C65.678 252.36 63.8199 254.571 64.1454 256.814C64.4709 259.053 66.8613 260.474 69.4822 259.985Z" fill="#FAFAFA"/>
<path d="M67.8011 184.952L62.5117 185.854L68.5911 253.516L74.6976 253.143L67.8011 184.952Z" fill="#FAFAFA"/>
<path d="M77.362 264.331C77.362 266.342 75.1038 267.974 72.3167 267.974C69.5296 267.974 67.2715 266.342 67.2715 264.331C67.2715 262.319 69.5296 260.691 72.3167 260.691C75.1038 260.691 77.362 262.319 77.362 264.331Z" fill="#FAFAFA"/>
<path d="M73.1511 268.988C75.2126 269.263 76.5858 271.149 76.223 273.201C76.1416 273.649 75.9857 274.066 75.7687 274.443C74.9176 275.925 74.5447 277.635 74.548 279.318L72.022 337.163C72.022 338.652 72.3035 340.131 72.9918 341.386C73.2935 341.939 73.4122 342.604 73.2833 343.286C72.9782 344.883 71.4355 345.989 69.8385 345.755C68.2381 345.518 67.187 344.032 67.4922 342.434C67.5396 342.183 67.6176 341.946 67.7227 341.722C68.3635 340.355 68.5975 338.838 68.5738 337.353L70.5946 279.487C70.5641 277.747 70.0216 276.112 69.1807 274.66C68.7704 273.951 68.6009 273.096 68.7603 272.204C69.123 270.155 71.0896 268.713 73.1511 268.988Z" fill="#FAFAFA"/>
<path d="M67.8823 269.562C69.4013 269.681 70.4795 270.997 70.2863 272.506C70.249 272.805 70.1642 273.09 70.0388 273.351C69.4251 274.65 69.1504 276.075 69.1775 277.486L67.2347 336.569C67.2618 338.025 67.5229 339.473 68.1875 340.715C68.3875 341.081 68.4723 341.519 68.4079 341.977C68.2451 343.154 67.1533 344.019 65.97 343.91C64.7901 343.802 63.9662 342.764 64.1289 341.586C64.1526 341.437 64.1865 341.291 64.2374 341.152C64.6714 339.938 64.7765 338.639 64.7392 337.37L66.2752 277.893C66.2277 276.377 65.7564 274.956 65.0613 273.663C64.8138 273.198 64.7019 272.652 64.7765 272.079C64.9698 270.569 66.3599 269.443 67.8823 269.562Z" fill="#FAFAFA"/>
<path d="M67.2687 346.627C67.2687 346.627 61.4436 350.681 64.2849 352.794C67.1263 354.908 75.3452 355.216 74.9315 352.133C74.5145 349.049 69.6489 344.951 67.2687 346.627Z" fill="#FAFAFA"/>
<path d="M70.8045 363.253C69.7195 362.778 69.1363 361.862 69.5805 361.329L70.1942 360.607C70.9571 359.701 71.4182 358.642 71.564 357.465L71.6793 356.526C71.7641 355.84 72.8321 355.647 73.9205 356.122C75.0055 356.597 75.5887 357.513 75.1445 358.042L74.5342 358.768C73.7679 359.67 73.3068 360.732 73.161 361.906L73.0457 362.845C72.9609 363.534 71.8929 363.727 70.8045 363.253Z" fill="#FAFAFA"/>
<path d="M67.0921 369.858C66.2038 369.356 65.7935 368.504 66.2309 368.073L66.8311 367.49C67.5804 366.757 68.0856 365.858 68.3297 364.837L68.523 364.019C68.6654 363.426 69.6046 363.338 70.4963 363.843C71.3847 364.345 71.7949 365.197 71.3575 365.627L70.7574 366.214C70.0081 366.947 69.5029 367.843 69.2587 368.864L69.0655 369.681C68.9231 370.278 67.9839 370.363 67.0921 369.858Z" fill="#FAFAFA"/>
<path d="M63.5186 373.453C62.8879 372.853 62.6404 372.151 63.0032 371.981L63.4983 371.744C64.1154 371.449 64.5629 370.974 64.8206 370.339L65.0274 369.83C65.18 369.457 65.892 369.664 66.5261 370.261C67.1567 370.858 67.4043 371.561 67.0415 371.734L66.5464 371.968C65.9293 372.263 65.4818 372.738 65.2241 373.372L65.0173 373.881C64.8647 374.254 64.1493 374.047 63.5186 373.453Z" fill="#FAFAFA"/>
<path d="M59.1175 359.786C58.2054 359.029 57.9003 357.985 58.4767 357.601L59.2633 357.076C60.2466 356.421 60.9857 355.532 61.4502 354.44L61.8232 353.571C62.0945 352.934 63.1761 353.046 64.0882 353.805C65.0002 354.565 65.3054 355.607 64.729 355.99L63.9424 356.516C62.9591 357.171 62.2199 358.063 61.7554 359.152L61.3824 360.02C61.1112 360.658 60.0296 360.546 59.1175 359.786Z" fill="#FAFAFA"/>
<path d="M53.1188 364.277C52.522 363.446 52.5017 362.503 53.0781 362.296L53.8681 362.011C54.8548 361.658 55.6889 361.054 56.3331 360.227L56.8519 359.569C57.2282 359.083 58.1199 359.399 58.7167 360.227C59.3134 361.058 59.3338 362.004 58.7574 362.211L57.9674 362.493C56.9807 362.845 56.1466 363.449 55.5024 364.277L54.9836 364.939C54.6073 365.42 53.7155 365.105 53.1188 364.277Z" fill="#FAFAFA"/>
<path d="M56.3608 367.259C55.6658 366.509 55.5132 365.59 56.0421 365.329L56.7643 364.976C57.6662 364.532 58.385 363.863 58.8936 362.991L59.2971 362.296C59.5955 361.787 60.5008 362.004 61.1959 362.754C61.891 363.504 62.0435 364.42 61.5146 364.681L60.7924 365.037C59.8905 365.481 59.1717 366.15 58.6631 367.021L58.2596 367.713C57.9612 368.226 57.0559 368.005 56.3608 367.259Z" fill="#FAFAFA"/>
<path d="M48.7118 366.879C48.2677 366.129 48.227 365.39 48.6237 365.322L49.1628 365.23C49.8375 365.122 50.4004 364.789 50.8242 364.25L51.1633 363.819C51.4108 363.504 52.0414 363.9 52.4822 364.647C52.923 365.396 52.9671 366.139 52.5704 366.207L52.0313 366.295C51.3531 366.404 50.7937 366.74 50.3699 367.276L50.0308 367.707C49.7799 368.022 49.1526 367.625 48.7118 366.879Z" fill="#FAFAFA"/>
<path d="M64.2678 366.156C63.3557 365.62 63.1217 364.433 63.7761 363.663L64.6712 362.605C65.7868 361.285 66.6615 359.786 67.2617 358.164L67.7398 356.865C68.0924 355.915 69.2418 355.535 70.1505 356.064C71.0592 356.6 71.2931 357.788 70.6387 358.561L69.747 359.616C68.6315 360.936 67.7533 362.435 67.1566 364.06L66.6785 365.356C66.3259 366.306 65.1764 366.686 64.2678 366.156Z" fill="#FAFAFA"/>
<path d="M60.5823 369.99C59.894 369.396 59.599 368.684 59.9618 368.49L60.4568 368.233C61.0773 367.907 61.5113 367.405 61.7419 366.743L61.925 366.214C62.0606 365.828 62.8065 366.014 63.4948 366.608C64.1831 367.201 64.4781 367.914 64.1153 368.107L63.6169 368.365C62.9964 368.691 62.5624 369.193 62.3352 369.854L62.1521 370.383C62.0165 370.77 61.2672 370.584 60.5823 369.99Z" fill="#FAFAFA"/>
<path d="M61.6802 362.663C60.9953 362.069 60.9275 361.092 61.5378 360.61L62.3753 359.959C63.423 359.138 64.2944 358.13 64.9488 356.974L65.4743 356.051C65.8575 355.373 66.834 355.298 67.5189 355.892C68.2072 356.482 68.275 357.462 67.6613 357.941L66.8238 358.595C65.7761 359.413 64.9081 360.42 64.2537 361.577L63.7282 362.503C63.345 363.178 62.3685 363.256 61.6802 362.663Z" fill="#FAFAFA"/>
<path d="M52.3629 370.207C51.8136 369.488 51.6678 368.728 52.0612 368.616L52.6003 368.463C53.275 368.273 53.8005 367.866 54.16 367.266L54.4448 366.784C54.655 366.431 55.3501 366.771 55.9027 367.49C56.4554 368.212 56.6012 368.969 56.2045 369.084L55.6688 369.233C54.994 369.423 54.4685 369.83 54.1091 370.434L53.8209 370.913C53.6107 371.265 52.9156 370.929 52.3629 370.207Z" fill="#FAFAFA"/>
<path d="M56.9 372.426C56.3677 371.869 56.1609 371.255 56.466 371.133L56.8865 370.977C57.4154 370.774 57.7951 370.404 58.0155 369.885L58.1952 369.471C58.3241 369.166 58.931 369.4 59.4633 369.953C59.999 370.509 60.2059 371.126 59.8973 371.242L59.4769 371.405C58.9513 371.608 58.5716 371.975 58.3478 372.494L58.1715 372.907C58.0427 373.209 57.4357 372.982 56.9 372.426Z" fill="#FAFAFA"/>
<path d="M111.147 184.27C111.642 187.051 114.436 188.887 117.386 188.361C120.335 187.835 122.329 185.152 121.834 182.37C121.339 179.585 118.549 177.753 115.595 178.279C112.646 178.805 110.655 181.488 111.147 184.27Z" fill="#FAFAFA"/>
<path d="M112.326 259.985C111.455 259.823 110.671 259.47 110.02 258.988C109.02 259.721 107.63 260.043 106.165 259.772C103.544 259.283 101.805 257.092 102.012 254.833C102.408 250.524 112.045 251.6 113.509 251.874C116.13 252.36 117.988 254.571 117.659 256.814C117.334 259.053 114.944 260.474 112.326 259.985Z" fill="#FAFAFA"/>
<path d="M114.008 184.952L119.298 185.854L113.218 253.516L107.108 253.143L114.008 184.952Z" fill="#FAFAFA"/>
<path d="M104.443 264.331C104.443 266.342 106.705 267.974 109.489 267.974C112.276 267.974 114.537 266.342 114.537 264.331C114.537 262.319 112.276 260.691 109.489 260.691C106.705 260.691 104.443 262.319 104.443 264.331Z" fill="#FAFAFA"/>
<path d="M108.654 268.988C106.596 269.263 105.219 271.149 105.585 273.201C105.663 273.649 105.819 274.066 106.036 274.443C106.887 275.925 107.26 277.635 107.26 279.318L109.783 337.163C109.783 338.652 109.505 340.131 108.817 341.386C108.511 341.939 108.393 342.604 108.525 343.286C108.827 344.883 110.37 345.989 111.97 345.755C113.57 345.518 114.618 344.032 114.316 342.434C114.269 342.183 114.187 341.946 114.082 341.722C113.441 340.355 113.207 338.838 113.235 337.353L111.21 279.487C111.241 277.747 111.783 276.112 112.624 274.66C113.035 273.951 113.204 273.096 113.048 272.204C112.682 270.155 110.715 268.713 108.654 268.988Z" fill="#FAFAFA"/>
<path d="M113.927 269.562C112.404 269.681 111.326 270.997 111.519 272.506C111.56 272.805 111.645 273.09 111.767 273.351C112.384 274.65 112.655 276.075 112.628 277.486L114.571 336.569C114.544 338.025 114.283 339.473 113.618 340.715C113.422 341.081 113.333 341.519 113.398 341.977C113.564 343.154 114.656 344.019 115.836 343.91C117.016 343.802 117.84 342.764 117.677 341.586C117.657 341.437 117.619 341.291 117.572 341.152C117.138 339.938 117.029 338.639 117.07 337.37L115.531 277.893C115.578 276.377 116.049 274.956 116.744 273.663C116.992 273.198 117.104 272.652 117.029 272.079C116.836 270.569 115.446 269.443 113.927 269.562Z" fill="#FAFAFA"/>
<path d="M114.54 346.627C114.54 346.627 120.366 350.681 117.524 352.794C114.683 354.908 106.461 355.216 106.878 352.133C107.295 349.049 112.16 344.951 114.54 346.627Z" fill="#FAFAFA"/>
<path d="M111.001 363.253C112.089 362.778 112.673 361.862 112.225 361.329L111.615 360.607C110.852 359.701 110.387 358.642 110.241 357.465L110.126 356.526C110.041 355.84 108.973 355.647 107.888 356.122C106.8 356.597 106.217 357.513 106.664 358.042L107.275 358.768C108.038 359.67 108.502 360.732 108.644 361.906L108.76 362.845C108.845 363.534 109.913 363.727 111.001 363.253Z" fill="#FAFAFA"/>
<path d="M114.713 369.858C115.601 369.356 116.012 368.504 115.574 368.073L114.974 367.49C114.225 366.757 113.72 365.858 113.476 364.837L113.282 364.019C113.14 363.426 112.201 363.338 111.312 363.843C110.424 364.345 110.01 365.197 110.451 365.627L111.048 366.214C111.797 366.947 112.306 367.843 112.547 368.864L112.743 369.681C112.882 370.278 113.825 370.363 114.713 369.858Z" fill="#FAFAFA"/>
<path d="M118.287 373.453C118.918 372.853 119.165 372.151 118.803 371.981L118.311 371.744C117.69 371.449 117.243 370.974 116.985 370.339L116.778 369.83C116.626 369.457 115.914 369.664 115.283 370.261C114.649 370.858 114.405 371.561 114.764 371.734L115.259 371.968C115.88 372.263 116.327 372.738 116.585 373.372L116.792 373.881C116.941 374.254 117.657 374.047 118.287 373.453Z" fill="#FAFAFA"/>
<path d="M122.688 359.786C123.6 359.029 123.908 357.985 123.332 357.601L122.545 357.076C121.559 356.421 120.82 355.532 120.355 354.44L119.982 353.571C119.711 352.934 118.633 353.046 117.721 353.805C116.808 354.565 116.5 355.607 117.076 355.99L117.863 356.516C118.85 357.171 119.589 358.063 120.053 359.152L120.423 360.02C120.698 360.658 121.776 360.546 122.688 359.786Z" fill="#FAFAFA"/>
<path d="M128.686 364.277C129.286 363.446 129.303 362.503 128.727 362.296L127.937 362.011C126.95 361.658 126.119 361.054 125.472 360.227L124.956 359.569C124.577 359.083 123.688 359.399 123.088 360.227C122.491 361.058 122.471 362.004 123.051 362.211L123.837 362.493C124.824 362.845 125.658 363.449 126.306 364.277L126.821 364.939C127.201 365.42 128.089 365.105 128.686 364.277Z" fill="#FAFAFA"/>
<path d="M125.445 367.259C126.14 366.509 126.293 365.59 125.764 365.329L125.045 364.976C124.14 364.532 123.421 363.863 122.915 362.991L122.509 362.296C122.214 361.787 121.308 362.004 120.61 362.754C119.915 363.504 119.762 364.42 120.291 364.681L121.013 365.037C121.915 365.481 122.634 366.15 123.143 367.021L123.546 367.713C123.845 368.226 124.75 368.005 125.445 367.259Z" fill="#FAFAFA"/>
<path d="M133.097 366.879C133.538 366.129 133.579 365.39 133.185 365.322L132.643 365.23C131.968 365.122 131.405 364.789 130.982 364.25L130.643 363.819C130.395 363.504 129.764 363.9 129.324 364.647C128.883 365.396 128.842 366.139 129.235 366.207L129.778 366.295C130.453 366.404 131.015 366.74 131.439 367.276L131.778 367.707C132.026 368.022 132.657 367.625 133.097 366.879Z" fill="#FAFAFA"/>
<path d="M117.538 366.156C118.45 365.62 118.684 364.433 118.03 363.663L117.138 362.605C116.019 361.285 115.144 359.786 114.544 358.164L114.066 356.865C113.717 355.915 112.567 355.535 111.655 356.064C110.746 356.6 110.513 357.788 111.167 358.561L112.059 359.616C113.178 360.936 114.052 362.435 114.649 364.06L115.131 365.356C115.48 366.306 116.629 366.686 117.538 366.156Z" fill="#FAFAFA"/>
<path d="M121.226 369.99C121.911 369.396 122.206 368.684 121.843 368.49L121.348 368.233C120.728 367.907 120.294 367.405 120.063 366.743L119.88 366.214C119.748 365.828 118.999 366.014 118.31 366.608C117.626 367.201 117.331 367.914 117.693 368.107L118.188 368.365C118.809 368.691 119.243 369.193 119.473 369.854L119.657 370.383C119.789 370.77 120.538 370.584 121.226 369.99Z" fill="#FAFAFA"/>
<path d="M120.125 362.663C120.813 362.069 120.881 361.092 120.267 360.61L119.43 359.959C118.382 359.138 117.514 358.13 116.856 356.974L116.334 356.051C115.951 355.373 114.975 355.298 114.286 355.892C113.598 356.482 113.53 357.462 114.144 357.941L114.981 358.595C116.029 359.413 116.897 360.42 117.555 361.577L118.077 362.503C118.46 363.178 119.437 363.256 120.125 362.663Z" fill="#FAFAFA"/>
<path d="M129.442 370.207C129.994 369.488 130.137 368.728 129.744 368.616L129.204 368.463C128.533 368.273 128.004 367.866 127.648 367.266L127.36 366.784C127.15 366.431 126.455 366.771 125.902 367.49C125.349 368.212 125.207 368.969 125.6 369.084L126.139 369.233C126.811 369.423 127.34 369.83 127.696 370.434L127.984 370.913C128.194 371.265 128.889 370.929 129.442 370.207Z" fill="#FAFAFA"/>
<path d="M124.906 372.426C125.442 371.869 125.649 371.255 125.34 371.133L124.92 370.977C124.394 370.774 124.011 370.404 123.79 369.885L123.614 369.471C123.485 369.166 122.878 369.4 122.343 369.953C121.807 370.509 121.6 371.126 121.909 371.242L122.329 371.405C122.855 371.608 123.238 371.975 123.458 372.494L123.634 372.907C123.763 373.209 124.37 372.982 124.906 372.426Z" fill="#FAFAFA"/>
<path d="M175.355 190.166L169.401 174.996C167.404 165.925 161.216 150.588 156.317 139.194C152.699 130.777 149.783 124.508 149.783 124.508C149.783 124.508 140.686 104.457 136.956 89.7478C133.223 75.0423 119.579 75.4596 119.579 75.4596C119.579 75.4596 108.814 74.2078 105.037 71.9113C102.575 70.4153 102.148 63.3152 102.148 58.5423C105.718 55.686 108.485 51.8867 109.977 47.9584C111.937 47.5514 113.534 46.0588 113.917 44.0913L114.232 42.4528L114.592 42.1577C116.623 40.5056 117.742 38.0564 117.623 35.5326C117.558 34.1858 117.063 32.9409 116.253 31.93C115.371 30.8207 113.917 30.3797 112.547 30.573L112.598 30.1355C113.646 20.8949 109.499 11.6646 101.256 6.00964C97.8623 3.67915 93.8987 1.99998 89.5214 1.99998H88.182C83.8081 1.99998 79.8411 3.67915 76.4471 6.00964C68.2079 11.6646 64.0577 20.8949 65.1054 30.1355L65.1563 30.573C63.7865 30.3797 62.3319 30.8207 61.4503 31.93C60.64 32.9409 60.1449 34.1858 60.0805 35.5326C59.9619 38.0564 61.0808 40.5056 63.1117 42.1577L63.4712 42.4528L63.7899 44.0913C64.1696 46.0588 65.7666 47.5514 67.7298 47.9584C69.2217 51.8867 71.9884 55.686 75.5554 58.5423C75.5554 63.3152 75.1281 70.4153 72.6699 71.9113C68.8894 74.2078 58.1241 75.4596 58.1241 75.4596C58.1241 75.4596 44.4802 75.0423 40.7472 89.7478C37.0175 104.457 27.9204 124.508 27.9204 124.508C27.9204 124.508 25.0079 130.777 21.3867 139.194C16.4906 150.588 10.3027 165.925 8.30224 174.996L2.3483 190.166C2.05332 190.919 1.94481 191.719 2.02619 192.513L3.62317 207.87L11.0995 219.193L11.3301 219.081C12.8355 218.355 13.456 216.714 12.7541 215.323L12.5744 214.97C14.0494 214.163 14.558 212.467 13.7374 211.106L9.94331 204.82L13.6052 193.466C13.8459 192.72 15.053 192.791 15.1784 193.561L15.4565 195.261L14.3884 200.102C13.9137 202.256 15.5107 204.335 17.9282 204.712C18.6979 204.831 19.4201 204.339 19.5015 203.643L20.8137 192.167L20.8883 191.998C23.2346 186.668 23.0379 180.705 20.3491 175.508L20.122 175.067C20.122 175.067 27.2219 161.834 33.1691 153.275C36.1868 148.94 38.211 143.502 39.4757 139.194C40.7031 135.011 41.2151 131.89 41.2151 131.89C41.2151 131.89 51.7803 113.952 54.6962 101.743C54.6962 101.743 56.1745 110.051 57.2833 119.376C58.0834 126.082 58.687 133.315 58.4089 138.359C57.7444 150.408 54.252 156.667 54.3334 165.195C54.3334 165.195 49.5526 185.664 52.3499 213.569H52.3533C53.1433 225.072 55.198 236.935 56.0694 242.671C57.3511 251.125 58.1682 262.492 58.2835 264.161C58.4022 265.83 56.4186 273.863 54.4351 282.001C52.455 290.136 55.9507 320.178 55.9507 320.178C56.7679 327.274 60.4298 341.023 60.0568 343.259C59.6872 345.494 58.7616 346.532 58.9006 347.693C59.0396 348.853 59.8737 350.467 59.6431 351.088C59.4092 351.709 55.8456 358.711 53.5298 359.705C51.214 360.698 44.9142 364.715 44.5447 366.208C44.1751 367.697 45.9789 368.073 45.9789 368.073C45.9789 368.073 45.6093 369.976 48.6202 370.224C48.6202 370.224 48.5558 372.544 52.2923 372.09C52.2923 372.09 54.5945 374.576 57.8359 372.711C57.8359 372.711 61.1689 375.445 63.8543 374.536C66.5431 373.623 67.1907 371.801 68.6249 369.108C70.0625 366.414 71.5883 365.712 73.0259 363.307C74.4602 360.905 75.9894 357.798 74.7857 353.076C74.7857 353.076 76.3725 349.518 76.325 347.526C76.2809 345.542 74.1245 340.732 74.4568 336.851C75.2332 327.756 80.0615 292.561 79.7123 286.225C79.363 279.888 79.8004 272.455 81.8111 266.509C83.8251 260.566 81.7229 256.495 82.0755 246.793C82.3027 240.409 83.8251 223.24 84.8355 212.256L85.5001 205.119C85.5001 205.115 85.5001 205.112 85.5001 205.105H92.2033C92.2033 205.112 92.2033 205.115 92.2033 205.122L92.7865 211.35C93.7969 222.277 95.3939 240.229 95.6313 246.793C95.9805 256.495 93.8817 260.566 95.8923 266.509C97.903 272.455 98.3404 279.888 97.9911 286.225C97.6419 292.561 102.47 327.756 103.25 336.851C103.579 340.732 101.426 345.542 101.378 347.526C101.331 349.518 102.918 353.076 102.918 353.076C101.714 357.798 103.243 360.905 104.677 363.307C106.115 365.712 107.644 366.414 109.078 369.108C110.513 371.801 111.164 373.623 113.849 374.536C116.534 375.445 119.867 372.711 119.867 372.711C123.112 374.576 125.411 372.09 125.411 372.09C129.148 372.544 129.083 370.224 129.083 370.224C132.094 369.976 131.724 368.073 131.724 368.073C131.724 368.073 133.532 367.697 133.159 366.208C132.789 364.715 126.493 360.698 124.177 359.705C121.861 358.711 118.294 351.709 118.064 351.088C117.83 350.467 118.664 348.853 118.803 347.693C118.942 346.532 118.016 345.494 117.647 343.259C117.277 341.023 120.936 327.274 121.753 320.178C121.753 320.178 125.252 290.136 123.268 282.001C121.285 273.863 119.305 265.83 119.42 264.161C119.535 262.492 120.352 251.125 121.637 242.671C122.519 236.847 124.625 224.702 125.387 213.036C128.073 185.406 123.37 165.195 123.37 165.195C123.455 156.667 119.959 150.408 119.294 138.359C119.016 133.315 119.62 126.082 120.42 119.376C121.529 110.051 123.011 101.743 123.011 101.743C125.927 113.952 136.488 131.89 136.488 131.89C136.488 131.89 137 135.011 138.228 139.194C139.492 143.502 141.52 148.94 144.534 153.275C150.481 161.834 157.585 175.067 157.585 175.067L157.354 175.508C154.665 180.705 154.472 186.668 156.819 191.998L156.89 192.167L158.202 203.643C158.283 204.339 159.006 204.831 159.779 204.712C162.193 204.335 163.79 202.256 163.315 200.102L162.247 195.261L162.525 193.561C162.65 192.791 163.857 192.72 164.098 193.466L167.763 204.82L163.966 211.106C163.145 212.467 163.654 214.163 165.129 214.97L164.953 215.323C164.247 216.714 164.871 218.355 166.373 219.081L166.604 219.193L174.084 207.87L175.677 192.513C175.762 191.719 175.65 190.919 175.355 190.166Z" stroke="#030917" stroke-width="2.22066" stroke-miterlimit="10" stroke-linecap="round" stroke-linejoin="round"/>
<defs>
<linearGradient id="paint0_linear_463_754" x1="88.4361" y1="2" x2="88.4361" y2="374.721" gradientUnits="userSpaceOnUse">
<stop offset="0.08" stop-color="#4AA6F7"/>
<stop offset="0.92" stop-color="#1141BD"/>
</linearGradient>
</defs>
</svg>
