<svg width="204" height="379" viewBox="0 0 204 379" fill="none" xmlns="http://www.w3.org/2000/svg">
<path d="M109.431 345.244L108.719 354.131L110.645 358.47L112.655 359.189L109.516 345.311C109.488 345.288 109.458 345.267 109.431 345.244Z" fill="#1141BD"/>
<path d="M137.017 355.095C136.661 354.976 132.555 347.289 132.494 347.17C129.822 349.209 126.679 351.187 124.011 351.72C119.572 352.612 112.777 347.866 109.516 345.312L112.655 359.189L114.378 359.8C114.378 359.8 114.459 360.455 114.666 361.496C115.324 359.607 117.928 358.982 119.806 358.351C126.259 356.632 132.708 356.065 139.329 356.648C138.048 355.695 137.119 355.129 137.017 355.095Z" fill="#FAFAFA"/>
<path d="M139.329 356.649C132.711 356.065 126.259 356.632 119.806 358.352C117.924 358.983 115.324 359.607 114.666 361.496C115.412 365.309 117.782 374.309 123.651 375.35C131.117 376.677 147.979 376.677 148.216 369.444C148.393 364.22 142.662 359.125 139.329 356.649Z" fill="#192033"/>
<path d="M89.2262 345.244L89.9382 354.131L88.0124 358.47L84.2793 359.796C84.2793 359.796 82.4721 374.024 75.0059 375.35C67.5398 376.676 50.6782 376.676 50.4375 369.444C50.1967 362.208 61.2773 355.217 61.6367 355.095C61.9961 354.976 66.0988 347.289 66.1598 347.17C68.8316 349.206 71.9747 351.184 74.6431 351.719C79.1221 352.618 85.9949 347.781 89.2262 345.244Z" fill="#192033"/>
<path d="M101.56 128.269L104.589 137L74.1464 95.3042L82.3765 89.1586L65.5487 80.2949L64.5889 79.7902L82.3765 73L99.885 123.437L101.56 128.269Z" fill="#538BF0"/>
<path d="M99.324 144.354C96.1504 149.147 91.5425 156.104 86.2158 164.239H112.452C104.661 152.366 99.4528 144.625 99.324 144.354Z" fill="#FAFAFA"/>
<path d="M114.467 204.241L123.553 197.422L101.725 183.762L76.9933 196.741L84.8358 203.427L76.8916 351.754C81.174 351.167 86.4972 347.384 89.2233 345.244V345.241C90.3388 344.365 91.0203 343.765 91.0203 343.765L99.3274 220.734L107.631 343.765C107.631 343.765 108.313 344.365 109.431 345.241V345.244C112.659 347.781 119.532 352.619 124.011 351.72C124.252 351.672 124.499 351.611 124.75 351.537L114.467 204.241Z" fill="url(#paint0_linear_463_755)"/>
<path d="M136.058 267.083L135.868 232.081L135.695 200.794L135.908 200.659C127.256 186.934 118.955 174.148 112.452 164.239H86.2154C79.1324 175.057 70.761 187.965 62.7523 200.659L62.9591 200.794L62.793 232.081L62.6031 267.083L60.1924 341.953C60.1924 341.953 62.8066 344.606 66.1599 347.171C68.8351 349.206 71.9782 351.184 74.6432 351.72C75.3451 351.859 76.1012 351.862 76.8946 351.754L84.8388 203.427L76.9963 196.737L101.724 183.762L123.553 197.419L114.466 204.241L124.753 351.537C127.249 350.821 130.066 349.023 132.497 347.171C135.854 344.606 138.465 341.953 138.465 341.953L136.058 267.083Z" fill="url(#paint1_linear_463_755)"/>
<path d="M67.4791 181.082L73.6738 129.919L59.0534 109.169L48.6713 136.88L29.321 167.058L13.1816 171.125C14.1853 174.117 16.7418 177.33 22.4957 179.674C33.1863 184.026 39.4759 171.115 39.4759 171.115L56.819 141.334L62.6 128.674L64.1665 139.886C64.1665 139.886 56.5003 182.086 54.6931 226.128L62.7899 232.081L62.9594 200.794L62.7492 200.662C69.6627 189.701 76.8474 178.585 83.2387 168.791L67.4791 181.082Z" fill="url(#paint2_linear_463_755)"/>
<path d="M65.4305 86.5528L71.0183 89.9824L67.7158 94.8978L95.6037 126.982L96.0377 126.331L73.6867 95.7595L81.8852 89.65L65.1186 80.8301C65.1186 80.8301 53.4447 84.2664 52.9666 85.8744C52.9259 86.0033 52.7699 86.4171 52.5156 87.0685L65.4305 86.5528Z" fill="#538BF0"/>
<path d="M104.013 137.237L96.0385 126.33L95.6045 126.982L67.7166 94.9011L71.0191 89.9823L65.4313 86.5527L52.5164 87.0718C49.5395 94.6467 33.1729 134.499 33.1729 134.499L13.5853 162.794C13.5853 162.794 11.7103 166.722 13.1818 171.122L29.3212 167.058L48.6715 136.877L59.0536 109.169L73.6705 129.916L67.4793 181.085L83.2389 168.792C84.2527 167.241 85.2461 165.722 86.2159 164.242C91.5425 156.104 96.147 149.15 99.324 144.357C99.3172 144.343 99.3206 144.343 99.3274 144.347C102.389 139.733 104.132 137.104 104.013 137.237Z" fill="url(#paint3_linear_463_755)"/>
<path d="M134.495 80.3277L133.539 80.8298L116.772 89.6463L124.974 95.7592L100.995 128.549L99.3271 123.742H99.3339L116.772 73.5737L134.495 80.3277Z" fill="#538BF0"/>
<path d="M116.772 73.5737L99.3339 123.742L100.113 121.5L82.5889 73L99.3339 83.703L116.772 73.5737Z" fill="#FAFAFA"/>
<path d="M113.209 68.4209L116.772 73.5771L99.3344 83.7031L81.8828 73.5771L85.4464 68.4209H113.209Z" fill="#C2D9E9"/>
<path d="M125.215 91.7803L139.652 82.8281C136.601 81.7324 133.535 80.8301 133.535 80.8301L116.772 89.65L124.974 95.7595L100.992 128.549L102.664 133.356L128.222 99.3892L125.215 91.7803Z" fill="#538BF0"/>
<path d="M185.073 162.794L165.479 134.503C165.479 134.503 146.172 87.4823 145.688 85.8778C145.457 85.0942 142.555 83.8696 139.649 82.8281L125.215 91.7837L128.219 99.3926L102.664 133.356L104.013 137.237C104.132 137.108 102.386 139.737 99.3276 144.35C99.3242 144.35 99.3242 144.354 99.3242 144.357C99.4497 144.628 104.658 152.37 112.449 164.243C118.953 174.151 127.253 186.933 135.906 200.662L135.695 200.794L135.865 232.081L143.962 226.128C143.016 203.06 140.463 180.502 138.245 164.243C136.231 149.462 134.488 139.889 134.488 139.889L136.055 128.678L141.836 141.335L159.179 171.115C159.179 171.115 165.472 184.026 176.159 179.674C190.373 173.887 185.073 162.794 185.073 162.794Z" fill="url(#paint4_linear_463_755)"/>
<path d="M61.6366 355.095C61.996 354.976 66.0987 347.289 66.1597 347.17C68.8315 349.206 71.9746 351.184 74.6431 351.72C79.0814 352.608 85.8762 347.863 89.138 345.312L86.0017 359.189L84.2792 359.797C84.2792 359.797 84.1978 360.455 83.991 361.496C83.3332 359.607 80.7292 358.979 78.8508 358.351C72.3985 356.628 65.9461 356.065 59.3242 356.648C60.6093 355.695 61.5383 355.129 61.6366 355.095Z" fill="#FAFAFA"/>
<path d="M131.179 181.082L124.984 129.916L139.605 109.169L149.983 136.88L169.334 167.058L185.477 171.122C184.469 174.117 181.916 177.33 176.159 179.674C165.472 184.026 159.179 171.112 159.179 171.112L141.839 141.338L136.055 128.674L134.492 139.886C134.492 139.886 142.158 182.086 143.962 226.128L135.868 232.081L135.699 200.794L135.906 200.662C128.995 189.705 121.811 178.585 115.416 168.791L131.179 181.082Z" fill="url(#paint5_linear_463_755)"/>
<path d="M84.2989 73.5735L106.423 137.233L76.097 95.759L84.2989 89.6495L65.5889 80L84.2989 73.5735Z" stroke="#12192B" stroke-width="2.22067" stroke-miterlimit="10" stroke-linecap="round" stroke-linejoin="round"/>
<path d="M106.423 137.232C106.854 136.768 82.9535 172.254 62.5996 204.732" stroke="#12192B" stroke-width="2.22066" stroke-miterlimit="10" stroke-linecap="round" stroke-linejoin="round"/>
<path d="M36.4961 177.808C39.9851 175.016 41.8838 171.112 41.8838 171.112L59.2303 141.334L65.0113 128.674L66.5744 139.889C66.5744 139.889 58.9081 182.086 57.1009 226.128L65.2012 232.081" stroke="#12192B" stroke-width="2.22066" stroke-miterlimit="10" stroke-linecap="round" stroke-linejoin="round"/>
<path d="M67.5889 81C67.5889 81 54.4738 84.4418 53.9327 86.0523C53.3916 87.6627 31.6919 134.754 31.6919 134.754L9.67586 163.093C9.67586 163.093 3.72036 174.204 19.6894 180" stroke="#12192B" stroke-width="2.22066" stroke-miterlimit="10" stroke-linecap="round" stroke-linejoin="round"/>
<path d="M65.3698 200.794L65.0104 267.082L62.5996 341.953C62.5996 341.953 71.0321 350.515 77.0539 351.719C83.0756 352.927 93.4306 343.761 93.4306 343.761L101.738 220.734" stroke="#12192B" stroke-width="2.22066" stroke-miterlimit="10" stroke-linecap="round" stroke-linejoin="round"/>
<path d="M91.6334 345.243L92.3488 354.131L90.4196 358.47L86.6865 359.796C86.6865 359.796 84.8793 374.023 77.4131 375.35C69.947 376.676 53.0854 376.676 52.8447 369.444C52.604 362.208 63.6845 355.217 64.0439 355.094C64.4067 354.976 68.5704 347.17 68.5704 347.17" stroke="#12192B" stroke-width="2.22066" stroke-miterlimit="10" stroke-linecap="round" stroke-linejoin="round"/>
<path d="M103.406 128.549L127.384 95.7591L119.182 89.6496L136.901 80.3277L119.182 73.5737L101.744 123.742" stroke="#12192B" stroke-width="2.22067" stroke-miterlimit="10" stroke-linecap="round" stroke-linejoin="round"/>
<path d="M101.735 144.35C101.304 143.882 120.519 172.255 140.873 204.732" stroke="#12192B" stroke-width="2.22066" stroke-miterlimit="10" stroke-linecap="round" stroke-linejoin="round"/>
<path d="M178.57 179.674C167.88 184.03 161.587 171.116 161.587 171.116L144.244 141.335L138.466 128.675L136.899 139.89C136.899 139.89 144.566 182.086 146.373 226.128L138.276 232.085" stroke="#12192B" stroke-width="2.22066" stroke-miterlimit="10" stroke-linecap="round" stroke-linejoin="round"/>
<path d="M135.945 80.8301C135.945 80.8301 147.619 84.2665 148.101 85.8745C148.582 87.4824 167.892 134.503 167.892 134.503L187.483 162.794C187.483 162.794 189.046 165.566 188.598 169.063" stroke="#12192B" stroke-width="2.22066" stroke-miterlimit="10" stroke-linecap="round" stroke-linejoin="round"/>
<path d="M138.106 200.794L138.465 267.086L140.872 341.953C140.872 341.953 132.443 350.515 126.422 351.719C120.4 352.927 110.041 343.761 110.041 343.761L101.734 220.734" stroke="#12192B" stroke-width="2.22066" stroke-miterlimit="10" stroke-linecap="round" stroke-linejoin="round"/>
<path d="M111.839 345.244L111.127 354.132L113.053 358.47L116.786 359.797C116.786 359.797 118.593 374.024 126.059 375.35C133.525 376.677 150.387 376.677 150.628 369.444C150.868 362.209 139.791 355.217 139.428 355.095C139.069 354.976 134.902 347.171 134.902 347.171" stroke="#12192B" stroke-width="2.22066" stroke-miterlimit="10" stroke-linecap="round" stroke-linejoin="round"/>
<path d="M84.2969 73.5771L87.857 68.4209" stroke="#12192B" stroke-width="2.22066" stroke-miterlimit="10" stroke-linecap="round" stroke-linejoin="round"/>
<path d="M115.619 68.4209L119.179 73.5771" stroke="#12192B" stroke-width="2.22066" stroke-miterlimit="10" stroke-linecap="round" stroke-linejoin="round"/>
<path d="M128.276 42.9826C128.208 41.4662 127.71 40.0652 126.896 38.922C126.008 37.6804 124.543 37.1784 123.166 37.3955L123.217 36.907C124.272 26.4995 120.098 16.109 111.808 9.73831C108.393 7.11608 104.406 5.22998 100.005 5.22998H98.6556C94.2545 5.22998 90.2638 7.11608 86.8494 9.73831C78.5559 16.109 74.3855 26.4995 75.4399 36.907L75.4908 37.3955C74.1108 37.1784 72.6495 37.6804 71.7611 38.922C70.9474 40.0652 70.4489 41.4662 70.3845 42.9826C70.2659 45.8219 71.3881 48.5764 73.4327 50.4422L73.7955 50.7746L74.1142 52.6166C74.4974 54.8317 76.1079 56.5177 78.0812 56.9757C81.1565 66.0229 89.5924 74.4628 99.3269 74.4628C109.068 74.4628 117.501 66.0229 120.576 56.9757C122.089 54 122.589 53.5 124.089 52L124.862 50.7746L125.221 50.4422C127.266 48.5764 128.395 45.8219 128.276 42.9826Z" fill="#ECCBC5"/>
<path d="M130.58 42.6256C130.51 41.1144 129.997 39.7181 129.15 38.5787C128.23 37.3413 126.715 36.841 125.286 37.0573L125.342 36.5705C126.431 26.198 122.106 15.8424 113.52 9.49318C109.978 6.87977 105.85 5 101.286 5H99.8882C95.328 5 91.1929 6.87977 87.6551 9.49318C79.0651 15.8424 74.7403 26.198 75.8365 36.5705L75.8856 37.0573C74.4592 36.841 72.9415 37.3413 72.0211 38.5787C71.1779 39.7181 70.6614 41.1144 70.5982 42.6256C70.4717 45.4554 71.6381 48.2007 73.7531 50.0601L74.129 50.3914L74.4628 52.2272C74.8563 54.4349 76.525 56.1152 78.5698 56.5717C81.7563 65.5884 90.4973 74 100.587 74C110.681 74 119.415 65.5884 122.601 56.5717C124.65 56.1152 126.315 54.4349 126.715 52.2272L127.042 50.3914L127.422 50.0601C129.537 48.2007 130.703 45.4554 130.58 42.6256Z" stroke="#12192B" stroke-width="2.22066" stroke-miterlimit="10" stroke-linecap="round" stroke-linejoin="round"/>
<path d="M77.8511 36.9072C76.7932 26.4997 80.967 16.1092 89.2571 9.73856C92.6715 7.11634 96.6622 5.23022 101.063 5.23022H102.413C106.817 5.23022 110.801 7.11634 114.219 9.73856C122.506 16.1092 126.679 26.4997 125.628 36.9072" stroke="#12192B" stroke-width="2.22066" stroke-miterlimit="10" stroke-linecap="round" stroke-linejoin="round"/>
<path d="M97.1464 2.00049C116.71 2.00049 129.384 14.1109 128.852 26.3604C128.391 37.0291 124.661 46.4324 124.661 46.4324V32.748L123.793 35.8146L123.064 29.2811C123.064 29.2811 109.502 25.3597 105.389 19.8845C105.389 19.8845 106.474 23.901 110.031 26.4554C110.031 26.4554 99.7233 24.1758 95.5799 20.7055C95.5799 20.7055 98.4145 24.3555 100.073 25.0849C100.073 25.0849 91.5315 24.7185 86.9237 20.2475C86.9237 20.2475 85.0588 28.796 80.3628 29.2811L79.6372 35.8146L78.7692 32.748V46.4324C78.7692 46.4324 75.4769 35.7163 74.575 26.3604C73.724 17.5269 78.3115 11.855 83.4381 12.4012C83.4381 12.4012 84.2044 2.00049 97.1464 2.00049Z" fill="#0C1221"/>
<path d="M100.128 2C118.828 2 127.076 13.9927 126.567 26.1231C126.126 36.688 122.561 46 122.561 46L124.089 31L122.089 32V28C122.089 28 108.071 25.1321 104.14 19.7102C104.14 19.7102 105.177 23.6876 108.577 26.2171C108.577 26.2171 98.7243 23.9597 94.764 20.5231C94.764 20.5231 97.4733 24.1377 99.0581 24.86C99.0581 24.86 90.8944 24.4972 86.49 20.0696C86.49 20.0696 84.7075 28.535 80.2189 29.0154L79.5254 35.4854L78.6957 32.4486V46C78.6957 46 75.5488 35.388 74.6867 26.1231C73.8732 17.3755 78.2582 11.7587 83.1584 12.2996C83.1584 12.2996 87.7604 2 100.128 2Z" stroke="#12192B" stroke-width="2.22066" stroke-miterlimit="10" stroke-linecap="round" stroke-linejoin="round"/>
<path d="M94.4144 42.2969C94.4144 44.1118 87.8535 44.1118 87.8535 42.2969C87.8535 40.4854 89.325 39.0132 91.1356 39.0132C92.9462 39.0132 94.4144 40.4854 94.4144 42.2969Z" fill="#12192B"/>
<path d="M116.345 42.2969C116.345 44.1118 109.784 44.1118 109.784 42.2969C109.784 40.4854 111.252 39.0132 113.063 39.0132C114.877 39.0132 116.345 40.4854 116.345 42.2969Z" fill="#12192B"/>
<path d="M108.38 57.8945C104.711 61.5684 98.7639 61.5684 95.0986 57.8945" stroke="#12192B" stroke-width="2.22067" stroke-miterlimit="10" stroke-linecap="round" stroke-linejoin="round"/>
<path d="M84.4971 35.8726C88.1657 32.8229 94.1095 32.8229 97.7782 35.8726" stroke="#12192B" stroke-width="2.22066" stroke-miterlimit="10" stroke-linecap="round" stroke-linejoin="round"/>
<path d="M98.042 50.877C100.083 47.2065 103.392 47.2065 105.434 50.877" stroke="#12192B" stroke-width="2.22066" stroke-miterlimit="10" stroke-linecap="round" stroke-linejoin="round"/>
<path d="M106.421 35.8726C110.09 32.8229 116.037 32.8229 119.705 35.8726" stroke="#12192B" stroke-width="2.22066" stroke-miterlimit="10" stroke-linecap="round" stroke-linejoin="round"/>
<path d="M186.666 171.068C182.811 168.422 178.309 166.81 173.328 166.359C171.938 166.176 171.86 164.344 170.608 162.427C170.3 161.891 169.801 161.339 169.405 160.714C169.208 160.813 169.005 160.914 168.801 161.02C159.545 165.989 163.203 172.757 163.203 172.757L164.973 177.235C164.973 177.235 170.188 188.246 180.611 182.418C186.944 178.883 187.372 174.256 186.666 171.068Z" fill="#C2D9E9"/>
<path d="M173.328 166.359C178.312 166.81 182.811 168.422 186.67 171.071C186.185 168.873 185.161 167.363 185.161 167.363L183.937 165.301C183.937 165.301 178.79 156.179 169.408 160.714C169.802 161.335 170.303 161.891 170.608 162.427C171.86 164.344 171.938 166.176 173.328 166.359Z" fill="#FAFAFA"/>
<path d="M188.244 177.55C191.027 172.472 187.572 167.363 187.572 167.363L186.345 165.301C186.345 165.301 180.974 155.782 171.212 161.019C161.956 165.989 165.611 172.757 165.611 172.757L167.384 177.235C167.384 177.235 172.599 188.246 183.022 182.418" stroke="#12192B" stroke-width="2.22067" stroke-miterlimit="10" stroke-linecap="round" stroke-linejoin="round"/>
<path d="M183.587 175.077C183.292 174.633 182.811 173.87 182.252 172.984C180.461 170.162 176.501 169.412 173.5 171.332L173.368 171.417C170.456 173.286 169.574 176.98 171.395 179.681L171.317 180.193C170.398 186.248 172.327 192.073 176.66 196.32L176.799 196.459L182.262 207.033C182.591 207.674 183.516 207.867 184.269 207.453C186.632 206.164 187.538 203.545 186.276 201.649L183.442 197.378L183.12 195.638C182.974 194.848 184.194 194.312 184.713 194.939L192.562 204.495L190.887 212.019C190.525 213.647 191.661 215.089 193.468 215.303L193.414 215.713C193.186 217.328 194.414 218.671 196.228 218.797L196.509 218.814L200.185 205.014L196.34 189.573C196.143 188.775 195.743 188.046 195.17 187.435L183.587 175.077Z" fill="#ECCBC5"/>
<path d="M183.613 175.153C183.279 174.674 182.721 173.856 182.085 172.911C180.038 169.888 175.51 169.085 172.079 171.138L171.932 171.229C168.598 173.235 167.59 177.188 169.672 180.08L169.583 180.636C168.532 187.115 170.738 193.357 175.693 197.903L175.848 198.052L182.093 209.377C182.473 210.064 183.527 210.275 184.396 209.831C187.09 208.451 188.129 205.646 186.691 203.611L183.446 199.044L183.078 197.176C182.911 196.326 184.306 195.755 184.9 196.427L193.874 206.659L191.955 214.722C191.544 216.463 192.843 218.01 194.913 218.239L194.843 218.679C194.587 220.409 195.991 221.847 198.065 221.978L198.387 222L202.589 207.215L198.197 190.679C197.964 189.825 197.51 189.044 196.851 188.386L183.613 175.153Z" stroke="#12192B" stroke-width="2.22067" stroke-miterlimit="10" stroke-linecap="round" stroke-linejoin="round"/>
<path d="M116.968 89.8671L115.924 74.5171L101.693 80.1856L116.968 89.8671Z" fill="#FAFAFA"/>
<path d="M86.0889 91L87.0889 73.5L99.0889 80.5L86.0889 91Z" fill="#FAFAFA"/>
<path d="M116.968 89.8662L115.924 74.5162L101.693 80.1847L116.968 89.8662Z" stroke="#12192B" stroke-width="2.22066" stroke-miterlimit="10" stroke-linecap="round" stroke-linejoin="round"/>
<path d="M86.4971 89.9854L87.4193 74.6286L101.694 80.1817L86.4971 89.9854Z" stroke="#12192B" stroke-width="2.22067" stroke-miterlimit="10" stroke-linecap="round" stroke-linejoin="round"/>
<path d="M121.754 271.33L119.184 227.102" stroke="#12192B" stroke-width="2.22067" stroke-miterlimit="10" stroke-linecap="round" stroke-linejoin="round"/>
<path d="M126.422 351.719L122.197 279.006" stroke="#12192B" stroke-width="2.22066" stroke-miterlimit="10" stroke-linecap="round" stroke-linejoin="round"/>
<path d="M80.8682 311.816L82.7737 279.006" stroke="#12192B" stroke-width="2.22066" stroke-miterlimit="10" stroke-linecap="round" stroke-linejoin="round"/>
<path d="M78.5498 351.719L79.4178 336.797" stroke="#12192B" stroke-width="2.22066" stroke-miterlimit="10" stroke-linecap="round" stroke-linejoin="round"/>
<path d="M108.187 374.739L20.4609 207.843C22.9089 205.228 23.5633 201.252 21.8036 197.904C19.5827 193.68 14.3645 192.059 10.1432 194.281C10.1059 194.301 10.0754 194.322 10.0381 194.342L105.559 376.123L108.187 374.739Z" fill="#FAFAFA"/>
<path d="M10.0385 194.342C5.89857 196.594 4.32532 201.764 6.52583 205.954C8.28557 209.302 11.9305 211.011 15.4669 210.469L103.196 377.365L105.559 376.123L10.0385 194.342Z" fill="#C2D9E9"/>
<path d="M108.187 374.739L20.4611 207.843C22.9091 205.227 23.5635 201.251 21.8037 197.903C19.5829 193.68 14.3647 192.058 10.1434 194.28C5.92543 196.502 4.30473 201.73 6.52559 205.953C8.28533 209.301 11.9302 211.011 15.4667 210.468L103.196 377.365L108.187 374.739Z" stroke="#12192B" stroke-width="2.22066" stroke-miterlimit="10" stroke-linecap="round" stroke-linejoin="round"/>
<path d="M12.7002 171.071C16.5588 168.422 21.0581 166.81 26.0389 166.359C27.4325 166.176 27.5071 164.341 28.7582 162.427C29.0668 161.891 29.5686 161.339 29.9619 160.714C30.1619 160.813 30.362 160.914 30.5688 161.023C39.8252 165.989 36.1667 172.757 36.1667 172.757L34.3934 177.235C34.3934 177.235 29.1787 188.246 18.7559 182.418C12.4256 178.883 11.995 174.256 12.7002 171.071Z" fill="#C2D9E9"/>
<path d="M26.0389 166.359C21.0581 166.81 16.5587 168.422 12.7002 171.071C13.1851 168.876 14.2056 167.363 14.2056 167.363L15.4296 165.301C15.4296 165.301 20.58 156.179 29.9619 160.714C29.5686 161.339 29.0667 161.891 28.7582 162.427C27.5071 164.341 27.4325 166.176 26.0389 166.359Z" fill="#FAFAFA"/>
<path d="M38.5735 172.756L36.8036 177.234C36.8036 177.234 31.5888 188.245 21.1626 182.417C10.472 176.447 16.6124 167.363 16.6124 167.363L17.8398 165.3C17.8398 165.3 23.2106 155.781 32.9756 161.022C42.232 165.989 38.5735 172.756 38.5735 172.756Z" stroke="#12192B" stroke-width="2.22066" stroke-miterlimit="10" stroke-linecap="round" stroke-linejoin="round"/>
<path d="M18.186 175.074C18.481 174.629 18.9658 173.866 19.5219 172.984C21.3121 170.162 25.2792 169.412 28.2731 171.329L28.4053 171.414C31.3179 173.286 32.1994 176.977 30.3787 179.677L30.4566 180.193C31.3755 186.248 29.4462 192.073 25.113 196.32L24.9774 196.455L19.5151 207.029C19.1828 207.67 18.2572 207.867 17.5045 207.453C15.1446 206.164 14.2359 203.542 15.4972 201.649L18.3318 197.378L18.6539 195.634C18.7997 194.844 17.5791 194.311 17.0637 194.939L9.21099 204.492L10.8894 212.019C11.2488 213.647 10.1163 215.089 8.3023 215.303L8.35995 215.713C8.58712 217.325 7.35971 218.671 5.54573 218.793L5.2677 218.814L1.58887 205.011L5.43384 189.572C5.63388 188.775 6.03059 188.046 6.60699 187.432L18.186 175.074Z" fill="#ECCBC5"/>
<path d="M18.186 175.073C18.4809 174.629 18.9658 173.866 19.5219 172.984C21.3121 170.161 25.2792 169.412 28.2731 171.328L28.4053 171.413C31.3179 173.286 32.1994 176.977 30.3787 179.677L30.4566 180.192C31.3755 186.248 29.4462 192.072 25.113 196.319L24.9774 196.455L19.5151 207.029C19.1828 207.67 18.2572 207.867 17.5044 207.453C15.1446 206.164 14.2359 203.541 15.4972 201.649L18.3318 197.378L18.6539 195.634C18.7997 194.844 17.5791 194.311 17.0637 194.939L9.21099 204.491L10.8893 212.019C11.2487 213.647 10.1163 215.089 8.30229 215.302L8.35995 215.713C8.58712 217.324 7.35971 218.671 5.54572 218.793L5.26769 218.813L1.58887 205.01L5.43382 189.572C5.63387 188.775 6.03058 188.046 6.60698 187.432L18.186 175.073Z" stroke="#12192B" stroke-width="2.22066" stroke-miterlimit="10" stroke-linecap="round" stroke-linejoin="round"/>
<path d="M114.86 164.242H96.8047" stroke="#12192B" stroke-width="2.22066" stroke-miterlimit="10" stroke-linecap="round" stroke-linejoin="round"/>
<defs>
<linearGradient id="paint0_linear_463_755" x1="100.821" y1="183.762" x2="100.821" y2="351.83" gradientUnits="userSpaceOnUse">
<stop stop-color="#1141BD"/>
<stop offset="1" stop-color="#4AA6F7"/>
</linearGradient>
<linearGradient id="paint1_linear_463_755" x1="99.3287" y1="164.239" x2="99.3287" y2="351.83" gradientUnits="userSpaceOnUse">
<stop stop-color="#1141BD"/>
<stop offset="0.832603" stop-color="#4095ED"/>
<stop offset="1" stop-color="#4AA6F7"/>
</linearGradient>
<linearGradient id="paint2_linear_463_755" x1="48.2102" y1="109.169" x2="48.2102" y2="232.081" gradientUnits="userSpaceOnUse">
<stop offset="0.290237" stop-color="#1141BD"/>
<stop offset="1" stop-color="#538BF0"/>
</linearGradient>
<linearGradient id="paint3_linear_463_755" x1="58.3185" y1="86.5527" x2="58.3185" y2="181.085" gradientUnits="userSpaceOnUse">
<stop stop-color="#538BF0"/>
<stop offset="1" stop-color="#1141BD"/>
</linearGradient>
<linearGradient id="paint4_linear_463_755" x1="142.682" y1="82.8281" x2="142.682" y2="232.081" gradientUnits="userSpaceOnUse">
<stop stop-color="#538BF0"/>
<stop offset="0.0795474" stop-color="#4177E2"/>
<stop offset="1" stop-color="#1141BD"/>
</linearGradient>
<linearGradient id="paint5_linear_463_755" x1="185.477" y1="170.625" x2="115.416" y2="170.625" gradientUnits="userSpaceOnUse">
<stop offset="0.905391" stop-color="#1141BD"/>
<stop offset="1" stop-color="#538BF0"/>
</linearGradient>
</defs>
</svg>
