<svg width="1041" height="105" viewBox="0 0 1041 105" fill="none" xmlns="http://www.w3.org/2000/svg">
<rect y="48" width="134" height="57" rx="6" fill="url(#paint0_linear_509_31)"/>
<path d="M25.8 82V68.2H34.8V69.72H27.48V74H34.2V75.52H27.48V80.48H34.8V82H25.8ZM37.3969 82V71.6H42.9969C44.9969 71.6 45.9969 72.6 45.9969 74.6V82H44.3969V74.4C44.3969 73.4667 43.9302 73 42.9969 73H38.9969V82H37.3969ZM49.0356 79V68.2H50.6356V71.6H54.4356V73H50.6356V79.2C50.6356 80.1333 51.1023 80.6 52.0356 80.6H54.6356V81.4L53.8356 82H52.0356C50.0356 82 49.0356 81 49.0356 79ZM56.7877 79V74.6C56.7877 72.6 57.7877 71.6 59.7877 71.6H62.3877C64.3877 71.6 65.3877 72.6 65.3877 74.6V77.42H58.3877V79.2C58.3877 80.1333 58.8543 80.6 59.7877 80.6H64.9877V81.4L64.1877 82H59.7877C57.7877 82 56.7877 81 56.7877 79ZM58.3877 76.12H63.7877V74.4C63.7877 73.4667 63.321 73 62.3877 73H59.7877C58.8543 73 58.3877 73.4667 58.3877 74.4V76.12ZM68.432 82V71.6H74.032C76.032 71.6 77.032 72.6 77.032 74.6V82H75.432V74.4C75.432 73.4667 74.9654 73 74.032 73H70.032V82H68.432ZM79.9908 79V74.6C79.9908 72.6 80.9908 71.6 82.9908 71.6H86.9908V67.2H88.5908V82H82.9908C80.9908 82 79.9908 81 79.9908 79ZM81.5908 79.2C81.5908 80.1333 82.0574 80.6 82.9908 80.6H86.9908V73H82.9908C82.0574 73 81.5908 73.4667 81.5908 74.4V79.2ZM91.6314 79V74.6C91.6314 72.6 92.6314 71.6 94.6314 71.6H97.2314C99.2314 71.6 100.231 72.6 100.231 74.6V77.42H93.2314V79.2C93.2314 80.1333 93.6981 80.6 94.6314 80.6H99.8314V81.4L99.0314 82H94.6314C92.6314 82 91.6314 81 91.6314 79ZM93.2314 76.12H98.6314V74.4C98.6314 73.4667 98.1647 73 97.2314 73H94.6314C93.6981 73 93.2314 73.4667 93.2314 74.4V76.12ZM103.196 82V72.8C103.662 72 104.529 71.6 105.796 71.6H107.796L108.596 72.2V73H106.016C105.456 73 105.049 73.1533 104.796 73.46V82H103.196Z" fill="#EDEEF0"/>
<rect x="191" y="48" width="139" height="57" rx="6" fill="url(#paint1_linear_509_31)"/>
<path d="M216.8 82V68.2H223.34C225.38 68.2 226.4 69.22 226.4 71.26V73.86C226.4 75.9 225.38 76.92 223.34 76.92H218.48V82H216.8ZM218.48 75.4H223.36C224.267 75.4 224.72 74.9467 224.72 74.04V71.08C224.72 70.1733 224.267 69.72 223.36 69.72H218.48V75.4ZM229.038 79V74.6C229.038 72.6 230.038 71.6 232.038 71.6H234.638C236.638 71.6 237.638 72.6 237.638 74.6V77.42H230.638V79.2C230.638 80.1333 231.104 80.6 232.038 80.6H237.238V81.4L236.438 82H232.038C230.038 82 229.038 81 229.038 79ZM230.638 76.12H236.038V74.4C236.038 73.4667 235.571 73 234.638 73H232.038C231.104 73 230.638 73.4667 230.638 74.4V76.12ZM240.282 81.4V80.6H244.902C245.822 80.6 246.282 80.1333 246.282 79.2C246.282 78.2533 245.915 77.72 245.182 77.6L242.802 77.2C241.122 76.92 240.282 76.0067 240.282 74.46C240.282 72.5533 241.282 71.6 243.282 71.6H246.622L247.422 72.2V73H243.262C242.329 73 241.862 73.4667 241.862 74.4C241.862 75.24 242.255 75.7267 243.042 75.86L245.422 76.26C247.075 76.5267 247.902 77.48 247.902 79.12C247.902 81.04 246.889 82 244.862 82H241.082L240.282 81.4ZM250.522 79V74.6C250.522 72.6 251.522 71.6 253.522 71.6H259.122V86H257.522V82H253.522C251.522 82 250.522 81 250.522 79ZM252.122 79.2C252.122 80.1333 252.589 80.6 253.522 80.6H257.522V73H253.522C252.589 73 252.122 73.4667 252.122 74.4V79.2ZM262.243 79V71.6H263.843V79.2C263.843 80.1333 264.309 80.6 265.243 80.6H269.243V71.6H270.843V82H265.243C263.243 82 262.243 81 262.243 79ZM273.961 69.66V67.78H275.721V69.66H273.961ZM274.041 82V71.6H275.641V82H274.041ZM278.446 81.4V80.6H283.066C283.986 80.6 284.446 80.1333 284.446 79.2C284.446 78.2533 284.079 77.72 283.346 77.6L280.966 77.2C279.286 76.92 278.446 76.0067 278.446 74.46C278.446 72.5533 279.446 71.6 281.446 71.6H284.786L285.586 72.2V73H281.426C280.493 73 280.026 73.4667 280.026 74.4C280.026 75.24 280.419 75.7267 281.206 75.86L283.586 76.26C285.239 76.5267 286.066 77.48 286.066 79.12C286.066 81.04 285.053 82 283.026 82H279.246L278.446 81.4ZM291.306 82C289.293 82 288.286 80.9933 288.286 78.98C288.286 76.9667 289.293 75.96 291.306 75.96H294.966V74.4C294.966 73.4667 294.499 73 293.566 73H289.286V72.2L290.086 71.6H293.566C295.566 71.6 296.566 72.6 296.566 74.6V82H291.306ZM289.886 79.2C289.886 80.1333 290.353 80.6 291.286 80.6H294.966V77.26H291.286C290.353 77.26 289.886 77.7267 289.886 78.66V79.2ZM299.606 82V72.8C300.073 72 300.939 71.6 302.206 71.6H304.206L305.006 72.2V73H302.426C301.866 73 301.459 73.1533 301.206 73.46V82H299.606Z" fill="#EDEEF0"/>
<rect x="389" y="48" width="122" height="57" rx="6" fill="url(#paint2_linear_509_31)"/>
<path d="M413.4 81.64L417.92 68.2H420.68L425.2 81.64L424.96 82H423.58L422.44 78.52H416.16L415.02 82H413.64L413.4 81.64ZM416.66 77H421.94L419.54 69.72H419.06L416.66 77ZM427.198 82V71.6H432.798C434.798 71.6 435.798 72.6 435.798 74.6V82H434.198V74.4C434.198 73.4667 433.731 73 432.798 73H428.798V82H427.198ZM441.376 82C439.363 82 438.356 80.9933 438.356 78.98C438.356 76.9667 439.363 75.96 441.376 75.96H445.036V74.4C445.036 73.4667 444.57 73 443.636 73H439.356V72.2L440.156 71.6H443.636C445.636 71.6 446.636 72.6 446.636 74.6V82H441.376ZM439.956 79.2C439.956 80.1333 440.423 80.6 441.356 80.6H445.036V77.26H441.356C440.423 77.26 439.956 77.7267 439.956 78.66V79.2ZM449.676 79.16V67.2H451.276V79.32C451.276 80.24 451.743 80.7267 452.676 80.78V82.16C450.676 82.16 449.676 81.16 449.676 79.16ZM454.872 69.66V67.78H456.632V69.66H454.872ZM454.952 82V71.6H456.552V82H454.952ZM459.356 81.4V80.6H463.976C464.896 80.6 465.356 80.1333 465.356 79.2C465.356 78.2533 464.99 77.72 464.256 77.6L461.876 77.2C460.196 76.92 459.356 76.0067 459.356 74.46C459.356 72.5533 460.356 71.6 462.356 71.6H465.696L466.496 72.2V73H462.336C461.403 73 460.936 73.4667 460.936 74.4C460.936 75.24 461.33 75.7267 462.116 75.86L464.496 76.26C466.15 76.5267 466.976 77.48 466.976 79.12C466.976 81.04 465.963 82 463.936 82H460.156L459.356 81.4ZM472.216 82C470.203 82 469.196 80.9933 469.196 78.98C469.196 76.9667 470.203 75.96 472.216 75.96H475.876V74.4C475.876 73.4667 475.41 73 474.476 73H470.196V72.2L470.996 71.6H474.476C476.476 71.6 477.476 72.6 477.476 74.6V82H472.216ZM470.796 79.2C470.796 80.1333 471.263 80.6 472.196 80.6H475.876V77.26H472.196C471.263 77.26 470.796 77.7267 470.796 78.66V79.2ZM480.516 82V72.8C480.983 72 481.849 71.6 483.116 71.6H485.116L485.916 72.2V73H483.336C482.776 73 482.369 73.1533 482.116 73.46V82H480.516Z" fill="#EDEEF0"/>
<rect x="566" y="48" width="112" height="57" rx="6" fill="url(#paint3_linear_509_31)"/>
<path d="M591.8 82V68.2H597.2C600.533 68.2 602.2 69.8667 602.2 73.2V77C602.2 80.3333 600.533 82 597.2 82H591.8ZM593.48 80.48H597.3C599.447 80.48 600.52 79.4067 600.52 77.26V72.94C600.52 70.7933 599.447 69.72 597.3 69.72H593.48V80.48ZM605.034 79V74.6C605.034 72.6 606.034 71.6 608.034 71.6H610.634C612.634 71.6 613.634 72.6 613.634 74.6V77.42H606.634V79.2C606.634 80.1333 607.1 80.6 608.034 80.6H613.234V81.4L612.434 82H608.034C606.034 82 605.034 81 605.034 79ZM606.634 76.12H612.034V74.4C612.034 73.4667 611.567 73 610.634 73H608.034C607.1 73 606.634 73.4667 606.634 74.4V76.12ZM616.278 81.4V80.6H620.898C621.818 80.6 622.278 80.1333 622.278 79.2C622.278 78.2533 621.911 77.72 621.178 77.6L618.798 77.2C617.118 76.92 616.278 76.0067 616.278 74.46C616.278 72.5533 617.278 71.6 619.278 71.6H622.618L623.418 72.2V73H619.258C618.325 73 617.858 73.4667 617.858 74.4C617.858 75.24 618.251 75.7267 619.038 75.86L621.418 76.26C623.071 76.5267 623.898 77.48 623.898 79.12C623.898 81.04 622.885 82 620.858 82H617.078L616.278 81.4ZM626.598 69.66V67.78H628.358V69.66H626.598ZM626.678 82V71.6H628.278V82H626.678ZM631.323 79V74.6C631.323 72.6 632.323 71.6 634.323 71.6H639.923V83C639.923 85 638.923 86 636.923 86H632.923L632.123 85.4V84.6H636.923C637.856 84.6 638.323 84.1333 638.323 83.2V82H634.323C632.323 82 631.323 81 631.323 79ZM632.923 79.2C632.923 80.1333 633.389 80.6 634.323 80.6H638.323V73H634.323C633.389 73 632.923 73.4667 632.923 74.4V79.2ZM643.123 82V71.6H648.723C650.723 71.6 651.723 72.6 651.723 74.6V82H650.123V74.4C650.123 73.4667 649.657 73 648.723 73H644.723V82H643.123Z" fill="#EDEEF0"/>
<rect x="734" y="48" width="107" height="57" rx="6" fill="url(#paint4_linear_509_31)"/>
<path d="M758.48 69.72V68.2H769.36V69.72H764.76V82H763.08V69.72H758.48ZM770.475 79V74.6C770.475 72.6 771.475 71.6 773.475 71.6H776.075C778.075 71.6 779.075 72.6 779.075 74.6V77.42H772.075V79.2C772.075 80.1333 772.542 80.6 773.475 80.6H778.675V81.4L777.875 82H773.475C771.475 82 770.475 81 770.475 79ZM772.075 76.12H777.475V74.4C777.475 73.4667 777.008 73 776.075 73H773.475C772.542 73 772.075 73.4667 772.075 74.4V76.12ZM781.72 81.4V80.6H786.34C787.26 80.6 787.72 80.1333 787.72 79.2C787.72 78.2533 787.353 77.72 786.62 77.6L784.24 77.2C782.56 76.92 781.72 76.0067 781.72 74.46C781.72 72.5533 782.72 71.6 784.72 71.6H788.06L788.86 72.2V73H784.7C783.766 73 783.3 73.4667 783.3 74.4C783.3 75.24 783.693 75.7267 784.48 75.86L786.86 76.26C788.513 76.5267 789.34 77.48 789.34 79.12C789.34 81.04 788.326 82 786.3 82H782.52L781.72 81.4ZM792.04 79V68.2H793.64V71.6H797.44V73H793.64V79.2C793.64 80.1333 794.106 80.6 795.04 80.6H797.64V81.4L796.84 82H795.04C793.04 82 792.04 81 792.04 79ZM802.412 82C800.398 82 799.392 80.9933 799.392 78.98C799.392 76.9667 800.398 75.96 802.412 75.96H806.072V74.4C806.072 73.4667 805.605 73 804.672 73H800.392V72.2L801.192 71.6H804.672C806.672 71.6 807.672 72.6 807.672 74.6V82H802.412ZM800.992 79.2C800.992 80.1333 801.458 80.6 802.392 80.6H806.072V77.26H802.392C801.458 77.26 800.992 77.7267 800.992 78.66V79.2ZM810.711 82V72.8C811.178 72 812.045 71.6 813.311 71.6H815.311L816.111 72.2V73H813.531C812.971 73 812.565 73.1533 812.311 73.46V82H810.711Z" fill="#EDEEF0"/>
<rect x="890" y="48" width="151" height="57" rx="6" fill="url(#paint5_linear_509_31)"/>
<path d="M914.4 81.64L918.92 68.2H921.68L926.2 81.64L925.96 82H924.58L923.44 78.52H917.16L916.02 82H914.64L914.4 81.64ZM917.66 77H922.94L920.54 69.72H920.06L917.66 77ZM928.198 86V71.6H933.798C935.798 71.6 936.798 72.6 936.798 74.6V79C936.798 81 935.798 82 933.798 82H929.798V86H928.198ZM929.798 80.6H933.798C934.731 80.6 935.198 80.1333 935.198 79.2V74.4C935.198 73.4667 934.731 73 933.798 73H929.798V80.6ZM939.758 82V72.8C940.225 72 941.092 71.6 942.358 71.6H944.358L945.158 72.2V73H942.578C942.018 73 941.612 73.1533 941.358 73.46V82H939.758ZM947.12 79V74.6C947.12 72.6 948.12 71.6 950.12 71.6H952.72C954.72 71.6 955.72 72.6 955.72 74.6V77.42H948.72V79.2C948.72 80.1333 949.186 80.6 950.12 80.6H955.32V81.4L954.52 82H950.12C948.12 82 947.12 81 947.12 79ZM948.72 76.12H954.12V74.4C954.12 73.4667 953.653 73 952.72 73H950.12C949.186 73 948.72 73.4667 948.72 74.4V76.12ZM958.364 81.4V80.6H962.984C963.904 80.6 964.364 80.1333 964.364 79.2C964.364 78.2533 963.997 77.72 963.264 77.6L960.884 77.2C959.204 76.92 958.364 76.0067 958.364 74.46C958.364 72.5533 959.364 71.6 961.364 71.6H964.704L965.504 72.2V73H961.344C960.411 73 959.944 73.4667 959.944 74.4C959.944 75.24 960.337 75.7267 961.124 75.86L963.504 76.26C965.157 76.5267 965.984 77.48 965.984 79.12C965.984 81.04 964.971 82 962.944 82H959.164L958.364 81.4ZM968.604 79V74.6C968.604 72.6 969.604 71.6 971.604 71.6H974.204C976.204 71.6 977.204 72.6 977.204 74.6V77.42H970.204V79.2C970.204 80.1333 970.671 80.6 971.604 80.6H976.804V81.4L976.004 82H971.604C969.604 82 968.604 81 968.604 79ZM970.204 76.12H975.604V74.4C975.604 73.4667 975.137 73 974.204 73H971.604C970.671 73 970.204 73.4667 970.204 74.4V76.12ZM980.248 82V71.6H985.848C987.848 71.6 988.848 72.6 988.848 74.6V82H987.248V74.4C987.248 73.4667 986.782 73 985.848 73H981.848V82H980.248ZM991.887 79V68.2H993.487V71.6H997.287V73H993.487V79.2C993.487 80.1333 993.954 80.6 994.887 80.6H997.487V81.4L996.687 82H994.887C992.887 82 991.887 81 991.887 79ZM1002.26 82C1000.25 82 999.239 80.9933 999.239 78.98C999.239 76.9667 1000.25 75.96 1002.26 75.96H1005.92V74.4C1005.92 73.4667 1005.45 73 1004.52 73H1000.24V72.2L1001.04 71.6H1004.52C1006.52 71.6 1007.52 72.6 1007.52 74.6V82H1002.26ZM1000.84 79.2C1000.84 80.1333 1001.31 80.6 1002.24 80.6H1005.92V77.26H1002.24C1001.31 77.26 1000.84 77.7267 1000.84 78.66V79.2ZM1010.56 82V72.8C1011.03 72 1011.89 71.6 1013.16 71.6H1015.16L1015.96 72.2V73H1013.38C1012.82 73 1012.41 73.1533 1012.16 73.46V82H1010.56Z" fill="#EDEEF0"/>
<path d="M170.354 76.3536C170.549 76.1583 170.549 75.8417 170.354 75.6464L167.172 72.4645C166.976 72.2692 166.66 72.2692 166.464 72.4645C166.269 72.6597 166.269 72.9763 166.464 73.1716L169.293 76L166.464 78.8284C166.269 79.0237 166.269 79.3403 166.464 79.5355C166.66 79.7308 166.976 79.7308 167.172 79.5355L170.354 76.3536ZM154 76.5H170V75.5H154V76.5Z" fill="url(#paint6_linear_509_31)"/>
<path d="M367.354 76.3536C367.549 76.1583 367.549 75.8417 367.354 75.6464L364.172 72.4645C363.976 72.2692 363.66 72.2692 363.464 72.4645C363.269 72.6597 363.269 72.9763 363.464 73.1716L366.293 76L363.464 78.8284C363.269 79.0237 363.269 79.3403 363.464 79.5355C363.66 79.7308 363.976 79.7308 364.172 79.5355L367.354 76.3536ZM351 76.5H367V75.5H351V76.5Z" fill="url(#paint7_linear_509_31)"/>
<path d="M549.354 76.3536C549.549 76.1583 549.549 75.8417 549.354 75.6464L546.172 72.4645C545.976 72.2692 545.66 72.2692 545.464 72.4645C545.269 72.6597 545.269 72.9763 545.464 73.1716L548.293 76L545.464 78.8284C545.269 79.0237 545.269 79.3403 545.464 79.5355C545.66 79.7308 545.976 79.7308 546.172 79.5355L549.354 76.3536ZM533 76.5H549V75.5H533V76.5Z" fill="url(#paint8_linear_509_31)"/>
<path d="M716.354 76.3536C716.549 76.1583 716.549 75.8417 716.354 75.6464L713.172 72.4645C712.976 72.2692 712.66 72.2692 712.464 72.4645C712.269 72.6597 712.269 72.9763 712.464 73.1716L715.293 76L712.464 78.8284C712.269 79.0237 712.269 79.3403 712.464 79.5355C712.66 79.7308 712.976 79.7308 713.172 79.5355L716.354 76.3536ZM700 76.5H716V75.5H700V76.5Z" fill="url(#paint9_linear_509_31)"/>
<path d="M873.354 76.3536C873.549 76.1583 873.549 75.8417 873.354 75.6464L870.172 72.4645C869.976 72.2692 869.66 72.2692 869.464 72.4645C869.269 72.6597 869.269 72.9763 869.464 73.1716L872.293 76L869.464 78.8284C869.269 79.0237 869.269 79.3403 869.464 79.5355C869.66 79.7308 869.976 79.7308 870.172 79.5355L873.354 76.3536ZM857 76.5H873V75.5H857V76.5Z" fill="url(#paint10_linear_509_31)"/>
<path d="M788.5 38V1" stroke="#538BF0"/>
<line x1="788.007" y1="0.981934" x2="449.994" y2="0.981934" stroke="#538BF0"/>
<path d="M450.043 38.7146C450.433 39.1051 451.067 39.1051 451.457 38.7146L457.821 32.3506C458.212 31.9601 458.212 31.3269 457.821 30.9364C457.431 30.5459 456.797 30.5459 456.407 30.9364L450.75 36.5933L445.093 30.9364C444.703 30.5459 444.069 30.5459 443.679 30.9364C443.288 31.3269 443.288 31.9601 443.679 32.3506L450.043 38.7146ZM449.75 -0.00195312V38.0075H451.75V-0.00195313L449.75 -0.00195312Z" fill="#538BF0"/>
<defs>
<linearGradient id="paint0_linear_509_31" x1="67" y1="48" x2="67" y2="105" gradientUnits="userSpaceOnUse">
<stop offset="0.08" stop-color="#4AA6F7"/>
<stop offset="1" stop-color="#1141BD"/>
</linearGradient>
<linearGradient id="paint1_linear_509_31" x1="260.5" y1="48" x2="260.5" y2="105" gradientUnits="userSpaceOnUse">
<stop offset="0.08" stop-color="#4AA6F7"/>
<stop offset="1" stop-color="#1141BD"/>
</linearGradient>
<linearGradient id="paint2_linear_509_31" x1="450" y1="48" x2="450" y2="105" gradientUnits="userSpaceOnUse">
<stop offset="0.08" stop-color="#4AA6F7"/>
<stop offset="1" stop-color="#1141BD"/>
</linearGradient>
<linearGradient id="paint3_linear_509_31" x1="622" y1="48" x2="622" y2="105" gradientUnits="userSpaceOnUse">
<stop offset="0.08" stop-color="#4AA6F7"/>
<stop offset="1" stop-color="#1141BD"/>
</linearGradient>
<linearGradient id="paint4_linear_509_31" x1="787.5" y1="48" x2="787.5" y2="105" gradientUnits="userSpaceOnUse">
<stop offset="0.08" stop-color="#4AA6F7"/>
<stop offset="1" stop-color="#1141BD"/>
</linearGradient>
<linearGradient id="paint5_linear_509_31" x1="965.5" y1="48" x2="965.5" y2="105" gradientUnits="userSpaceOnUse">
<stop offset="0.08" stop-color="#4AA6F7"/>
<stop offset="1" stop-color="#1141BD"/>
</linearGradient>
<linearGradient id="paint6_linear_509_31" x1="154" y1="76.5" x2="170" y2="76.5" gradientUnits="userSpaceOnUse">
<stop stop-color="#538BF0"/>
<stop offset="1" stop-color="#1141BD"/>
</linearGradient>
<linearGradient id="paint7_linear_509_31" x1="351" y1="76.5" x2="367" y2="76.5" gradientUnits="userSpaceOnUse">
<stop stop-color="#538BF0"/>
<stop offset="1" stop-color="#1141BD"/>
</linearGradient>
<linearGradient id="paint8_linear_509_31" x1="533" y1="76.5" x2="549" y2="76.5" gradientUnits="userSpaceOnUse">
<stop stop-color="#538BF0"/>
<stop offset="1" stop-color="#1141BD"/>
</linearGradient>
<linearGradient id="paint9_linear_509_31" x1="700" y1="76.5" x2="716" y2="76.5" gradientUnits="userSpaceOnUse">
<stop stop-color="#538BF0"/>
<stop offset="1" stop-color="#1141BD"/>
</linearGradient>
<linearGradient id="paint10_linear_509_31" x1="857" y1="76.5" x2="873" y2="76.5" gradientUnits="userSpaceOnUse">
<stop stop-color="#538BF0"/>
<stop offset="1" stop-color="#1141BD"/>
</linearGradient>
</defs>
</svg>
