<svg width="182" height="624" viewBox="0 0 182 624" fill="none" xmlns="http://www.w3.org/2000/svg">
<g clip-path="url(#clip0_510_90)">
<rect x="53.6309" y="624" width="57" height="118" rx="6" transform="rotate(-90 53.6309 624)" fill="url(#paint0_linear_510_90)"/>
<path d="M71.4309 601V587.2H80.4309V588.72H73.1109V593H79.8309V594.52H73.1109V599.48H80.4309V601H71.4309ZM83.0277 601V590.6H88.6277C90.6277 590.6 91.6277 591.6 91.6277 593.6V601H90.0277V593.4C90.0277 592.467 89.5611 592 88.6277 592H84.6277V601H83.0277ZM94.6665 598V587.2H96.2665V590.6H100.066V592H96.2665V598.2C96.2665 599.133 96.7332 599.6 97.6665 599.6H100.266V600.4L99.4665 601H97.6665C95.6665 601 94.6665 600 94.6665 598ZM102.419 598V593.6C102.419 591.6 103.419 590.6 105.419 590.6H108.019C110.019 590.6 111.019 591.6 111.019 593.6V596.42H104.019V598.2C104.019 599.133 104.485 599.6 105.419 599.6H110.619V600.4L109.819 601H105.419C103.419 601 102.419 600 102.419 598ZM104.019 595.12H109.419V593.4C109.419 592.467 108.952 592 108.019 592H105.419C104.485 592 104.019 592.467 104.019 593.4V595.12ZM114.063 601V590.6H119.663C121.663 590.6 122.663 591.6 122.663 593.6V601H121.063V593.4C121.063 592.467 120.596 592 119.663 592H115.663V601H114.063ZM125.622 598V593.6C125.622 591.6 126.622 590.6 128.622 590.6H132.622V586.2H134.222V601H128.622C126.622 601 125.622 600 125.622 598ZM127.222 598.2C127.222 599.133 127.688 599.6 128.622 599.6H132.622V592H128.622C127.688 592 127.222 592.467 127.222 593.4V598.2ZM137.262 598V593.6C137.262 591.6 138.262 590.6 140.262 590.6H142.862C144.862 590.6 145.862 591.6 145.862 593.6V596.42H138.862V598.2C138.862 599.133 139.329 599.6 140.262 599.6H145.462V600.4L144.662 601H140.262C138.262 601 137.262 600 137.262 598ZM138.862 595.12H144.262V593.4C144.262 592.467 143.796 592 142.862 592H140.262C139.329 592 138.862 592.467 138.862 593.4V595.12ZM148.827 601V591.8C149.293 591 150.16 590.6 151.427 590.6H153.427L154.227 591.2V592H151.647C151.087 592 150.68 592.153 150.427 592.46V601H148.827Z" fill="#EDEEF0"/>
</g>
<rect x="42.9053" y="440" width="139" height="57" rx="6" fill="url(#paint1_linear_510_90)"/>
<path d="M68.7053 474V460.2H75.2453C77.2853 460.2 78.3053 461.22 78.3053 463.26V465.86C78.3053 467.9 77.2853 468.92 75.2453 468.92H70.3853V474H68.7053ZM70.3853 467.4H75.2653C76.1719 467.4 76.6253 466.947 76.6253 466.04V463.08C76.6253 462.173 76.1719 461.72 75.2653 461.72H70.3853V467.4ZM80.9429 471V466.6C80.9429 464.6 81.9429 463.6 83.9429 463.6H86.5429C88.5429 463.6 89.5429 464.6 89.5429 466.6V469.42H82.5429V471.2C82.5429 472.133 83.0096 472.6 83.9429 472.6H89.1429V473.4L88.3429 474H83.9429C81.9429 474 80.9429 473 80.9429 471ZM82.5429 468.12H87.9429V466.4C87.9429 465.467 87.4763 465 86.5429 465H83.9429C83.0096 465 82.5429 465.467 82.5429 466.4V468.12ZM92.1873 473.4V472.6H96.8073C97.7273 472.6 98.1873 472.133 98.1873 471.2C98.1873 470.253 97.8206 469.72 97.0873 469.6L94.7073 469.2C93.0273 468.92 92.1873 468.007 92.1873 466.46C92.1873 464.553 93.1873 463.6 95.1873 463.6H98.5273L99.3273 464.2V465H95.1673C94.234 465 93.7673 465.467 93.7673 466.4C93.7673 467.24 94.1606 467.727 94.9473 467.86L97.3273 468.26C98.9806 468.527 99.8073 469.48 99.8073 471.12C99.8073 473.04 98.794 474 96.7673 474H92.9873L92.1873 473.4ZM102.427 471V466.6C102.427 464.6 103.427 463.6 105.427 463.6H111.027V478H109.427V474H105.427C103.427 474 102.427 473 102.427 471ZM104.027 471.2C104.027 472.133 104.494 472.6 105.427 472.6H109.427V465H105.427C104.494 465 104.027 465.467 104.027 466.4V471.2ZM114.148 471V463.6H115.748V471.2C115.748 472.133 116.215 472.6 117.148 472.6H121.148V463.6H122.748V474H117.148C115.148 474 114.148 473 114.148 471ZM125.867 461.66V459.78H127.627V461.66H125.867ZM125.947 474V463.6H127.547V474H125.947ZM130.351 473.4V472.6H134.971C135.891 472.6 136.351 472.133 136.351 471.2C136.351 470.253 135.985 469.72 135.251 469.6L132.871 469.2C131.191 468.92 130.351 468.007 130.351 466.46C130.351 464.553 131.351 463.6 133.351 463.6H136.691L137.491 464.2V465H133.331C132.398 465 131.931 465.467 131.931 466.4C131.931 467.24 132.325 467.727 133.111 467.86L135.491 468.26C137.145 468.527 137.971 469.48 137.971 471.12C137.971 473.04 136.958 474 134.931 474H131.151L130.351 473.4ZM143.211 474C141.198 474 140.191 472.993 140.191 470.98C140.191 468.967 141.198 467.96 143.211 467.96H146.871V466.4C146.871 465.467 146.405 465 145.471 465H141.191V464.2L141.991 463.6H145.471C147.471 463.6 148.471 464.6 148.471 466.6V474H143.211ZM141.791 471.2C141.791 472.133 142.258 472.6 143.191 472.6H146.871V469.26H143.191C142.258 469.26 141.791 469.727 141.791 470.66V471.2ZM151.511 474V464.8C151.978 464 152.845 463.6 154.111 463.6H156.111L156.911 464.2V465H154.331C153.771 465 153.365 465.153 153.111 465.46V474H151.511Z" fill="#EDEEF0"/>
<rect x="51.4863" y="323" width="122" height="57" rx="6" fill="url(#paint2_linear_510_90)"/>
<path d="M75.8863 356.64L80.4063 343.2H83.1663L87.6863 356.64L87.4463 357H86.0663L84.9263 353.52H78.6463L77.5063 357H76.1263L75.8863 356.64ZM79.1463 352H84.4263L82.0263 344.72H81.5463L79.1463 352ZM89.684 357V346.6H95.284C97.284 346.6 98.284 347.6 98.284 349.6V357H96.684V349.4C96.684 348.467 96.2173 348 95.284 348H91.284V357H89.684ZM103.863 357C101.849 357 100.843 355.993 100.843 353.98C100.843 351.967 101.849 350.96 103.863 350.96H107.523V349.4C107.523 348.467 107.056 348 106.123 348H101.843V347.2L102.643 346.6H106.123C108.123 346.6 109.123 347.6 109.123 349.6V357H103.863ZM102.443 354.2C102.443 355.133 102.909 355.6 103.843 355.6H107.523V352.26H103.843C102.909 352.26 102.443 352.727 102.443 353.66V354.2ZM112.163 354.16V342.2H113.763V354.32C113.763 355.24 114.229 355.727 115.163 355.78V357.16C113.163 357.16 112.163 356.16 112.163 354.16ZM117.358 344.66V342.78H119.118V344.66H117.358ZM117.438 357V346.6H119.038V357H117.438ZM121.843 356.4V355.6H126.463C127.383 355.6 127.843 355.133 127.843 354.2C127.843 353.253 127.476 352.72 126.743 352.6L124.363 352.2C122.683 351.92 121.843 351.007 121.843 349.46C121.843 347.553 122.843 346.6 124.843 346.6H128.183L128.983 347.2V348H124.823C123.889 348 123.423 348.467 123.423 349.4C123.423 350.24 123.816 350.727 124.603 350.86L126.983 351.26C128.636 351.527 129.463 352.48 129.463 354.12C129.463 356.04 128.449 357 126.423 357H122.643L121.843 356.4ZM134.703 357C132.689 357 131.683 355.993 131.683 353.98C131.683 351.967 132.689 350.96 134.703 350.96H138.363V349.4C138.363 348.467 137.896 348 136.963 348H132.683V347.2L133.483 346.6H136.963C138.963 346.6 139.963 347.6 139.963 349.6V357H134.703ZM133.283 354.2C133.283 355.133 133.749 355.6 134.683 355.6H138.363V352.26H134.683C133.749 352.26 133.283 352.727 133.283 353.66V354.2ZM143.002 357V347.8C143.469 347 144.336 346.6 145.602 346.6H147.602L148.402 347.2V348H145.822C145.262 348 144.856 348.153 144.602 348.46V357H143.002Z" fill="#EDEEF0"/>
<rect x="56.8496" y="213" width="112" height="57" rx="6" fill="url(#paint3_linear_510_90)"/>
<path d="M82.6496 247V233.2H88.0496C91.3829 233.2 93.0496 234.867 93.0496 238.2V242C93.0496 245.333 91.3829 247 88.0496 247H82.6496ZM84.3296 245.48H88.1496C90.2963 245.48 91.3696 244.407 91.3696 242.26V237.94C91.3696 235.793 90.2963 234.72 88.1496 234.72H84.3296V245.48ZM95.8834 244V239.6C95.8834 237.6 96.8834 236.6 98.8834 236.6H101.483C103.483 236.6 104.483 237.6 104.483 239.6V242.42H97.4834V244.2C97.4834 245.133 97.95 245.6 98.8834 245.6H104.083V246.4L103.283 247H98.8834C96.8834 247 95.8834 246 95.8834 244ZM97.4834 241.12H102.883V239.4C102.883 238.467 102.417 238 101.483 238H98.8834C97.95 238 97.4834 238.467 97.4834 239.4V241.12ZM107.128 246.4V245.6H111.748C112.668 245.6 113.128 245.133 113.128 244.2C113.128 243.253 112.761 242.72 112.028 242.6L109.648 242.2C107.968 241.92 107.128 241.007 107.128 239.46C107.128 237.553 108.128 236.6 110.128 236.6H113.468L114.268 237.2V238H110.108C109.174 238 108.708 238.467 108.708 239.4C108.708 240.24 109.101 240.727 109.888 240.86L112.268 241.26C113.921 241.527 114.748 242.48 114.748 244.12C114.748 246.04 113.734 247 111.708 247H107.928L107.128 246.4ZM117.448 234.66V232.78H119.208V234.66H117.448ZM117.528 247V236.6H119.128V247H117.528ZM122.172 244V239.6C122.172 237.6 123.172 236.6 125.172 236.6H130.772V248C130.772 250 129.772 251 127.772 251H123.772L122.972 250.4V249.6H127.772C128.706 249.6 129.172 249.133 129.172 248.2V247H125.172C123.172 247 122.172 246 122.172 244ZM123.772 244.2C123.772 245.133 124.239 245.6 125.172 245.6H129.172V238H125.172C124.239 238 123.772 238.467 123.772 239.4V244.2ZM133.973 247V236.6H139.573C141.573 236.6 142.573 237.6 142.573 239.6V247H140.973V239.4C140.973 238.467 140.506 238 139.573 238H135.573V247H133.973Z" fill="#EDEEF0"/>
<g clip-path="url(#clip1_510_90)">
<rect x="45.0498" y="57" width="57" height="135" rx="6" transform="rotate(-90 45.0498 57)" fill="url(#paint4_linear_510_90)"/>
<path d="M61.4498 33.64L65.9698 20.2H68.7298L73.2498 33.64L73.0098 34H71.6298L70.4898 30.52H64.2098L63.0698 34H61.6898L61.4498 33.64ZM64.7098 29H69.9898L67.5898 21.72H67.1098L64.7098 29ZM75.2475 38V23.6H80.8475C82.8475 23.6 83.8475 24.6 83.8475 26.6V31C83.8475 33 82.8475 34 80.8475 34H76.8475V38H75.2475ZM76.8475 32.6H80.8475C81.7808 32.6 82.2475 32.1333 82.2475 31.2V26.4C82.2475 25.4667 81.7808 25 80.8475 25H76.8475V32.6ZM86.8081 34V24.8C87.2748 24 88.1414 23.6 89.4081 23.6H91.4081L92.2081 24.2V25H89.6281C89.0681 25 88.6614 25.1533 88.4081 25.46V34H86.8081ZM94.1695 31V26.6C94.1695 24.6 95.1695 23.6 97.1695 23.6H99.7695C101.769 23.6 102.769 24.6 102.769 26.6V29.42H95.7695V31.2C95.7695 32.1333 96.2362 32.6 97.1695 32.6H102.369V33.4L101.569 34H97.1695C95.1695 34 94.1695 33 94.1695 31ZM95.7695 28.12H101.169V26.4C101.169 25.4667 100.703 25 99.7695 25H97.1695C96.2362 25 95.7695 25.4667 95.7695 26.4V28.12ZM105.414 33.4V32.6H110.034C110.954 32.6 111.414 32.1333 111.414 31.2C111.414 30.2533 111.047 29.72 110.314 29.6L107.934 29.2C106.254 28.92 105.414 28.0067 105.414 26.46C105.414 24.5533 106.414 23.6 108.414 23.6H111.754L112.554 24.2V25H108.394C107.461 25 106.994 25.4667 106.994 26.4C106.994 27.24 107.387 27.7267 108.174 27.86L110.554 28.26C112.207 28.5267 113.034 29.48 113.034 31.12C113.034 33.04 112.021 34 109.994 34H106.214L105.414 33.4ZM115.654 31V26.6C115.654 24.6 116.654 23.6 118.654 23.6H121.254C123.254 23.6 124.254 24.6 124.254 26.6V29.42H117.254V31.2C117.254 32.1333 117.721 32.6 118.654 32.6H123.854V33.4L123.054 34H118.654C116.654 34 115.654 33 115.654 31ZM117.254 28.12H122.654V26.4C122.654 25.4667 122.187 25 121.254 25H118.654C117.721 25 117.254 25.4667 117.254 26.4V28.12ZM127.298 34V23.6H132.898C134.898 23.6 135.898 24.6 135.898 26.6V34H134.298V26.4C134.298 25.4667 133.832 25 132.898 25H128.898V34H127.298ZM138.937 31V20.2H140.537V23.6H144.337V25H140.537V31.2C140.537 32.1333 141.004 32.6 141.937 32.6H144.537V33.4L143.737 34H141.937C139.937 34 138.937 33 138.937 31ZM149.309 34C147.296 34 146.289 32.9933 146.289 30.98C146.289 28.9667 147.296 27.96 149.309 27.96H152.969V26.4C152.969 25.4667 152.502 25 151.569 25H147.289V24.2L148.089 23.6H151.569C153.569 23.6 154.569 24.6 154.569 26.6V34H149.309ZM147.889 31.2C147.889 32.1333 148.356 32.6 149.289 32.6H152.969V29.26H149.289C148.356 29.26 147.889 29.7267 147.889 30.66V31.2ZM157.609 34V24.8C158.076 24 158.942 23.6 160.209 23.6H162.209L163.009 24.2V25H160.429C159.869 25 159.462 25.1533 159.209 25.46V34H157.609Z" fill="#EDEEF0"/>
</g>
<path d="M116.562 540.354C116.758 540.549 117.074 540.549 117.27 540.354L120.452 537.172C120.647 536.976 120.647 536.66 120.452 536.464C120.256 536.269 119.94 536.269 119.744 536.464L116.916 539.293L114.088 536.464C113.892 536.269 113.576 536.269 113.38 536.464C113.185 536.66 113.185 536.976 113.38 537.172L116.562 540.354ZM116.416 524V540H117.416V524H116.416Z" fill="url(#paint5_linear_510_90)"/>
<path d="M116.562 418.354C116.758 418.549 117.074 418.549 117.27 418.354L120.452 415.172C120.647 414.976 120.647 414.66 120.452 414.464C120.256 414.269 119.94 414.269 119.744 414.464L116.916 417.293L114.088 414.464C113.892 414.269 113.576 414.269 113.38 414.464C113.185 414.66 113.185 414.976 113.38 415.172L116.562 418.354ZM116.416 402V418H117.416V402H116.416Z" fill="url(#paint6_linear_510_90)"/>
<path d="M118.708 198.354C118.903 198.549 119.22 198.549 119.415 198.354L122.597 195.172C122.792 194.976 122.792 194.66 122.597 194.464C122.402 194.269 122.085 194.269 121.89 194.464L119.062 197.293L116.233 194.464C116.038 194.269 115.721 194.269 115.526 194.464C115.331 194.66 115.331 194.976 115.526 195.172L118.708 198.354ZM118.562 182V198H119.562V182H118.562Z" fill="url(#paint7_linear_510_90)"/>
<path d="M116.562 304.354C116.758 304.549 117.074 304.549 117.27 304.354L120.452 301.172C120.647 300.976 120.647 300.66 120.452 300.464C120.256 300.269 119.94 300.269 119.744 300.464L116.916 303.293L114.088 300.464C113.892 300.269 113.576 300.269 113.38 300.464C113.185 300.66 113.185 300.976 113.38 301.172L116.562 304.354ZM116.416 288V304H117.416V288H116.416Z" fill="url(#paint8_linear_510_90)"/>
<path d="M1.07227 128H40.7594" stroke="#538BF0"/>
<line x1="0.499999" y1="127.999" x2="0.983397" y2="348.505" stroke="#538BF0"/>
<path d="M41.477 348.457C41.8675 348.067 41.8675 347.433 41.477 347.043L35.113 340.679C34.7225 340.288 34.0894 340.288 33.6988 340.679C33.3083 341.069 33.3083 341.703 33.6988 342.093L39.3557 347.75L33.6988 353.407C33.3083 353.797 33.3083 354.431 33.6988 354.821C34.0894 355.212 34.7225 355.212 35.113 354.821L41.477 348.457ZM0 348.75H40.7699V346.75H0L0 348.75Z" fill="#538BF0"/>
<path d="M114.417 87.3536C114.612 87.5488 114.929 87.5488 115.124 87.3536L118.306 84.1716C118.501 83.9763 118.501 83.6597 118.306 83.4645C118.111 83.2692 117.794 83.2692 117.599 83.4645L114.771 86.2929L111.942 83.4645C111.747 83.2692 111.43 83.2692 111.235 83.4645C111.04 83.6597 111.04 83.9763 111.235 84.1716L114.417 87.3536ZM114.271 71V87H115.271V71H114.271Z" fill="url(#paint9_linear_510_90)"/>
<rect x="60.0674" y="100" width="107" height="57" rx="6" fill="url(#paint10_linear_510_90)"/>
<path d="M84.5474 121.72V120.2H95.4274V121.72H90.8274V134H89.1474V121.72H84.5474ZM96.5425 131V126.6C96.5425 124.6 97.5425 123.6 99.5425 123.6H102.143C104.143 123.6 105.143 124.6 105.143 126.6V129.42H98.1425V131.2C98.1425 132.133 98.6092 132.6 99.5425 132.6H104.743V133.4L103.943 134H99.5425C97.5425 134 96.5425 133 96.5425 131ZM98.1425 128.12H103.543V126.4C103.543 125.467 103.076 125 102.143 125H99.5425C98.6092 125 98.1425 125.467 98.1425 126.4V128.12ZM107.787 133.4V132.6H112.407C113.327 132.6 113.787 132.133 113.787 131.2C113.787 130.253 113.42 129.72 112.687 129.6L110.307 129.2C108.627 128.92 107.787 128.007 107.787 126.46C107.787 124.553 108.787 123.6 110.787 123.6H114.127L114.927 124.2V125H110.767C109.834 125 109.367 125.467 109.367 126.4C109.367 127.24 109.76 127.727 110.547 127.86L112.927 128.26C114.58 128.527 115.407 129.48 115.407 131.12C115.407 133.04 114.394 134 112.367 134H108.587L107.787 133.4ZM118.107 131V120.2H119.707V123.6H123.507V125H119.707V131.2C119.707 132.133 120.174 132.6 121.107 132.6H123.707V133.4L122.907 134H121.107C119.107 134 118.107 133 118.107 131ZM128.479 134C126.466 134 125.459 132.993 125.459 130.98C125.459 128.967 126.466 127.96 128.479 127.96H132.139V126.4C132.139 125.467 131.672 125 130.739 125H126.459V124.2L127.259 123.6H130.739C132.739 123.6 133.739 124.6 133.739 126.6V134H128.479ZM127.059 131.2C127.059 132.133 127.526 132.6 128.459 132.6H132.139V129.26H128.459C127.526 129.26 127.059 129.727 127.059 130.66V131.2ZM136.779 134V124.8C137.245 124 138.112 123.6 139.379 123.6H141.379L142.179 124.2V125H139.599C139.039 125 138.632 125.153 138.379 125.46V134H136.779Z" fill="#EDEEF0"/>
<defs>
<linearGradient id="paint0_linear_510_90" x1="82.1309" y1="624" x2="82.1309" y2="742" gradientUnits="userSpaceOnUse">
<stop offset="0.08" stop-color="#4AA6F7"/>
<stop offset="1" stop-color="#1141BD"/>
</linearGradient>
<linearGradient id="paint1_linear_510_90" x1="112.405" y1="440" x2="112.405" y2="497" gradientUnits="userSpaceOnUse">
<stop offset="0.08" stop-color="#4AA6F7"/>
<stop offset="1" stop-color="#1141BD"/>
</linearGradient>
<linearGradient id="paint2_linear_510_90" x1="112.486" y1="323" x2="112.486" y2="380" gradientUnits="userSpaceOnUse">
<stop offset="0.08" stop-color="#4AA6F7"/>
<stop offset="1" stop-color="#1141BD"/>
</linearGradient>
<linearGradient id="paint3_linear_510_90" x1="112.85" y1="213" x2="112.85" y2="270" gradientUnits="userSpaceOnUse">
<stop offset="0.08" stop-color="#4AA6F7"/>
<stop offset="1" stop-color="#1141BD"/>
</linearGradient>
<linearGradient id="paint4_linear_510_90" x1="73.5498" y1="57" x2="73.5498" y2="192" gradientUnits="userSpaceOnUse">
<stop offset="0.08" stop-color="#4AA6F7"/>
<stop offset="1" stop-color="#1141BD"/>
</linearGradient>
<linearGradient id="paint5_linear_510_90" x1="116.416" y1="524" x2="116.416" y2="540" gradientUnits="userSpaceOnUse">
<stop stop-color="#538BF0"/>
<stop offset="1" stop-color="#1141BD"/>
</linearGradient>
<linearGradient id="paint6_linear_510_90" x1="116.416" y1="402" x2="116.416" y2="418" gradientUnits="userSpaceOnUse">
<stop stop-color="#538BF0"/>
<stop offset="1" stop-color="#1141BD"/>
</linearGradient>
<linearGradient id="paint7_linear_510_90" x1="118.562" y1="182" x2="118.562" y2="198" gradientUnits="userSpaceOnUse">
<stop stop-color="#538BF0"/>
<stop offset="1" stop-color="#1141BD"/>
</linearGradient>
<linearGradient id="paint8_linear_510_90" x1="116.416" y1="288" x2="116.416" y2="304" gradientUnits="userSpaceOnUse">
<stop stop-color="#538BF0"/>
<stop offset="1" stop-color="#1141BD"/>
</linearGradient>
<linearGradient id="paint9_linear_510_90" x1="114.271" y1="71" x2="114.271" y2="87" gradientUnits="userSpaceOnUse">
<stop stop-color="#538BF0"/>
<stop offset="1" stop-color="#1141BD"/>
</linearGradient>
<linearGradient id="paint10_linear_510_90" x1="113.567" y1="100" x2="113.567" y2="157" gradientUnits="userSpaceOnUse">
<stop offset="0.08" stop-color="#4AA6F7"/>
<stop offset="1" stop-color="#1141BD"/>
</linearGradient>
<clipPath id="clip0_510_90">
<rect x="53.6309" y="624" width="57" height="118" rx="6" transform="rotate(-90 53.6309 624)" fill="white"/>
</clipPath>
<clipPath id="clip1_510_90">
<rect x="45.0498" y="57" width="57" height="135" rx="6" transform="rotate(-90 45.0498 57)" fill="white"/>
</clipPath>
</defs>
</svg>
