<svg width="599" height="180" viewBox="0 0 599 180" fill="none" xmlns="http://www.w3.org/2000/svg">
<path d="M599 0H0V180H599V0Z" fill="#152640"/>
<path fill-rule="evenodd" clip-rule="evenodd" d="M243.443 82.5157L258.016 99.4311H263.219L248.292 82.1071L248.891 81.9982C252.786 81.2355 256 79.5467 258.207 77.0679C260.359 74.6709 261.557 71.5385 261.557 67.8612C261.557 63.394 259.814 59.7985 256.818 57.2653C253.74 54.6776 249.3 53.2339 244.043 53.2339H236.062V57.0201H243.906C247.883 57.0201 251.261 58.0552 253.658 59.9619C256 61.8141 257.362 64.5108 257.362 67.8339C257.362 71.1298 256 73.7993 253.658 75.6515C251.261 77.5583 247.883 78.5933 243.906 78.5933C242.708 78.5933 241.782 78.5661 240.91 78.5661C239.984 78.5388 239.112 78.5389 237.859 78.5389V82.2978C238.949 82.2978 239.684 82.3251 240.447 82.3251C241.182 82.3523 241.918 82.3795 243.144 82.3795H243.307L243.443 82.5157Z" fill="#FFD52A"/>
<path fill-rule="evenodd" clip-rule="evenodd" d="M307.48 50.2113C308.978 49.7755 309.822 48.6042 309.822 47.1061C309.822 45.0631 308.134 43.7285 305.491 43.7285H299.798V57.13H305.6C308.569 57.13 310.503 55.6591 310.503 53.48C310.531 51.8184 309.523 50.5654 307.48 50.2113ZM301.215 44.9814H305.355C307.289 44.9814 308.488 45.8803 308.488 47.2695C308.488 48.7949 307.289 49.7482 305.11 49.7482H301.215V44.9814ZM301.215 55.9043V50.974H305.6C307.807 50.974 309.141 51.8184 309.141 53.3438C309.141 54.8419 307.807 55.9043 305.573 55.9043H301.215ZM321.971 53.2348L323.714 57.13H325.212L319.111 43.6195H317.776L311.675 57.13H313.173L314.916 53.2348H321.971ZM321.399 51.9546H315.515L318.457 45.3083L321.399 51.9546ZM336.026 45.0087H331.042V57.13H329.652V45.0087H324.668V43.7285H336.053V45.0087H336.026ZM339.703 43.7285H338.314V57.13H339.703V43.7285ZM348.093 43.4561C345.26 43.4561 343.354 44.9814 343.354 47.2967C343.354 49.1218 344.606 50.3475 347.058 50.8106L349.373 51.2736C351.117 51.6005 351.907 52.4449 351.907 53.5617C351.907 55.1688 350.545 56.2039 348.393 56.2039C345.914 56.2039 344.47 54.9781 344.143 52.8807H342.754C343.081 55.7681 345.124 57.4568 348.338 57.4568C351.335 57.4568 353.323 55.8498 353.323 53.3983C353.323 51.4916 351.988 50.3747 349.591 49.9117L347.548 49.5303C345.778 49.2035 344.797 48.468 344.797 47.2423C344.797 45.6896 346.132 44.7091 348.175 44.7091C350.436 44.7091 351.607 45.7714 351.934 47.4057H353.323C352.969 44.7363 350.817 43.4561 348.093 43.4561ZM365.826 45.0087V43.7285H354.44V45.0087H359.424V57.13H360.814V45.0087H365.826ZM375.359 53.2348H368.332L366.588 57.13H365.09L371.192 43.6195H372.526L378.628 57.13H377.13L375.359 53.2348ZM374.787 51.9546L371.818 45.3083L368.876 51.9546H374.787ZM304.538 72.3838L308.733 77.2595H310.476L306.172 72.2748C308.433 71.839 309.877 70.3136 309.877 68.1345C309.877 65.4923 307.779 63.858 304.756 63.858H299.771V77.2595H301.16V72.3838H304.538ZM301.215 71.1036V65.1382H304.756C306.935 65.1382 308.515 66.255 308.515 68.1345C308.515 69.9867 306.962 71.1036 304.756 71.1036H301.215ZM322.107 73.3644L323.85 77.2595H325.349L319.247 63.749H317.912L311.811 77.2595H313.309L315.052 73.3644H322.107ZM321.535 72.0842H315.652L318.593 65.4379L321.535 72.0842ZM340.766 63.858H339.703L334.31 72.9286L328.917 63.858H327.827V77.2595H329.217L329.189 66.8543L333.847 74.6174H334.8L339.404 66.936L339.377 77.2595H340.793V63.858H340.766ZM350.953 63.5856C347.085 63.5856 343.98 66.6908 343.98 70.5588C343.98 74.4267 347.085 77.5319 350.953 77.5319C354.821 77.5319 357.926 74.4267 357.926 70.5588C357.926 66.6908 354.821 63.5856 350.953 63.5856ZM350.926 76.2517C347.821 76.2517 345.369 73.6912 345.369 70.5588C345.369 67.4535 347.821 64.8658 350.926 64.8658C354.058 64.8658 356.51 67.4263 356.51 70.5588C356.51 73.6912 354.058 76.2517 350.926 76.2517ZM365.553 63.5584C362.72 63.5584 360.814 65.0838 360.814 67.3991C360.814 69.2241 362.067 70.4498 364.518 70.9129L366.833 71.3759C368.577 71.7028 369.367 72.5472 369.367 73.664C369.367 75.2711 368.005 76.3062 365.853 76.3062C363.374 76.3062 361.93 75.0804 361.604 72.983H360.214C360.541 75.8703 362.584 77.5592 365.798 77.5592C368.795 77.5592 370.783 75.9521 370.783 73.5006C370.783 71.5938 369.448 70.4498 367.051 70.014L365.008 69.6326C363.238 69.3058 362.257 68.5703 362.257 67.3446C362.257 65.792 363.592 64.8113 365.635 64.8113C367.896 64.8113 369.067 65.8737 369.394 67.508H370.783C370.429 64.8386 368.277 63.5584 365.553 63.5584ZM306.172 96.3268C303.067 96.3268 300.643 93.9025 300.643 90.6883C300.643 87.4741 303.067 85.0499 306.172 85.0499C308.706 85.0499 310.531 86.4935 311.103 88.6999H312.574C311.92 85.7308 309.468 83.7152 306.172 83.7152C302.304 83.7152 299.199 86.7387 299.199 90.6883C299.199 94.6379 302.304 97.6615 306.172 97.6615C309.468 97.6615 311.92 95.6186 312.574 92.6768H311.103C310.531 94.8831 308.706 96.3268 306.172 96.3268ZM323.878 93.4667L325.621 97.3619H327.119L321.018 83.8514H319.683L313.581 97.3619H315.08L316.823 93.4667H323.878ZM323.306 92.1865H317.395L320.337 85.5402L323.306 92.1865ZM342.536 83.9603H341.474L336.081 93.0308L330.687 83.9603H329.598V97.3619H330.987L330.96 86.9566L335.618 94.7197H336.571L341.174 87.0383L341.147 97.3619H342.564V83.9603H342.536ZM355.339 93.4667L357.082 97.3619H358.58L352.479 83.8514H351.144L345.042 97.3619H346.54L348.284 93.4667H355.339ZM354.767 92.1865H348.883L351.825 85.5402L354.767 92.1865ZM365.771 92.5133L369.966 97.3891H371.709L367.405 92.4044C369.666 91.9685 371.11 90.4432 371.11 88.264C371.11 85.6219 369.013 83.9876 365.989 83.9876H361.004V97.3891H362.394V92.5133H365.771ZM362.448 91.2331V85.2678H365.989C368.168 85.2678 369.748 86.3846 369.748 88.264C369.748 90.1163 368.195 91.2331 365.989 91.2331H362.448ZM383.34 93.4667L385.083 97.3619H386.582L380.48 83.8514H379.145L373.044 97.3619H374.542L376.285 93.4667H383.34ZM382.768 92.1865H376.885L379.826 85.5402L382.768 92.1865ZM324.286 112.616L328.481 117.491H330.224L325.921 112.507C328.181 112.071 329.625 110.546 329.625 108.366C329.625 105.724 327.528 104.09 324.504 104.09H319.519V117.491H320.909V112.616H324.286ZM320.963 111.335V105.37H324.504C326.683 105.37 328.263 106.487 328.263 108.366C328.263 110.219 326.711 111.335 324.504 111.335H320.963ZM334.038 104.09H332.649V117.491H334.038V104.09ZM345.478 110.545C346.976 110.11 347.821 108.938 347.821 107.44C347.821 105.397 346.132 104.063 343.49 104.063H337.797V117.464H343.599C346.568 117.464 348.502 115.993 348.502 113.814C348.529 112.153 347.521 110.9 345.478 110.545ZM339.213 105.343H343.354C345.287 105.343 346.486 106.242 346.486 107.631C346.486 109.156 345.287 110.11 343.108 110.11H339.213V105.343ZM339.213 116.266V111.335H343.599C345.805 111.335 347.14 112.18 347.14 113.705C347.14 115.203 345.805 116.266 343.571 116.266H339.213ZM352.969 105.37H360.868V104.09H351.552V117.491H360.868V116.211H352.969V111.472H360.078V110.164H352.969V105.37ZM365.444 104.09H364.055V117.491H365.444V104.09ZM373.943 112.616L378.138 117.491H379.881L375.577 112.507C377.838 112.071 379.282 110.546 379.282 108.366C379.282 105.724 377.184 104.09 374.161 104.09H369.176V117.491H370.565V112.616H373.943ZM370.62 111.335V105.37H374.161C376.34 105.37 377.92 106.487 377.92 108.366C377.92 110.219 376.367 111.335 374.161 111.335H370.62ZM388.407 103.817C384.539 103.817 381.433 106.923 381.433 110.791C381.433 114.659 384.539 117.764 388.407 117.764C392.275 117.764 395.38 114.659 395.38 110.791C395.407 106.923 392.275 103.817 388.407 103.817ZM388.407 116.484C385.301 116.484 382.85 113.923 382.85 110.791C382.85 107.685 385.301 105.125 388.407 105.125C391.539 105.125 393.991 107.685 393.991 110.791C393.991 113.923 391.539 116.484 388.407 116.484Z" fill="#FAFAFA"/>
<path fill-rule="evenodd" clip-rule="evenodd" d="M309.933 117.49H311.758L308.843 114.875L308.925 114.766L311.512 111.007H310.123L307.944 114.058L305.438 111.824C303.123 109.782 301.897 108.801 301.897 107.303C301.897 105.941 302.905 104.987 304.321 104.987C305.629 104.987 306.637 105.777 306.827 107.303H308.162C307.917 105.069 306.419 103.762 304.349 103.762C302.115 103.762 300.508 105.205 300.508 107.248C300.508 108.256 300.916 109.073 301.815 110.054C300.236 110.68 299.01 111.988 299.01 113.813C299.01 116.128 300.889 117.735 303.722 117.735C305.493 117.735 306.909 117.054 308.108 115.829L309.933 117.49ZM303.695 116.564C301.652 116.564 300.29 115.393 300.29 113.813C300.29 112.478 301.243 111.498 302.633 110.98C303.096 111.443 303.64 111.906 304.267 112.478L307.154 115.039C306.201 116.019 305.03 116.564 303.695 116.564Z" fill="#FFD52A"/>
<path d="M288.032 37H286.479V124.192H288.032V37Z" fill="#FFD52A"/>
<path fill-rule="evenodd" clip-rule="evenodd" d="M230.448 66.3368C235.678 64.8114 238.647 60.7528 238.647 55.523C238.647 48.3591 232.791 43.7285 223.475 43.7285H203.618V90.6066H217.428C217.456 90.307 217.483 90.0074 217.537 89.7622C217.592 89.3809 217.646 88.9723 217.728 88.591L217.755 88.482C217.891 87.7193 218.082 86.9839 218.273 86.2757H208.521V69.0334H223.884C226.989 69.0334 229.577 69.5238 231.593 70.4227C233.227 69.66 234.888 69.0879 236.55 68.7066C234.943 67.5898 232.9 66.7726 230.448 66.3368ZM224.701 90.6066C224.728 90.4432 224.756 90.2798 224.756 90.1436L224.783 90.0347C225.001 88.6727 225.382 87.3925 225.872 86.1667C232.382 85.5402 236.223 82.0537 236.223 77.3141C236.223 76.9055 236.196 76.5241 236.141 76.1428C237.64 75.598 239.165 75.2712 240.772 75.0805C240.963 75.9521 241.072 76.9055 241.072 77.8861C241.044 85.2951 234.643 90.3343 224.701 90.6066ZM208.521 48.0867H222.985C229.74 48.0867 233.935 51.192 233.935 56.095C233.935 61.461 229.74 64.7025 222.141 64.7025H208.494V48.0867H208.521Z" fill="#FAFAFA"/>
<path fill-rule="evenodd" clip-rule="evenodd" d="M253.223 73.5815L267.905 90.6058H274.033L258.998 73.1729C266.87 71.6475 271.963 66.336 271.963 58.7091C271.963 49.4751 264.663 43.7549 254.122 43.7549H242.246V48.2221H253.986C261.64 48.2221 267.087 52.1445 267.087 58.7091C267.087 65.1919 261.64 69.1143 253.986 69.1143C244.343 69.1143 235.409 67.9975 227.291 74.6711C223.069 78.1304 220.073 83.0334 218.984 88.7263L218.956 88.8353C218.82 89.5707 218.711 90.3334 218.629 91.0961C218.548 91.886 218.521 92.6759 218.521 93.4931C218.521 100.33 221.19 106.377 225.521 110.708C229.906 115.094 235.981 117.763 242.736 117.763C248.402 117.763 253.332 116.047 257.145 113.051C259.924 110.872 262.13 108.039 263.574 104.688H258.426C257.281 106.758 255.756 108.502 253.877 109.891C250.908 112.07 247.121 113.323 242.736 113.323C237.234 113.323 232.358 111.171 228.844 107.603C225.357 104.062 223.233 99.1043 223.233 93.4659C223.233 92.8666 223.26 92.2674 223.315 91.6954C223.369 91.0961 223.424 90.5241 223.532 89.9521L223.56 89.8431C224.377 85.1035 226.719 81.0449 230.097 78.1849C236.798 72.4647 245.078 73.5815 253.223 73.5815Z" fill="#FAFAFA"/>
<path fill-rule="evenodd" clip-rule="evenodd" d="M322.38 82.5164L320.964 80.3101H319.575L318.131 82.5164H319.166L320.255 80.8004L321.345 82.5164H322.38Z" fill="#FAFAFA"/>
<path fill-rule="evenodd" clip-rule="evenodd" d="M200.296 136.04C199.887 136.04 199.533 136.122 199.261 136.285C198.988 136.449 198.852 136.721 198.852 137.048C198.852 137.402 198.988 137.647 199.261 137.838C199.533 138.029 200.105 138.219 200.977 138.437C201.849 138.655 202.502 138.955 202.965 139.336C203.428 139.717 203.619 140.289 203.619 141.025C203.619 141.76 203.347 142.387 202.775 142.85C202.203 143.313 201.467 143.558 200.568 143.558C199.234 143.558 198.035 143.095 197 142.169L197.899 141.079C198.771 141.815 199.669 142.196 200.596 142.196C201.059 142.196 201.44 142.087 201.712 141.897C201.985 141.706 202.121 141.434 202.121 141.107C202.121 140.78 201.985 140.507 201.74 140.344C201.494 140.153 201.031 139.99 200.405 139.854C199.778 139.69 199.288 139.554 198.961 139.445C198.634 139.309 198.335 139.145 198.09 138.955C197.572 138.573 197.327 137.974 197.327 137.184C197.327 136.394 197.627 135.795 198.199 135.359C198.771 134.923 199.479 134.705 200.323 134.705C200.868 134.705 201.413 134.787 201.957 134.978C202.502 135.169 202.965 135.414 203.347 135.741L202.584 136.83C202.339 136.612 201.985 136.422 201.549 136.258C201.14 136.122 200.732 136.04 200.296 136.04ZM212.526 136.939C211.954 136.34 211.219 136.04 210.374 136.04C209.53 136.04 208.822 136.34 208.222 136.939C207.65 137.538 207.351 138.274 207.351 139.145C207.351 140.017 207.65 140.725 208.222 141.352C208.794 141.951 209.53 142.251 210.374 142.251C211.219 142.251 211.927 141.951 212.526 141.352C213.098 140.753 213.398 140.017 213.398 139.145C213.398 138.274 213.098 137.538 212.526 136.939ZM213.589 142.305C212.717 143.15 211.655 143.558 210.374 143.558C209.094 143.558 208.032 143.15 207.16 142.305C206.288 141.461 205.853 140.398 205.853 139.145C205.853 137.892 206.288 136.83 207.16 135.986C208.032 135.141 209.094 134.733 210.374 134.733C211.655 134.733 212.717 135.141 213.589 135.986C214.46 136.83 214.896 137.892 214.896 139.145C214.869 140.398 214.433 141.461 213.589 142.305ZM221.597 142.169C222.087 142.169 222.523 142.087 222.877 141.924C223.231 141.76 223.612 141.488 223.994 141.134L224.92 142.087C224.021 143.095 222.904 143.585 221.624 143.585C220.344 143.585 219.254 143.177 218.41 142.332C217.565 141.515 217.13 140.453 217.13 139.173C217.13 137.892 217.565 136.83 218.437 135.986C219.309 135.141 220.398 134.705 221.733 134.705C223.068 134.705 224.157 135.196 225.056 136.176L224.13 137.184C223.721 136.803 223.34 136.531 222.986 136.367C222.632 136.204 222.196 136.122 221.706 136.122C220.834 136.122 220.126 136.394 219.527 136.966C218.927 137.511 218.655 138.247 218.655 139.118C218.655 139.99 218.955 140.698 219.527 141.297C220.099 141.869 220.807 142.169 221.597 142.169ZM227.698 134.923H229.142V143.476H227.698V134.923ZM238.512 134.923V136.285H233.963V138.546H238.049V139.826H233.963V142.114H238.676V143.476H232.52V134.923H238.512ZM244.45 134.923C245.976 134.923 247.147 135.305 247.991 136.04C248.808 136.776 249.217 137.811 249.217 139.145C249.217 140.48 248.808 141.515 248.018 142.305C247.229 143.068 246.003 143.476 244.341 143.476H241.508V134.923H244.45ZM247.773 139.2C247.773 137.239 246.657 136.258 244.423 136.258H242.979V142.114H244.586C245.621 142.114 246.411 141.869 246.956 141.379C247.501 140.889 247.773 140.153 247.773 139.2ZM253.303 141.515L252.458 143.449H250.906L254.665 134.896H256.217L259.976 143.449H258.424L257.579 141.515H253.303ZM256.98 140.208L255.427 136.694L253.875 140.208H256.98ZM265.097 134.923C266.623 134.923 267.794 135.305 268.638 136.04C269.455 136.776 269.864 137.811 269.864 139.145C269.864 140.48 269.456 141.515 268.666 142.305C267.876 143.068 266.65 143.476 264.988 143.476H262.155V134.923H265.097ZM268.393 139.2C268.393 137.239 267.276 136.258 265.043 136.258H263.599V142.114H265.206C266.241 142.114 267.031 141.869 267.576 141.379C268.121 140.889 268.393 140.153 268.393 139.2ZM278.717 134.923V136.285H274.168V138.546H278.254V139.826H274.168V142.114H278.88V143.476H272.724V134.923H278.717ZM290.348 134.923C291.873 134.923 293.044 135.305 293.889 136.04C294.706 136.776 295.115 137.811 295.115 139.145C295.115 140.48 294.706 141.515 293.916 142.305C293.126 143.068 291.9 143.476 290.239 143.476H287.406V134.923H290.348ZM293.671 139.2C293.671 137.239 292.554 136.258 290.32 136.258H288.877V142.114H290.484C291.519 142.114 292.309 141.869 292.854 141.379C293.398 140.889 293.671 140.153 293.671 139.2ZM303.994 134.923V136.285H299.446V138.546H303.531V139.826H299.446V142.114H304.158V143.476H298.002V134.923H303.994ZM313.882 141.515L313.038 143.449H311.485L315.244 134.896H316.797L320.556 143.449H319.003L318.159 141.515H313.882ZM317.587 140.208L316.034 136.694L314.481 140.208H317.587ZM325.677 134.923C327.202 134.923 328.373 135.305 329.218 136.04C330.035 136.776 330.443 137.811 330.443 139.145C330.443 140.48 330.035 141.515 329.245 142.305C328.455 143.068 327.229 143.476 325.568 143.476H322.735V134.923H325.677ZM329 139.2C329 137.239 327.883 136.258 325.649 136.258H324.206V142.114H325.813C326.848 142.114 327.638 141.869 328.183 141.379C328.727 140.889 329 140.153 329 139.2ZM337.199 143.476H335.592L332.159 134.923H333.767L336.381 141.297L338.996 134.923H340.604L337.199 143.476ZM348.83 136.939C348.258 136.34 347.522 136.04 346.678 136.04C345.833 136.04 345.125 136.34 344.526 136.939C343.954 137.538 343.654 138.274 343.654 139.145C343.654 140.017 343.954 140.725 344.526 141.352C345.098 141.951 345.833 142.251 346.678 142.251C347.522 142.251 348.23 141.951 348.83 141.352C349.402 140.753 349.701 140.017 349.701 139.145C349.701 138.274 349.402 137.538 348.83 136.939ZM349.865 142.305C348.993 143.15 347.931 143.558 346.651 143.558C345.37 143.558 344.308 143.15 343.436 142.305C342.565 141.461 342.129 140.398 342.129 139.145C342.129 137.892 342.565 136.83 343.436 135.986C344.308 135.141 345.37 134.733 346.651 134.733C347.931 134.733 348.993 135.141 349.865 135.986C350.736 136.83 351.172 137.892 351.172 139.145C351.172 140.398 350.736 141.461 349.865 142.305ZM359.916 139.309H361.36V142.223C360.542 143.122 359.398 143.558 357.9 143.558C356.647 143.558 355.585 143.15 354.74 142.305C353.896 141.488 353.46 140.426 353.46 139.145C353.46 137.865 353.896 136.803 354.768 135.958C355.639 135.114 356.674 134.678 357.927 134.678C359.153 134.678 360.188 135.032 361.005 135.741L360.243 136.83C359.916 136.558 359.562 136.34 359.235 136.231C358.908 136.122 358.499 136.067 358.064 136.067C357.192 136.067 356.484 136.34 355.885 136.912C355.285 137.457 355.013 138.192 355.013 139.118C355.013 140.017 355.285 140.753 355.857 141.297C356.429 141.842 357.11 142.114 357.927 142.114C358.745 142.114 359.426 141.951 359.97 141.597V139.309H359.916ZM365.391 141.515L364.547 143.449H362.994L366.753 134.896H368.305L372.064 143.449H370.512L369.667 141.515H365.391ZM369.068 140.208L367.516 136.694L365.963 140.208H369.068ZM377.185 134.923C378.711 134.923 379.909 135.305 380.726 136.04C381.544 136.776 381.952 137.811 381.952 139.145C381.952 140.48 381.544 141.515 380.754 142.305C379.964 143.068 378.738 143.476 377.076 143.476H374.244V134.923H377.185ZM380.509 139.2C380.509 137.239 379.392 136.258 377.158 136.258H375.714V142.114H377.322C378.357 142.114 379.147 141.869 379.691 141.379C380.209 140.889 380.509 140.153 380.509 139.2ZM390.914 136.939C390.342 136.34 389.606 136.04 388.762 136.04C387.917 136.04 387.209 136.34 386.61 136.939C386.038 137.538 385.738 138.274 385.738 139.145C385.738 140.017 386.038 140.725 386.61 141.352C387.182 141.951 387.917 142.251 388.762 142.251C389.606 142.251 390.314 141.951 390.914 141.352C391.486 140.753 391.785 140.017 391.785 139.145C391.785 138.274 391.486 137.538 390.914 136.939ZM391.976 142.305C391.104 143.15 390.042 143.558 388.762 143.558C387.482 143.558 386.419 143.15 385.548 142.305C384.676 141.461 384.24 140.398 384.24 139.145C384.24 137.892 384.676 136.83 385.548 135.986C386.419 135.141 387.482 134.733 388.762 134.733C390.042 134.733 391.104 135.141 391.976 135.986C392.848 136.83 393.284 137.892 393.284 139.145C393.256 140.398 392.821 141.461 391.976 142.305ZM398.677 136.04C398.268 136.04 397.914 136.122 397.642 136.285C397.369 136.449 397.233 136.721 397.233 137.048C397.233 137.402 397.369 137.647 397.642 137.838C397.914 138.029 398.486 138.219 399.358 138.437C400.229 138.655 400.883 138.955 401.346 139.336C401.782 139.717 402 140.289 402 141.025C402 141.76 401.728 142.387 401.156 142.85C400.584 143.313 399.848 143.558 398.949 143.558C397.615 143.558 396.416 143.095 395.381 142.169L396.28 141.079C397.151 141.815 398.05 142.196 398.976 142.196C399.44 142.196 399.821 142.087 400.093 141.897C400.366 141.706 400.502 141.434 400.502 141.107C400.502 140.78 400.366 140.507 400.121 140.344C399.875 140.153 399.412 139.99 398.786 139.854C398.159 139.69 397.669 139.554 397.342 139.445C397.015 139.309 396.716 139.145 396.471 138.955C395.953 138.573 395.708 137.974 395.708 137.184C395.708 136.394 396.007 135.795 396.579 135.359C397.151 134.923 397.86 134.705 398.704 134.705C399.249 134.705 399.794 134.787 400.338 134.978C400.883 135.169 401.346 135.414 401.728 135.741L400.965 136.83C400.72 136.612 400.366 136.422 399.93 136.258C399.521 136.122 399.085 136.04 398.677 136.04Z" fill="#FFD52A"/>
</svg>
