<?xml version="1.0" encoding="utf-8"?>
<!-- Generator: Adobe Illustrator 28.2.0, SVG Export Plug-In . SVG Version: 6.00 Build 0)  -->
<svg version="1.1" xmlns="http://www.w3.org/2000/svg" xmlns:xlink="http://www.w3.org/1999/xlink" x="0px" y="0px"
	 viewBox="0 0 283.46 283.46" style="enable-background:new 0 0 283.46 283.46;" xml:space="preserve">
<style type="text/css">
	.st0{fill-rule:evenodd;clip-rule:evenodd;fill:#FFFFFF;}
	.st1{fill-rule:evenodd;clip-rule:evenodd;fill:#152640;}
	.st2{fill-rule:evenodd;clip-rule:evenodd;fill:#FFD52A;}
</style>
<g id="Camada_1">
</g>
<g id="Camada_1_1_">
</g>
<g id="Camada_1_2_">
	<rect x="141.63" y="0.11" class="st2" width="141.73" height="283.46"/>
	<rect x="-0.11" y="0.11" class="st1" width="141.73" height="283.46"/>
	<g>
		<path class="st2" d="M75.64,143.72l15.39,17.84h5.5l-15.75-18.28l0.63-0.12c4.12-0.8,7.51-2.59,9.84-5.2
			c2.26-2.53,3.54-5.83,3.54-9.72c0-4.7-1.84-8.52-5-11.18c-3.26-2.73-7.93-4.24-13.47-4.24h-8.41v3.99h8.27
			c4.19,0,7.77,1.1,10.29,3.12c2.46,1.97,3.9,4.8,3.9,8.31c0,3.48-1.44,6.3-3.91,8.26c-2.52,2-6.1,3.1-10.28,3.1
			c-1.28,0-2.25-0.02-3.17-0.04c-0.97-0.02-1.89-0.04-3.21-0.03v3.97c1.16,0,1.94,0.02,2.74,0.04c0.77,0.02,1.56,0.05,2.84,0.05
			h0.17L75.64,143.72z"/>
		<path class="st0" d="M61.9,126.65c5.53-1.6,8.66-5.89,8.66-11.42c0-7.57-6.18-12.44-16.01-12.44H33.6v49.47h14.56
			c0.03-0.32,0.07-0.62,0.11-0.9c0.06-0.41,0.13-0.83,0.21-1.25l0.02-0.11c0.15-0.79,0.33-1.57,0.55-2.33H38.77v-18.19h16.22
			c3.27,0,6.01,0.5,8.13,1.47c1.72-0.81,3.47-1.4,5.24-1.81C66.67,127.96,64.51,127.11,61.9,126.65L61.9,126.65z M55.84,152.25
			c0.02-0.17,0.05-0.33,0.07-0.48l0.02-0.11c0.24-1.43,0.63-2.8,1.15-4.09c6.87-0.65,10.93-4.35,10.93-9.35
			c0-0.43-0.03-0.84-0.09-1.24c1.57-0.56,3.2-0.91,4.87-1.13c0.2,0.93,0.3,1.92,0.3,2.95C73.1,146.67,66.34,151.98,55.84,152.25
			L55.84,152.25z M38.77,107.37h15.28c7.13,0,11.57,3.27,11.57,8.44c0,5.67-4.44,9.09-12.44,9.09h-14.4V107.37z"/>
		<path class="st0" d="M85.94,134.29l15.5,17.97h6.47l-15.86-18.41c8.29-1.6,13.68-7.2,13.68-15.28c0-9.75-7.71-15.79-18.84-15.79
			H74.34v4.73h12.4c8.08,0,13.82,4.15,13.82,11.06c0,6.84-5.75,10.99-13.82,10.99c-10.16,0-19.61-1.18-28.18,5.86
			c-4.45,3.66-7.62,8.83-8.76,14.83l-0.02,0.11c-0.15,0.78-0.26,1.58-0.34,2.38c-0.08,0.83-0.12,1.67-0.12,2.53
			c0,7.21,2.82,13.59,7.39,18.18c4.62,4.63,11.03,7.44,18.15,7.44c5.97,0,11.18-1.82,15.21-4.96c2.94-2.3,5.25-5.3,6.78-8.82h-5.43
			c-1.2,2.18-2.82,4.03-4.79,5.49c-3.13,2.31-7.13,3.62-11.77,3.62c-5.8,0-10.96-2.27-14.66-6.03c-3.68-3.74-5.91-8.96-5.91-14.91
			c0-0.63,0.03-1.25,0.08-1.87c0.05-0.62,0.13-1.23,0.23-1.84l0.02-0.11c0.85-4.99,3.34-9.27,6.91-12.31
			C68.61,133.12,77.35,134.29,85.94,134.29z"/>
	</g>
	<g>
		<path class="st0" d="M217.37,143.72l15.39,17.84h5.5l-15.75-18.28l0.62-0.12c4.12-0.8,7.51-2.59,9.84-5.2
			c2.26-2.53,3.54-5.83,3.54-9.72c0-4.7-1.84-8.52-5-11.18c-3.26-2.73-7.93-4.24-13.47-4.24h-8.41v3.99h8.27
			c4.19,0,7.77,1.1,10.29,3.12c2.46,1.97,3.9,4.8,3.9,8.31c0,3.48-1.44,6.3-3.91,8.26c-2.52,2-6.1,3.1-10.28,3.1
			c-1.28,0-2.25-0.02-3.17-0.04c-0.97-0.02-1.89-0.04-3.21-0.03v3.97c1.16,0,1.94,0.02,2.74,0.04c0.77,0.02,1.56,0.05,2.84,0.05
			h0.17L217.37,143.72z"/>
		<path class="st1" d="M203.63,126.65c5.53-1.6,8.66-5.89,8.66-11.42c0-7.57-6.18-12.44-16.01-12.44h-20.95v49.47h14.56
			c0.03-0.32,0.07-0.62,0.11-0.9c0.06-0.41,0.13-0.83,0.21-1.25l0.02-0.11c0.15-0.79,0.33-1.57,0.55-2.33H180.5v-18.19h16.22
			c3.27,0,6.01,0.5,8.13,1.47c1.72-0.81,3.47-1.4,5.24-1.81C208.4,127.96,206.25,127.11,203.63,126.65L203.63,126.65z
			 M197.58,152.25c0.02-0.17,0.05-0.33,0.07-0.48l0.02-0.11c0.24-1.43,0.63-2.8,1.15-4.09c6.87-0.65,10.93-4.35,10.93-9.35
			c0-0.43-0.03-0.84-0.09-1.24c1.57-0.56,3.2-0.91,4.87-1.13c0.2,0.93,0.3,1.92,0.3,2.95C214.84,146.67,208.08,151.98,197.58,152.25
			L197.58,152.25z M180.5,107.37h15.28c7.13,0,11.57,3.27,11.57,8.44c0,5.67-4.44,9.09-12.44,9.09h-14.4V107.37z"/>
		<path class="st1" d="M227.68,134.29l15.5,17.97h6.47l-15.86-18.41c8.29-1.6,13.68-7.2,13.68-15.28c0-9.75-7.71-15.79-18.84-15.79
			h-12.54v4.73h12.4c8.08,0,13.82,4.15,13.82,11.06c0,6.84-5.75,10.99-13.82,10.99c-10.16,0-19.61-1.18-28.18,5.86
			c-4.45,3.66-7.62,8.83-8.76,14.83l-0.02,0.11c-0.15,0.78-0.26,1.58-0.34,2.38c-0.08,0.83-0.12,1.67-0.12,2.53
			c0,7.21,2.82,13.59,7.39,18.18c4.62,4.63,11.03,7.44,18.15,7.44c5.97,0,11.18-1.82,15.21-4.96c2.94-2.3,5.25-5.3,6.78-8.82h-5.43
			c-1.2,2.18-2.82,4.03-4.79,5.49c-3.13,2.31-7.13,3.62-11.77,3.62c-5.8,0-10.96-2.27-14.66-6.03c-3.68-3.74-5.91-8.96-5.91-14.91
			c0-0.63,0.03-1.25,0.08-1.87c0.05-0.62,0.13-1.23,0.23-1.84l0.02-0.11c0.85-4.99,3.34-9.27,6.91-12.31
			C210.35,133.12,219.08,134.29,227.68,134.29z"/>
	</g>
</g>
</svg>
