<svg width="23" height="13" viewBox="0 0 23 13" fill="none" xmlns="http://www.w3.org/2000/svg">
<path d="M10.2363 5.04332V5.54332H10.7876L10.7339 4.99464L10.2363 5.04332ZM7.57293 5.04332L7.0771 5.10772L7.13367 5.54332H7.57293V5.04332ZM7.35454 4.30291L6.90732 4.52652L6.90732 4.52652L7.35454 4.30291ZM6.91775 3.73828L7.24436 3.3597L7.24436 3.3597L6.91775 3.73828ZM6.27322 3.38139L6.10893 3.85371L6.11714 3.85641L6.27322 3.38139ZM4.08927 3.6424L3.80926 3.22815L3.80748 3.22937L4.08927 3.6424ZM3.21036 4.76633L2.74941 4.5726L2.74823 4.57545L3.21036 4.76633ZM3.21569 8.36719L2.75473 8.56092L2.75646 8.56496L3.21569 8.36719ZM4.09459 9.46982L3.81905 9.88707L3.82362 9.89002L4.09459 9.46982ZM6.23593 9.7255L6.08839 9.24776L6.08639 9.24838L6.23593 9.7255ZM6.86981 9.40057L7.17838 9.794L7.17938 9.7932L6.86981 9.40057ZM7.32258 8.87322L6.88936 8.62357L6.888 8.62596L7.32258 8.87322ZM7.57293 8.16477L7.57593 7.66478L7.15356 7.66225L7.08047 8.07826L7.57293 8.16477ZM10.2363 8.18075L10.734 8.22833L10.786 7.68404L10.2393 7.68076L10.2363 8.18075ZM9.81547 9.60831L9.36825 9.3847L9.36691 9.38743L9.81547 9.60831ZM8.86199 10.892L9.20587 11.255L9.20753 11.2534L8.86199 10.892ZM7.38117 11.8082L7.1994 11.3424L7.19843 11.3428L7.38117 11.8082ZM2.73628 11.4993L2.49143 11.9352L2.4938 11.9366L2.73628 11.4993ZM0.893244 9.59233L1.33312 9.35461L0.893244 9.59233ZM0.903897 3.49325L0.465593 3.25265L0.465593 3.25265L0.903897 3.49325ZM7.22137 1.21875L7.06506 1.6937L7.06778 1.69458L7.22137 1.21875ZM8.70219 2.01776L8.384 2.40345L8.38593 2.40502L8.70219 2.01776ZM10.2363 4.54332H7.57293V5.54332H10.2363V4.54332ZM8.06877 4.97893C8.02692 4.65667 7.93964 4.35508 7.80175 4.0793L6.90732 4.52652C6.98961 4.69109 7.04792 4.8831 7.0771 5.10772L8.06877 4.97893ZM7.80175 4.0793C7.66298 3.80177 7.47699 3.5604 7.24436 3.3597L6.59113 4.11686C6.72072 4.22866 6.82592 4.36371 6.90732 4.52652L7.80175 4.0793ZM7.24436 3.3597C7.00882 3.15649 6.73461 3.00669 6.42929 2.90638L6.11714 3.85641C6.30898 3.91944 6.46446 4.00758 6.59113 4.11686L7.24436 3.3597ZM6.43748 2.90914C6.13238 2.80302 5.80421 2.75355 5.45823 2.75355V3.75355C5.70884 3.75355 5.924 3.78931 6.10896 3.85364L6.43748 2.90914ZM5.45823 2.75355C4.84403 2.75355 4.28688 2.90532 3.80927 3.22815L4.36927 4.05665C4.6587 3.86101 5.01419 3.75355 5.45823 3.75355V2.75355ZM3.80748 3.22937C3.3361 3.55096 2.98677 4.00786 2.74942 4.57261L3.6713 4.96006C3.84588 4.54469 4.08249 4.25231 4.37106 4.05543L3.80748 3.22937ZM2.74823 4.57545C2.51432 5.14175 2.40674 5.8034 2.40674 6.54545H3.40674C3.40674 5.89547 3.50157 5.37103 3.67249 4.95721L2.74823 4.57545ZM2.40674 6.54545C2.40674 7.31376 2.51547 7.99162 2.75474 8.56092L3.67663 8.17346C3.50397 7.76264 3.40674 7.22601 3.40674 6.54545H2.40674ZM2.75646 8.56496C2.99767 9.12505 3.348 9.57597 3.81906 9.88705L4.37012 9.05258C4.08835 8.86651 3.85274 8.58234 3.67491 8.16942L2.75646 8.56496ZM3.82362 9.89002C4.29572 10.1945 4.84213 10.3374 5.44225 10.3374V9.33736C5.00544 9.33736 4.65341 9.23523 4.36557 9.04961L3.82362 9.89002ZM5.44225 10.3374C5.77586 10.3374 6.09182 10.2947 6.38547 10.2026L6.08639 9.24838C5.90419 9.30549 5.69102 9.33736 5.44225 9.33736V10.3374ZM6.38347 10.2032C6.6776 10.1124 6.94469 9.97728 7.17838 9.794L6.56124 9.00714C6.4327 9.10795 6.27722 9.18945 6.08839 9.24776L6.38347 10.2032ZM7.17938 9.7932C7.4151 9.60735 7.60832 9.38208 7.75716 9.12049L6.888 8.62596C6.80246 8.7763 6.69383 8.90259 6.56023 9.00793L7.17938 9.7932ZM7.75579 9.12287C7.90849 8.85789 8.01018 8.56557 8.06539 8.25129L7.08047 8.07826C7.04336 8.28954 6.97814 8.46952 6.88936 8.62358L7.75579 9.12287ZM7.56993 8.66476L10.2333 8.68074L10.2393 7.68076L7.57593 7.66478L7.56993 8.66476ZM9.73855 8.13318C9.6987 8.55009 9.57732 8.96658 9.36826 9.3847L10.2627 9.83192C10.5224 9.31254 10.6815 8.77733 10.734 8.22833L9.73855 8.13318ZM9.36691 9.38743C9.16375 9.8 8.88204 10.1811 8.51645 10.5307L9.20753 11.2534C9.6516 10.8288 10.0056 10.3541 10.264 9.82919L9.36691 9.38743ZM8.51812 10.5291C8.16553 10.8631 7.72888 11.1358 7.1994 11.3424L7.56294 12.274C8.19823 12.0261 8.7488 11.688 9.20587 11.255L8.51812 10.5291ZM7.19843 11.3428C6.6884 11.5431 6.08822 11.6491 5.38898 11.6491V12.6491C6.18832 12.6491 6.91627 12.5279 7.56391 12.2736L7.19843 11.3428ZM5.38898 11.6491C4.47749 11.6491 3.67824 11.4499 2.97877 11.062L2.4938 11.9366C3.35683 12.4151 4.32604 12.6491 5.38898 12.6491V11.6491ZM2.98113 11.0633C2.29118 10.6758 1.74214 10.1115 1.33312 9.35461L0.45337 9.83005C0.946337 10.7422 1.62599 11.4492 2.49144 11.9352L2.98113 11.0633ZM1.33312 9.35461C0.930594 8.60978 0.716752 7.68046 0.716752 6.54545H-0.283248C-0.283248 7.80392 -0.0460951 8.90584 0.45337 9.83005L1.33312 9.35461ZM0.716752 6.54545C0.716752 5.40776 0.933809 4.47783 1.3422 3.73385L0.465593 3.25265C-0.0422075 4.17771 -0.283248 5.28258 -0.283248 6.54545H0.716752ZM1.3422 3.73385C1.75801 2.97638 2.31216 2.41332 3.0054 2.02889L2.52043 1.15435C1.65118 1.6364 0.965983 2.34109 0.465593 3.25265L1.3422 3.73385ZM3.0054 2.02889C3.70622 1.64025 4.49693 1.44176 5.38898 1.44176V0.441761C4.34211 0.441761 3.38212 0.676511 2.52043 1.15435L3.0054 2.02889ZM5.38898 1.44176C6.0026 1.44176 6.56 1.52747 7.06506 1.69369L7.37768 0.743811C6.76058 0.540714 6.09639 0.441761 5.38898 0.441761V1.44176ZM7.06778 1.69458C7.57287 1.85761 8.00975 2.09469 8.384 2.40344L9.02038 1.63207C8.54236 1.2377 7.99202 0.942103 7.37496 0.742924L7.06778 1.69458ZM8.38593 2.40502C8.75767 2.70861 9.06172 3.08302 9.29811 3.53373L10.1837 3.06926C9.88741 2.50434 9.49899 2.02292 9.01846 1.63049L8.38593 2.40502ZM9.29811 3.53373C9.53048 3.9768 9.68011 4.49353 9.73866 5.092L10.7339 4.99464C10.6646 4.2863 10.484 3.64181 10.1837 3.06926L9.29811 3.53373ZM14.222 1.09091L14.7002 0.944897L14.5921 0.590909H14.222V1.09091ZM16.6616 9.08097L16.1834 9.22698L16.2915 9.58097H16.6616V9.08097ZM16.7522 9.08097V9.58097H17.1223L17.2304 9.22698L16.7522 9.08097ZM19.1918 1.09091V0.590909H18.8217L18.7136 0.944897L19.1918 1.09091ZM22.1428 1.09091L22.6166 1.25076L22.8392 0.590909H22.1428V1.09091ZM18.462 12V12.5H18.821L18.9358 12.1598L18.462 12ZM14.9517 12L14.478 12.1598L14.5928 12.5H14.9517V12ZM11.271 1.09091V0.590909H10.5746L10.7972 1.25076L11.271 1.09091ZM13.7438 1.23692L16.1834 9.22698L17.1398 8.93495L14.7002 0.944897L13.7438 1.23692ZM16.6616 9.58097H16.7522V8.58097H16.6616V9.58097ZM17.2304 9.22698L19.67 1.23692L18.7136 0.944897L16.274 8.93495L17.2304 9.22698ZM19.1918 1.59091H22.1428V0.590909H19.1918V1.59091ZM21.669 0.931061L17.9883 11.8402L18.9358 12.1598L22.6166 1.25076L21.669 0.931061ZM18.462 11.5H14.9517V12.5H18.462V11.5ZM15.4255 11.8402L11.7448 0.931061L10.7972 1.25076L14.478 12.1598L15.4255 11.8402ZM11.271 1.59091H14.222V0.590909H11.271V1.59091Z" fill="#EDEFF0"/>
</svg>
