<svg width="23" height="13" viewBox="0 0 23 13" fill="none" xmlns="http://www.w3.org/2000/svg">
<path d="M10.2363 5.04332H7.57293C7.53742 4.76989 7.46462 4.52308 7.35454 4.30291C7.24445 4.08274 7.09885 3.89453 6.91775 3.73828C6.73664 3.58203 6.5218 3.46307 6.27322 3.38139C6.02819 3.29616 5.75653 3.25355 5.45823 3.25355C4.92911 3.25355 4.47279 3.38317 4.08927 3.6424C3.7093 3.90163 3.41633 4.27628 3.21036 4.76633C3.00795 5.25639 2.90674 5.84943 2.90674 6.54545C2.90674 7.26989 3.00972 7.87713 3.21569 8.36719C3.4252 8.85369 3.71817 9.22124 4.09459 9.46982C4.47456 9.71484 4.92378 9.83736 5.44225 9.83736C5.73344 9.83736 5.998 9.80007 6.23593 9.7255C6.47741 9.65092 6.6887 9.54261 6.86981 9.40057C7.05447 9.25497 7.20539 9.07919 7.32258 8.87322C7.44332 8.66371 7.52677 8.42756 7.57293 8.16477L10.2363 8.18075C10.1901 8.66371 10.0498 9.13956 9.81547 9.60831C9.58465 10.0771 9.26682 10.505 8.86199 10.892C8.45716 11.2756 7.96356 11.581 7.38117 11.8082C6.80234 12.0355 6.13827 12.1491 5.38898 12.1491C4.40177 12.1491 3.51753 11.9325 2.73628 11.4993C1.95858 11.0625 1.34424 10.4268 0.893244 9.59233C0.44225 8.75781 0.216752 7.74219 0.216752 6.54545C0.216752 5.34517 0.445801 4.32777 0.903897 3.49325C1.36199 2.65874 1.98167 2.02486 2.76292 1.59162C3.54417 1.15838 4.41952 0.941761 5.38898 0.941761C6.04949 0.941761 6.66029 1.03409 7.22137 1.21875C7.78245 1.39986 8.27606 1.66619 8.70219 2.01776C9.12833 2.36577 9.47457 2.79368 9.7409 3.30149C10.0072 3.8093 10.1724 4.38991 10.2363 5.04332ZM14.222 1.09091L16.6616 9.08097H16.7522L19.1918 1.09091H22.1428L18.462 12H14.9517L11.271 1.09091H14.222Z" fill="#D9D9D9"/>
</svg>
