<?xml version="1.0" ?>
<!-- Uploaded to: SVG Repo, www.svgrepo.com, Generator: SVG Repo Mixer Tools -->
<svg width="800px" height="800px" viewBox="0 0 20 20" version="1.1" xmlns="http://www.w3.org/2000/svg">
<g id="layer1">
<path d="M 9.7441406 3 L 9.2402344 3.0527344 L 8.7441406 3.15625 L 8.2597656 3.3085938 L 7.7949219 3.5058594 L 7.3535156 3.7519531 L 6.9375 4.0410156 L 6.5527344 4.3730469 L 6.203125 4.7402344 L 5.8945312 5.1386719 L 5.625 5.5683594 L 5.4023438 6.0234375 L 5.2265625 6.5 L 5.0996094 6.9882812 L 5.0234375 7.4902344 L 4.9980469 7.9960938 L 5.0234375 8.8144531 L 5.0996094 9.6308594 L 5.2285156 10.439453 L 5.4082031 11.238281 L 5.6367188 12.025391 L 5.9160156 12.796875 L 6.2421875 13.546875 L 6.6152344 14.275391 L 7.0332031 14.980469 L 7.4960938 15.658203 L 8 16.304688 L 8.5429688 16.917969 L 8.5449219 16.917969 L 8.7851562 17.134766 L 9.0605469 17.308594 L 9.3574219 17.4375 L 9.6738281 17.517578 L 9.9980469 17.550781 L 10.322266 17.517578 L 10.636719 17.4375 L 10.935547 17.308594 L 11.210938 17.134766 L 11.453125 16.917969 L 11.996094 16.304688 L 12.498047 15.658203 L 12.962891 14.980469 L 13.378906 14.275391 L 13.751953 13.546875 L 14.078125 12.796875 L 14.357422 12.025391 L 14.587891 11.238281 L 14.765625 10.439453 L 14.894531 9.6308594 L 14.970703 8.8144531 L 14.998047 7.9960938 L 14.970703 7.4902344 L 14.894531 6.9882812 L 14.769531 6.5 L 14.591797 6.0234375 L 14.369141 5.5683594 L 14.103516 5.1386719 L 13.792969 4.7402344 L 13.441406 4.3730469 L 13.056641 4.0410156 L 12.642578 3.7519531 L 12.201172 3.5058594 L 11.734375 3.3085938 L 11.25 3.15625 L 10.753906 3.0527344 L 10.25 3 L 9.7441406 3 z M 9.9980469 3.9960938 L 10.445312 4.0214844 L 10.888672 4.0957031 L 11.320312 4.2207031 L 11.732422 4.3925781 L 12.126953 4.609375 L 12.492188 4.8691406 L 12.826172 5.1679688 L 13.125 5.5019531 L 13.384766 5.8671875 L 13.601562 6.2597656 L 13.773438 6.6757812 L 13.898438 7.1054688 L 13.974609 7.546875 L 13.998047 7.9941406 L 13.974609 8.7519531 L 13.902344 9.5039062 L 13.783203 10.25 L 13.619141 10.990234 L 13.40625 11.714844 L 13.150391 12.425781 L 12.847656 13.121094 L 12.503906 13.792969 L 12.117188 14.443359 L 11.693359 15.068359 L 11.226562 15.664062 L 10.726562 16.230469 L 10.570312 16.365234 L 10.394531 16.462891 L 10.201172 16.521484 L 9.9980469 16.548828 L 9.7949219 16.521484 L 9.6015625 16.462891 L 9.4257812 16.365234 L 9.2695312 16.230469 L 8.7695312 15.664062 L 8.3027344 15.068359 L 7.8789062 14.443359 L 7.4921875 13.792969 L 7.1484375 13.121094 L 6.8457031 12.425781 L 6.5898438 11.714844 L 6.3769531 10.990234 L 6.2128906 10.25 L 6.09375 9.5039062 L 6.0214844 8.7519531 L 5.9980469 7.9941406 L 6.0234375 7.546875 L 6.0976562 7.1054688 L 6.2207031 6.6757812 L 6.3925781 6.2597656 L 6.6113281 5.8671875 L 6.8710938 5.5019531 L 7.1699219 5.1679688 L 7.5039062 4.8691406 L 7.8691406 4.609375 L 8.2617188 4.3925781 L 8.6777344 4.2207031 L 9.1074219 4.0957031 L 9.5488281 4.0214844 L 9.9980469 3.9960938 z M 9.9160156 5.9941406 L 9.5976562 6.0332031 L 9.2890625 6.125 L 8.9980469 6.2597656 L 8.7324219 6.4433594 L 8.5019531 6.6660156 L 8.3085938 6.9238281 L 8.1582031 7.2109375 L 8.0546875 7.515625 L 8.0039062 7.8320312 L 8.0039062 8.15625 L 8.0546875 8.4726562 L 8.1582031 8.7773438 L 8.3085938 9.0625 L 8.5019531 9.3203125 L 8.7324219 9.5410156 L 8.9980469 9.7246094 L 9.2890625 9.8632812 L 9.5976562 9.953125 L 9.9160156 9.9921875 L 10.238281 9.9863281 L 10.554688 9.9199219 L 10.855469 9.8046875 L 11.134766 9.6445312 L 11.384766 9.4414062 L 11.597656 9.2011719 L 11.769531 8.9277344 L 11.894531 8.6328125 L 11.972656 8.3203125 L 11.998047 7.9980469 L 11.998047 7.9960938 L 11.972656 7.6757812 L 11.894531 7.3632812 L 11.769531 7.0664062 L 11.597656 6.7949219 L 11.384766 6.5546875 L 11.134766 6.3476562 L 10.855469 6.1875 L 10.554688 6.0742188 L 10.238281 6.0078125 L 9.9160156 5.9941406 z M 9.9980469 6.9941406 L 10.21875 7.0214844 L 10.431641 7.0957031 L 10.621094 7.2148438 L 10.78125 7.3730469 L 10.900391 7.5605469 L 10.972656 7.7734375 L 10.998047 7.9960938 L 10.972656 8.2167969 L 10.900391 8.4296875 L 10.78125 8.6191406 L 10.621094 8.7792969 L 10.431641 8.8984375 L 10.21875 8.9726562 L 9.9980469 8.9980469 L 9.7753906 8.9726562 L 9.5625 8.8984375 L 9.375 8.7792969 L 9.2167969 8.6191406 L 9.0976562 8.4296875 L 9.0234375 8.2167969 L 8.9980469 7.9960938 L 9.0234375 7.7734375 L 9.0976562 7.5605469 L 9.2167969 7.3730469 L 9.375 7.2148438 L 9.5625 7.0957031 L 9.7753906 7.0214844 L 9.9980469 6.9941406 z " style="fill:#222222; fill-opacity:1; stroke:none; stroke-width:0px;"/>
</g>
</svg>