<svg width="56" height="56" viewBox="0 0 56 56" fill="none" xmlns="http://www.w3.org/2000/svg">
<path d="M27.2471 8.64255C27.4543 7.87325 28.5457 7.87323 28.7529 8.64255L32.2834 21.7552C32.541 22.7118 33.2882 23.459 34.2448 23.7166L47.3575 27.2471C48.1268 27.4543 48.1268 28.5457 47.3574 28.7529L34.2448 32.2834C33.2882 32.541 32.541 33.2882 32.2834 34.2448L28.7529 47.3575C28.5457 48.1268 27.4543 48.1268 27.2471 47.3574L23.7166 34.2448C23.459 33.2882 22.7118 32.541 21.7552 32.2834L8.64255 28.7529C7.87325 28.5457 7.87323 27.4543 8.64255 27.2471L21.7552 23.7166C22.7118 23.459 23.459 22.7118 23.7166 21.7552L27.2471 8.64255Z" stroke="url(#paint0_linear_377_425)" stroke-width="2"/>
<defs>
<linearGradient id="paint0_linear_377_425" x1="50.9855" y1="-1.76812" x2="5.01449" y2="57.3913" gradientUnits="userSpaceOnUse">
<stop stop-color="#538BF0"/>
<stop offset="1" stop-color="#1141BD"/>
</linearGradient>
</defs>
</svg>
