<svg width="248" height="157" viewBox="0 0 248 157" fill="none" xmlns="http://www.w3.org/2000/svg">
<g clip-path="url(#clip0_377_64)">
<path d="M127 3.34084e-05C137.223 -0.0930464 147.447 -0.163923 157.67 -0.207215C162.419 -0.228004 167.167 -0.256159 171.915 -0.301724C176.506 -0.345497 181.096 -0.369169 185.687 -0.379476C187.43 -0.386811 189.173 -0.401134 190.916 -0.422887C205.127 -0.593054 216.395 1.09928 228 10C228.592 10.4164 229.183 10.8328 229.793 11.2618C239.317 18.5191 246.158 30.2817 248 42C249.651 59.1501 247.375 72.6183 236.332 86.3711C231.231 92.122 225.882 96.5592 219 100C218.34 100 217.68 100 217 100C231.75 127.452 231.75 127.452 248 154C248 154.99 248 155.98 248 157C237.77 157 227.54 157 217 157C215.639 154.525 214.278 152.05 212.875 149.5C207.642 140.045 202.197 130.72 196.738 121.395C192.803 114.672 188.897 107.933 185 101.188C184.389 100.133 183.779 99.0786 183.15 97.9922C179.333 91.3808 175.623 84.7194 172 78C172.771 77.9854 173.542 77.9709 174.336 77.9558C177.87 77.8808 181.404 77.7843 184.938 77.6875C186.15 77.665 187.362 77.6424 188.611 77.6192C198.822 77.3148 206.736 76.178 214.27 68.9297C219.939 62.6073 220.663 56.7693 220.375 48.3399C219.5 40.5497 215.933 36.4337 210.098 31.4453C205.766 28.4609 202.27 27.7631 197.055 28.062C195.879 28.1196 194.704 28.1772 193.492 28.2366C192.228 28.3003 190.963 28.3641 189.66 28.4297C186.258 28.527 182.857 28.6115 179.454 28.6881C175.912 28.7751 172.381 28.9043 168.844 29.128C149.999 30.2782 149.999 30.2782 142 27C134.136 20.0039 130.262 9.78474 127 3.34084e-05ZM137 5.00003C138.427 8.79053 140.162 12.2713 142.125 15.8125C142.664 16.7884 143.203 17.7642 143.758 18.7696C144.168 19.5056 144.578 20.2417 145 21C146.06 21.0055 146.06 21.0055 147.141 21.0111C153.835 21.0491 160.528 21.1061 167.22 21.1839C170.661 21.2233 174.1 21.2555 177.541 21.271C181.505 21.2892 185.469 21.3392 189.434 21.3907C190.656 21.3919 191.878 21.3931 193.137 21.3944C200.334 21.5167 205.714 22.4495 212 26C213.052 26.5569 214.104 27.1138 215.188 27.6875C221.544 32.9141 225.5 40.0949 226.336 48.2969C226.451 58.4998 224.942 66.8604 217.746 74.4688C207.54 83.4187 194.921 83.3083 182 83C185.864 90.9466 189.998 98.6483 194.5 106.25C195.728 108.338 196.956 110.427 198.184 112.516C198.81 113.578 199.436 114.641 200.082 115.736C202.013 119.022 203.932 122.314 205.848 125.609C206.782 127.216 206.782 127.216 207.734 128.855C208.921 130.897 210.107 132.939 211.293 134.981C212.363 136.82 213.444 138.653 214.535 140.479C215.479 142.103 216.373 143.758 217.201 145.443C218.32 147.596 219.278 149.291 221 151C224.004 151.936 226.705 151.771 229.812 151.5C230.601 151.464 231.389 151.428 232.201 151.391C234.136 151.297 236.069 151.153 238 151C236.6 146.18 234.473 142.13 231.875 137.875C226.953 129.666 222.181 121.376 217.438 113.063C216.715 111.799 215.993 110.535 215.271 109.271C210.147 100.293 210.147 100.293 209 98C209.75 97.6713 210.5 97.3426 211.273 97.0039C225.648 90.3237 235.269 80.5448 241.031 65.8242C245.088 53.9972 243.112 42.0905 238 31C231.871 18.9833 222.496 11.6596 210 7.00003C201.808 4.71885 193.686 4.73766 185.242 4.80472C183.844 4.80846 182.446 4.8113 181.048 4.8133C177.401 4.82086 173.755 4.84045 170.109 4.8627C166.375 4.88331 162.641 4.89233 158.906 4.90238C151.604 4.9237 144.302 4.95776 137 5.00003Z" fill="#508AF1"/>
<path d="M22 0C30.91 0 39.82 0 49 0C49.1583 12.2483 49.2867 24.4958 49.3627 36.7449C49.3992 42.433 49.4486 48.1204 49.5281 53.8081C49.6043 59.3 49.646 64.7913 49.6641 70.2837C49.677 72.3761 49.7023 74.4685 49.7401 76.5605C49.7911 79.4982 49.7979 82.433 49.7947 85.3711C49.8198 86.2307 49.845 87.0902 49.8709 87.9758C49.7987 94.0554 47.9765 97.0225 43.7392 101.338C43.1653 101.887 42.5913 102.435 42 103C41.203 103.845 40.4059 104.69 39.5847 105.561C37.2908 107.879 34.9927 110.193 32.6875 112.5C31.4722 113.734 31.4722 113.734 30.2324 114.992C29.0713 116.156 29.0713 116.156 27.8867 117.344C26.8381 118.399 26.8381 118.399 25.7683 119.475C24 121 24 121 22 121C22 81.07 22 41.14 22 0ZM28 5C28 38.66 28 72.32 28 107C30.31 105.02 32.62 103.04 35 101C36.191 100.192 36.191 100.192 37.4061 99.3683C40.4534 97.076 42.5761 94.8999 43.4294 91.0758C44.1414 85.0593 43.9164 79.013 43.7812 72.9688C43.7663 71.0072 43.7549 69.0457 43.7469 67.0841C43.7165 61.941 43.638 56.7997 43.5493 51.6572C43.4672 46.4019 43.4309 41.1464 43.3906 35.8906C43.305 25.5929 43.1686 15.2966 43 5C38.05 5 33.1 5 28 5Z" fill="#4577EC"/>
<path d="M54.9114 129.432C55.6924 129.432 56.4734 129.431 57.2781 129.43C59.8489 129.434 62.4178 129.472 64.9883 129.512C66.7747 129.521 68.5612 129.528 70.3477 129.533C75.0416 129.552 79.7347 129.601 84.4283 129.657C89.221 129.708 94.0138 129.731 98.8066 129.756C108.205 129.809 117.602 129.897 127 130C127 138.91 127 147.82 127 157C92.35 157 57.7 157 22 157C28.664 149.225 28.664 149.225 31.4375 146.563C34.5434 143.511 37.4064 140.308 40.2266 136.992C40.8118 136.335 41.397 135.677 42 135C42.6984 134.146 43.3968 133.291 44.1164 132.411C47.732 129.388 50.4078 129.321 54.9114 129.432ZM37.7837 146.871C35.9175 149.544 35.9175 149.544 36 151C64.05 151 92.1 151 121 151C121 146.05 121 141.1 121 136C111.985 135.682 102.973 135.426 93.9536 135.275C89.7638 135.202 85.5781 135.104 81.3906 134.944C56.6664 133.106 56.6664 133.106 37.7837 146.871Z" fill="#5492F4"/>
</g>
<defs>
<clipPath id="clip0_377_64">
<rect width="248" height="157" fill="white"/>
</clipPath>
</defs>
</svg>
