<svg width="724" height="143" viewBox="0 0 724 143" fill="none" xmlns="http://www.w3.org/2000/svg">
<g clip-path="url(#clip0_137_32)">
<path d="M30.1067 0.595947C31.0979 0.589084 32.0891 0.582221 33.1103 0.57515C36.3731 0.556912 39.6354 0.560715 42.8982 0.566406C45.1759 0.561843 47.4537 0.556537 49.7314 0.550522C54.5009 0.541596 59.2703 0.544007 64.0398 0.553955C70.1383 0.565438 76.2363 0.54524 82.3347 0.516038C87.0377 0.497651 91.7406 0.497974 96.4437 0.503675C98.6915 0.503828 100.939 0.497807 103.187 0.485384C106.336 0.47043 109.485 0.481184 112.634 0.498291C113.554 0.488623 114.474 0.478955 115.421 0.468994C123.173 0.556731 128.81 2.91436 135.25 7.125C141.82 13.9934 143.748 21.3251 143.647 30.6152C143.656 31.6248 143.664 32.6343 143.673 33.6744C143.695 36.9813 143.681 40.2868 143.664 43.5938C143.667 45.9096 143.672 48.2255 143.678 50.5414C143.686 55.3831 143.675 60.2243 143.652 65.0659C143.623 71.253 143.64 77.4389 143.669 83.6259C143.688 88.4045 143.682 93.1829 143.669 97.9615C143.666 100.242 143.67 102.522 143.681 104.803C143.694 107.997 143.674 111.19 143.647 114.385C143.657 115.315 143.667 116.245 143.677 117.203C143.557 124.73 141.392 131.352 136.186 136.951C129.8 142.818 123.946 143.301 115.553 143.306C114.502 143.315 113.451 143.323 112.368 143.332C108.895 143.356 105.422 143.364 101.949 143.371C99.5315 143.38 97.114 143.389 94.6965 143.398C89.6284 143.415 84.5604 143.423 79.4922 143.426C73.0056 143.431 66.5197 143.469 60.0333 143.514C55.0395 143.544 50.0458 143.551 45.0519 143.552C42.661 143.556 40.27 143.569 37.8792 143.59C34.5305 143.617 31.1832 143.612 27.8345 143.599C26.3606 143.622 26.3606 143.622 24.8569 143.644C17.2394 143.564 12.5591 141.243 6.97635 136.156C6.53033 135.61 6.08432 135.063 5.62479 134.5C5.1633 133.953 4.70182 133.407 4.22635 132.844C0.545782 127.311 0.697759 122.083 0.69339 115.645C0.685066 114.604 0.676743 113.563 0.668167 112.49C0.644081 109.049 0.635297 105.609 0.628693 102.168C0.619725 99.7729 0.610603 97.3778 0.601334 94.9827C0.584845 89.9617 0.577144 84.9407 0.574249 79.9197C0.568866 73.4936 0.531185 67.0682 0.485504 60.6423C0.455726 55.6949 0.448526 50.7475 0.447523 45.8C0.443322 43.4314 0.430894 41.0627 0.410006 38.6942C0.383077 35.3766 0.387922 32.0605 0.400421 28.7429C0.385587 27.7697 0.370753 26.7964 0.355469 25.7936C0.436458 18.2245 2.78577 13.6034 7.77322 8.01172C8.566 7.35623 8.566 7.35623 9.37479 6.6875C9.89815 6.23762 10.4215 5.78773 10.9607 5.32422C17.3486 1.17574 22.6465 0.559595 30.1067 0.595947ZM39.9998 33C39.9998 59.73 39.9998 86.46 39.9998 114C50.797 114.093 50.797 114.093 61.8123 114.188C65.186 114.228 65.186 114.228 68.628 114.27C70.4459 114.279 72.2639 114.287 74.0818 114.293C74.9972 114.308 75.9125 114.324 76.8556 114.339C86.3856 114.343 95.3643 112.863 102.406 106.023C106.521 100.799 107.7 94.5316 107 88C105.327 80.5055 102.48 76.3203 95.9998 72C94.6798 72 93.3598 72 91.9998 72C91.9998 71.01 91.9998 70.02 91.9998 69C92.7217 68.7938 93.4435 68.5875 94.1873 68.375C97.9843 66.5187 99.4979 64.4053 102 61C103.879 55.3632 103.747 49.2416 101.875 43.625C97.3753 37.3258 92.3785 34.7557 84.9998 33C81.4156 32.6341 77.8769 32.6473 74.2771 32.707C72.9638 32.7116 72.9638 32.7116 71.6239 32.7162C68.3949 32.7317 65.1661 32.7736 61.9373 32.8125C51.0782 32.9053 51.0782 32.9053 39.9998 33Z" fill="#2DC7ED"/>
<path d="M174 32C181.384 31.9381 188.767 31.8763 196.375 31.8125C199.841 31.7715 199.841 31.7715 203.376 31.7297C205.238 31.721 207.099 31.7133 208.961 31.707C210.374 31.684 210.374 31.684 211.816 31.6605C219.818 31.6574 228.546 32.8744 235 38C240.183 44.911 240.615 50.5649 240 59C238.348 63.7834 235.703 66.5975 232 70C232.887 70.5156 233.774 71.0313 234.688 71.5625C238.808 74.3062 242.062 78.1459 243.621 82.8906C244.891 89.96 244.905 97.7725 241 104C235.423 110.671 227.76 114.298 219.171 115.345C216.247 115.458 213.351 115.452 210.426 115.391C209.493 115.387 208.561 115.383 207.6 115.378C204.171 115.358 200.742 115.302 197.312 115.25C189.619 115.168 181.926 115.085 174 115C174 87.61 174 60.22 174 32ZM194 48C194 53.61 194 59.22 194 65C197.23 65.0811 200.457 65.1406 203.688 65.1875C204.6 65.2126 205.512 65.2378 206.451 65.2637C213.226 65.3432 213.226 65.3432 219 62C221.345 59.1149 221.345 59.1149 220.875 55.5C220.318 51.9964 220.318 51.9964 218.125 50.125C214.819 48.3749 212.231 47.8776 208.551 47.9023C207.703 47.9056 206.856 47.9088 205.982 47.9121C205.101 47.9205 204.22 47.9289 203.312 47.9375C201.973 47.9443 201.973 47.9443 200.607 47.9512C198.405 47.963 196.202 47.9809 194 48ZM194 79C194 85.6 194 92.2 194 99C197.73 99.081 201.457 99.1405 205.188 99.1875C206.77 99.2252 206.77 99.2252 208.385 99.2637C209.406 99.2733 210.428 99.283 211.48 99.293C212.418 99.3087 213.355 99.3244 214.321 99.3406C217.558 98.9291 219.38 97.9184 222 96C224.484 92.2742 224.38 90.4129 224 86C222.658 82.8224 221.826 81.4071 218.718 79.8755C215.866 78.9569 213.685 78.7698 210.699 78.8047C209.723 78.8111 208.746 78.8176 207.74 78.8242C206.229 78.8494 206.229 78.8494 204.688 78.875C203.147 78.8885 203.147 78.8885 201.576 78.9024C199.051 78.9258 196.525 78.9617 194 79Z" fill="#FAFAFA"/>
<path d="M711 56.6875C718.335 62.3417 722.498 68.7896 724 78C724.695 88.9541 724.196 99.2042 717 108C711.413 113.937 705.509 116.525 697.437 117.375C691.238 116.699 686.982 114.737 682 111C681.67 119.25 681.34 127.5 681 136C678.051 136.021 675.101 136.041 672.062 136.062C670.666 136.076 670.666 136.076 669.242 136.09C668.15 136.094 668.15 136.094 667.035 136.098C666.286 136.103 665.537 136.108 664.766 136.114C663 136 663 136 662 135C661.9 132.51 661.864 130.049 661.87 127.559C661.869 126.78 661.867 126.001 661.865 125.199C661.861 122.611 661.864 120.025 661.867 117.438C661.866 115.648 661.865 113.858 661.864 112.068C661.863 108.312 661.865 104.556 661.87 100.8C661.875 95.974 661.872 91.1482 661.866 86.3224C661.862 82.6251 661.863 78.9278 661.866 75.2305C661.867 73.4506 661.866 71.6707 661.864 69.8908C661.861 67.4077 661.865 64.9246 661.87 62.4414C661.868 61.6985 661.866 60.9556 661.864 60.1902C661.886 55.1143 661.886 55.1143 663 54C665.696 53.9268 668.367 53.9076 671.062 53.9375C671.821 53.942 672.58 53.9465 673.361 53.9512C675.241 53.963 677.12 53.9809 679 54C679.66 55.32 680.32 56.64 681 58C681.907 57.3606 682.815 56.7212 683.75 56.0625C692.084 50.7734 702.662 51.9977 711 56.6875ZM683.312 71.75C679.945 77.5223 679.024 83.8047 680.535 90.3008C681.884 94.8037 683.171 98.0359 687 101C690.196 102.598 693.523 102.368 697 102C701.263 100.2 702.914 98.0573 705 94C706.658 85.9322 706.725 78.1783 702.125 71.125C699.109 68.1091 697.311 67.1395 693.062 66.6875C688.75 67.1275 686.294 68.6575 683.312 71.75Z" fill="#FAFAFA"/>
<path d="M645 59C648.909 62.7617 649.475 65.5495 649.58 70.7392C649.578 71.6038 649.576 72.4685 649.574 73.3593C649.589 74.2631 649.603 75.167 649.617 76.0982C649.659 78.9822 649.674 81.8656 649.688 84.75C649.717 87.6197 649.752 90.4893 649.79 93.3589C649.812 95.1409 649.828 96.9229 649.837 98.705C649.884 104.205 650.313 109.541 651 115C648.041 115.081 645.085 115.14 642.125 115.187C641.283 115.213 640.442 115.238 639.574 115.264C638.769 115.273 637.963 115.283 637.133 115.293C636.389 115.309 635.646 115.324 634.88 115.341C633.949 115.172 633.949 115.172 633 115C632.34 114.01 631.68 113.02 631 112C630.041 112.681 630.041 112.681 629.063 113.375C621.522 117.376 613.252 117.929 605 116C599.445 114.227 596.072 110.894 593 106C591.234 100.67 591.512 95.5987 593.125 90.3125C596.174 84.9261 600.088 81.9521 606 80C609.994 79.2292 614.024 78.7057 618.051 78.1445C622.299 77.5223 626.081 76.8631 630 75C630 73.02 630 71.04 630 69C626.19 66.46 622.408 66.5828 618 67C615.595 67.4509 615.595 67.4509 614 69C613.34 70.98 612.68 72.96 612 75C606.06 75 600.12 75 594 75C594.766 64.7396 594.766 64.7396 598 61C610.451 50.8571 631.952 48.3792 645 59ZM621 89.3125C619.763 89.5561 618.525 89.7997 617.25 90.0507C614.138 90.9597 612.792 91.357 611 94C610.334 97.5 610.334 97.5 611 101C613.756 103.589 615.701 103.962 619.438 104.437C624.253 103.846 627.361 102.086 630.375 98.25C631.333 94.8006 631.119 91.5725 631 88C627.51 88 624.422 88.6174 621 89.3125Z" fill="#FAFAFA"/>
<path d="M376.188 58.625C383.104 64.216 387.051 71.1777 388 80C388.821 90.2836 386.398 98.2855 381 107C380.34 107 379.68 107 379 107C379 107.66 379 108.32 379 109C371.058 115.102 362.035 118.141 352 117C342.238 115.296 335.434 111.743 329.625 103.625C324.408 95.0902 323.545 85.1381 325.535 75.375C328.089 67.1151 332.885 60.883 340 56C351.522 50.4065 365.686 51.4915 376.188 58.625ZM345.356 73.1211C343.584 76.8831 343.524 80.3009 343.563 84.375C343.543 85.1046 343.523 85.8342 343.502 86.5859C343.507 92.1492 344.738 95.4708 348 100C351.381 102.412 354.692 102.476 358.746 102.383C362.697 101.712 364.317 99.9453 367 97C369.143 92.8467 369.299 89.1982 369.313 84.5625C369.329 83.285 369.346 82.0075 369.363 80.6914C368.836 75.3349 367.317 72.1371 363.25 68.625C356.072 65.0358 350.232 66.832 345.356 73.1211Z" fill="#FAFAFA"/>
<path d="M302.117 57.2188C308.931 61.8472 313.584 67.9648 315.375 76.0626C317.018 86.9263 315.828 96.358 309.82 105.703C303.857 113.228 295.127 116.057 285.875 117.281C276.709 117.725 267.8 113.98 261 108C254.041 99.9536 252.487 91.7088 252.691 81.3126C253.537 72.2344 257.204 65.0523 264 59.0001C274.95 50.8668 290.435 50.4942 302.117 57.2188ZM273.188 73.1251C270.218 80.3143 270.55 87.7065 273 95.0001C274.8 98.8443 276.119 100.395 280 102C283.752 102.648 287.399 102.819 290.848 101.055C294.185 98.4474 295.776 95.9728 297 92.0001C297.354 88.3925 297.354 88.3925 297.313 84.5626C297.329 83.2851 297.346 82.0076 297.363 80.6915C296.836 75.335 295.317 72.1372 291.25 68.6251C283.886 64.9429 278.376 67.0415 273.188 73.1251Z" fill="#FAFAFA"/>
<path d="M484 56C486.938 58.4375 486.938 58.4375 489 61C489.866 61.8662 489.866 61.8662 490.75 62.75C492.743 66.3374 492.701 69.9319 493 74C487.39 74 481.78 74 476 74C475.01 72.02 474.02 70.04 473 68C470.356 67.1185 468.719 66.8382 466 66.8125C464.979 66.7912 464.979 66.7912 463.938 66.7695C461.674 66.8906 461.674 66.8906 459 69C459 70.32 459 71.64 459 73C460.521 73.4173 462.042 73.8338 463.562 74.25C464.559 74.5258 465.555 74.8017 466.582 75.0859C468.987 75.7291 471.403 76.3352 473.824 76.914C488.858 80.54 488.858 80.54 493.938 87.75C495.792 93.4211 495.609 98.0782 493.812 103.75C490.007 110.573 485.158 113.448 478 116C467.786 118.553 456.758 117.085 447.5 112.125C443.861 109.032 440.61 105.56 439 101C439 98.69 439 96.38 439 94C444.61 94 450.22 94 456 94C456.66 96.31 457.32 98.62 458 101C462.241 103.482 466.229 103.063 470.949 102.582C473.407 101.885 474.432 100.993 476 99C476.313 96.9094 476.313 96.9094 475 95C470.112 92.6026 465.357 91.2781 460.062 90.125C452.334 88.3001 446.873 86.16 441.5 80.25C439.213 75.2953 439.077 71.0463 440.66 65.8203C442.899 60.6837 445.976 57.4718 451 55C460.963 51.2091 474.374 51.3883 484 56Z" fill="#FAFAFA"/>
<path d="M403 37C405.979 36.9732 408.958 36.9532 411.938 36.9375C413.213 36.9249 413.213 36.9249 414.514 36.9121C415.323 36.9089 416.131 36.9057 416.965 36.9023C417.714 36.8971 418.463 36.8919 419.234 36.8865C421 37 421 37 422 38C422.073 40.5305 422.092 43.033 422.062 45.5625C422.058 46.2734 422.053 46.9843 422.049 47.7168C422.037 49.4779 422.019 51.239 422 53C425.63 53.33 429.26 53.66 433 54C433.027 56.1458 433.046 58.2916 433.062 60.4375C433.074 61.6325 433.086 62.8274 433.098 64.0586C433 67 433 67 432 68C428.7 68.33 425.4 68.66 422 69C422 79.23 422 89.46 422 100C425.63 100 429.26 100 433 100C433 104.95 433 109.9 433 115C425.293 116.927 417.503 116.587 410 114C406.52 111.73 404.421 109.897 403 106C402.831 103.065 402.767 100.229 402.805 97.2969C402.808 96.4591 402.81 95.6213 402.813 94.7581C402.824 92.0886 402.85 89.4194 402.875 86.75C402.885 84.9375 402.894 83.125 402.902 81.3125C402.924 76.8749 402.959 72.4375 403 68C402.362 68.0116 401.724 68.0232 401.066 68.0352C399.827 68.0487 399.827 68.0487 398.562 68.0625C397.327 68.0799 397.327 68.0799 396.066 68.0977C394 68 394 68 393 67C392.901 65.002 392.87 63.0004 392.875 61C392.872 59.9069 392.87 58.8138 392.867 57.6875C393 55 393 55 394 54C397.003 53.8581 399.992 53.9576 403 54C403 48.39 403 42.78 403 37Z" fill="#FAFAFA"/>
<path d="M510 37C515.94 37 521.88 37 528 37C528 42.61 528 48.22 528 54C530.692 53.9691 530.692 53.9691 533.438 53.9375C535.292 53.9162 537.147 53.9277 539 54C540 55 540 55 540.133 57.6875C540.13 58.7806 540.128 59.8737 540.125 61C540.129 62.6397 540.129 62.6397 540.133 64.3125C540 67 540 67 539 68C535.37 68 531.74 68 528 68C528 78.56 528 89.12 528 100C531.63 100 535.26 100 539 100C540 101 540 101 540.098 103.941C540.086 105.136 540.074 106.331 540.062 107.562C540.053 108.76 540.044 109.958 540.035 111.191C540.024 112.118 540.012 113.045 540 114C532.903 117.171 525.439 116.595 517.98 114.773C514.89 113.566 513.071 111.524 511 109C510.67 108.67 510.34 108.34 510 108C509.911 105.043 509.885 102.109 509.902 99.1523C509.904 98.2659 509.905 97.3795 509.907 96.4662C509.912 93.6233 509.925 90.7804 509.938 87.9375C509.943 86.015 509.947 84.0924 509.951 82.1699C509.962 77.4466 509.979 72.7233 510 68C506.7 68 503.4 68 500 68C500 63.38 500 58.76 500 54C503.3 54 506.6 54 510 54C510 48.39 510 42.78 510 37Z" fill="#FAFAFA"/>
<path d="M587 53C587 58.94 587 64.88 587 71C585.474 70.9381 583.947 70.8762 582.375 70.8125C577.826 70.8254 574.806 71.3078 571 74C567.136 79.1964 566.839 84.0852 566.684 90.3906C566.663 91.0952 566.642 91.7999 566.621 92.5258C566.555 94.7671 566.496 97.0085 566.438 99.25C566.394 100.773 566.351 102.297 566.307 103.82C566.199 107.547 566.1 111.273 566 115C560.06 115 554.12 115 548 115C548 94.87 548 74.74 548 54C553.61 54 559.22 54 565 54C566 55 566 55 566.062 58.0625C566.042 59.0319 566.021 60.0013 566 61C566.671 60.3851 566.671 60.3851 567.355 59.7578C574.304 53.5651 577.037 53 587 53Z" fill="#FAFAFA"/>
<path d="M53 77C57.4663 76.931 61.9308 76.8713 66.3972 76.8352C67.9152 76.8202 69.4331 76.7997 70.9509 76.7737C73.138 76.7371 75.3244 76.7202 77.5117 76.707C78.8262 76.6913 80.1406 76.6756 81.4949 76.6594C86.4253 77.1385 89.8414 79.2096 93 83C94.6926 88.0777 94.6125 92.3769 92.75 97.3125C90.6911 100.474 88.9156 102.358 85.3057 103.568C82.1932 104.151 79.2131 104.111 76.0469 104.098C75.3867 104.096 74.7264 104.095 74.0462 104.093C71.9474 104.088 69.8487 104.075 67.75 104.062C66.3229 104.057 64.8958 104.053 63.4688 104.049C59.9791 104.039 56.4897 104.019 53 104C53 95.09 53 86.18 53 77Z" fill="#2DC7ED"/>
<path d="M53 44C57.3244 43.9079 61.6454 43.8284 65.97 43.7803C67.4395 43.7602 68.9089 43.733 70.3782 43.6982C72.4958 43.6495 74.6124 43.627 76.7305 43.6094C78.003 43.5884 79.2756 43.5675 80.5867 43.5459C84.5773 44.0768 86.1792 45.1893 89 48C90.9806 51.9611 90.554 56.6928 90 61C87.2042 64.9141 84.498 66.5285 80 68C76.9539 68.2271 76.9539 68.2271 73.6055 68.1953C72.4034 68.1889 71.2014 68.1824 69.9629 68.1758C68.717 68.159 67.4711 68.1423 66.1875 68.125C64.2897 68.1115 64.2897 68.1115 62.3535 68.0977C59.2356 68.0741 56.1178 68.0383 53 68C53 60.08 53 52.16 53 44Z" fill="#2DC7ED"/>
</g>
<defs>
<clipPath id="clip0_137_32">
<rect width="724" height="143" fill="white"/>
</clipPath>
</defs>
</svg>
