<svg width="161" height="56" viewBox="0 0 161 56" fill="none" xmlns="http://www.w3.org/2000/svg">
<g clip-path="url(#clip0_137_773)">
<mask id="mask0_137_773" style="mask-type:luminance" maskUnits="userSpaceOnUse" x="0" y="0" width="161" height="56">
<path d="M161 0H0V56H161V0Z" fill="white"/>
</mask>
<g mask="url(#mask0_137_773)">
<path d="M86.8 16.4286H91.2C93.84 16.4286 95.6 18.6427 95.6 20.8571H100C100 15.9856 96.0399 12 91.2 12H86.8C81.9601 12 78 15.9856 78 20.8571C78 25.7285 81.9601 29.7143 86.8 29.7143H91.2C93.84 29.7143 95.6 31.4857 95.6 34.1429C95.6 36.8 93.84 38.5714 91.2 38.5714H86.8C84.16 38.5714 82.4 36.3573 82.4 34.1429H78C78 39.0142 81.9601 43 86.8 43H91.2C96.0399 43 100 39.0142 100 34.1429C100 29.2715 96.0399 25.2857 91.2 25.2857H86.8C84.16 25.2857 82.4 23.5143 82.4 20.8571C82.4 18.2 84.16 16.4286 86.8 16.4286Z" fill="#FAFAFA"/>
<path d="M60.8 16.4286H65.2C67.84 16.4286 69.6 18.6427 69.6 20.8571H74C74 15.9856 70.0399 12 65.2 12H60.8C55.9599 12 52 15.9856 52 20.8571C52 25.7285 55.9599 29.7143 60.8 29.7143H65.2C67.84 29.7143 69.6 31.4857 69.6 34.1429C69.6 36.8 67.84 38.5714 65.2 38.5714H60.8C58.16 38.5714 56.4 36.3573 56.4 34.1429H52C52 39.0142 55.9599 43 60.8 43H65.2C70.0399 43 74 39.0142 74 34.1429C74 29.2715 70.0399 25.2857 65.2 25.2857H60.8C58.16 25.2857 56.4 23.5143 56.4 20.8571C56.4 18.2 58.16 16.4286 60.8 16.4286Z" fill="#FAFAFA"/>
<path d="M34.8 16.4286H39.2C41.84 16.4286 43.6 18.2 43.6 20.8571H48C48 15.9856 44.0401 12 39.2 12H34.8C29.9599 12 26 15.9856 26 20.8571V34.1429C26 39.0142 29.9599 43 34.8 43H39.2C44.0401 43 48 39.0142 48 34.1429H43.6C43.6 36.8 41.84 38.5714 39.2 38.5714H34.8C32.16 38.5714 30.4 36.8 30.4 34.1429V20.8571C30.4 18.2 32.16 16.4286 34.8 16.4286Z" fill="#FAFAFA"/>
<path d="M107 5C120.53 5 134.06 5 148 5C147.286 12.8526 146.571 20.7051 145.849 28.5569C145.818 28.8955 145.787 29.234 145.755 29.5726C145.748 29.6567 145.74 29.7407 145.732 29.8273C145.604 31.2172 145.477 32.6072 145.35 33.9972C145.217 35.4472 145.084 36.8971 144.95 38.3469C144.869 39.2309 144.788 40.115 144.707 40.999C144.653 41.5974 144.598 42.1958 144.542 42.7941C144.51 43.1381 144.479 43.4822 144.447 43.8263C144.414 44.1985 144.379 44.5707 144.344 44.9429C144.33 45.1057 144.33 45.1057 144.315 45.2718C144.306 45.3714 144.296 45.4709 144.287 45.5735C144.279 45.6592 144.271 45.7448 144.263 45.8331C144.219 46.1139 144.154 46.3583 144.044 46.6206C143.812 46.7311 143.629 46.7945 143.383 46.8539C143.314 46.8724 143.245 46.891 143.174 46.9102C142.943 46.972 142.711 47.0304 142.478 47.089C142.313 47.1326 142.147 47.1763 141.982 47.2203C141.533 47.3391 141.083 47.4551 140.633 47.5706C140.163 47.6917 139.694 47.8152 139.225 47.9386C138.641 48.092 138.057 48.2453 137.473 48.3975C136.197 48.7303 134.924 49.0717 133.653 49.421C133.374 49.4978 133.094 49.5745 132.814 49.651C131.746 49.9436 131.746 49.9436 130.677 50.2383C130.264 50.3528 129.851 50.466 129.437 50.5784C129.285 50.6197 129.134 50.6614 128.983 50.7037C128.777 50.7614 128.57 50.8175 128.363 50.8732C128.304 50.8901 128.245 50.9071 128.184 50.9246C127.505 51.103 126.889 50.9319 126.233 50.7518C126.128 50.7238 126.128 50.7238 126.022 50.6952C125.791 50.6332 125.56 50.5705 125.33 50.5078C125.164 50.4631 124.998 50.4185 124.833 50.3739C124.385 50.2534 123.938 50.1323 123.491 50.011C122.738 49.8067 121.985 49.6029 121.232 49.399C121.038 49.3465 120.844 49.294 120.65 49.2414C119.31 48.878 117.968 48.521 116.624 48.1695C116.092 48.03 115.561 47.8894 115.029 47.7487C114.606 47.6369 114.183 47.5259 113.759 47.4168C113.363 47.3147 112.967 47.2105 112.571 47.1046C112.426 47.0663 112.281 47.0288 112.136 46.9921C111.938 46.9421 111.742 46.8894 111.545 46.8359C111.38 46.7928 111.38 46.7928 111.212 46.7488C110.956 46.6206 110.956 46.6206 110.855 46.3869C110.768 46.0507 110.725 45.7214 110.695 45.3766C110.689 45.307 110.682 45.2373 110.675 45.1656C110.653 44.9321 110.632 44.6984 110.611 44.4648C110.596 44.2957 110.58 44.1267 110.564 43.9577C110.521 43.4929 110.478 43.0281 110.436 42.5633C110.39 42.0622 110.344 41.5611 110.298 41.06C110.207 40.0783 110.117 39.0966 110.027 38.1149C109.922 36.9725 109.817 35.8302 109.712 34.6878C109.524 32.6504 109.336 30.6129 109.149 28.5754C108.968 26.5965 108.786 24.6176 108.604 22.6387C108.595 22.5472 108.595 22.5472 108.587 22.4539C108.536 21.9023 108.485 21.3507 108.434 20.7991C108.229 18.5746 108.024 16.3501 107.82 14.1256C107.809 14.0124 107.799 13.8992 107.788 13.7826C107.658 12.3691 107.528 10.9557 107.399 9.54223C107.362 9.14772 107.326 8.75322 107.29 8.35872C107.248 7.90574 107.207 7.45275 107.165 6.99976C107.15 6.83523 107.135 6.6707 107.12 6.50617C107.099 6.28385 107.079 6.06151 107.058 5.83918C107.052 5.77418 107.046 5.70919 107.04 5.64222C107 5.20031 107 5.20031 107 5ZM114.643 13.5399C114.746 15.1945 114.971 16.8396 115.182 18.484C121.546 18.5285 121.546 18.5285 128.039 18.5739C126.675 19.1375 125.31 19.7011 123.904 20.2819C122.841 20.7219 121.778 21.162 120.715 21.6032C120.358 21.7518 120 21.9002 119.641 22.0485C119.141 22.2558 118.64 22.4635 118.139 22.6714C117.945 22.7522 117.75 22.8329 117.555 22.9135C117.284 23.0257 117.013 23.1382 116.742 23.2508C116.661 23.2843 116.58 23.3179 116.496 23.3524C116.384 23.3991 116.384 23.3991 116.27 23.4467C116.205 23.4736 116.14 23.5006 116.073 23.5283C115.879 23.6132 115.879 23.6132 115.632 23.7877C115.681 24.4518 115.73 25.1159 115.78 25.7799C115.797 26.006 115.814 26.2321 115.831 26.4582C115.855 26.7825 115.879 27.1066 115.904 27.4308C115.911 27.5326 115.919 27.6344 115.926 27.7393C115.933 27.8328 115.941 27.9264 115.948 28.0228C115.954 28.1057 115.96 28.1885 115.967 28.2739C115.972 28.4608 115.972 28.4608 116.081 28.552C116.302 28.5633 116.52 28.5688 116.741 28.5705C116.811 28.5714 116.881 28.5723 116.953 28.5732C117.189 28.5761 117.426 28.5783 117.662 28.5805C117.831 28.5823 118 28.5842 118.169 28.5862C118.63 28.5912 119.091 28.5956 119.552 28.5999C119.84 28.6026 120.127 28.6055 120.415 28.6084C124.845 28.6528 129.274 28.6514 133.704 28.6419C133.69 28.7033 133.676 28.7647 133.662 28.8279C133.608 29.1238 133.588 29.4116 133.571 29.7118C133.566 29.8026 133.566 29.8026 133.56 29.8953C133.549 30.0942 133.538 30.2932 133.527 30.4921C133.519 30.6305 133.511 30.769 133.503 30.9074C133.482 31.2708 133.462 31.6342 133.441 31.9976C133.42 32.3688 133.399 32.7399 133.378 33.1111C133.336 33.8387 133.295 34.5664 133.254 35.294C133.161 35.3061 133.067 35.3182 132.971 35.3306C132.679 35.3756 132.412 35.4348 132.129 35.5179C131.99 35.5584 131.99 35.5584 131.848 35.5997C131.749 35.6287 131.651 35.6578 131.55 35.6877C131.338 35.7489 131.127 35.81 130.915 35.8711C130.584 35.9674 130.253 36.0639 129.922 36.1612C129.601 36.2552 129.28 36.348 128.959 36.4405C128.861 36.4697 128.763 36.4989 128.662 36.529C127.632 36.8237 126.906 36.7261 125.876 36.457C125.766 36.4291 125.656 36.4012 125.542 36.3724C125.252 36.2986 124.962 36.224 124.671 36.1489C124.26 36.0429 123.849 35.9384 123.438 35.8338C123.219 35.7781 123.001 35.722 122.783 35.6657C122.684 35.6405 122.586 35.6153 122.485 35.5893C122.399 35.567 122.312 35.5446 122.223 35.5216C122.022 35.4671 122.022 35.4671 121.836 35.4738C121.831 35.382 121.827 35.2903 121.822 35.1957C121.78 34.3603 121.724 33.5265 121.656 32.6927C121.648 32.5985 121.641 32.5043 121.633 32.4073C121.626 32.319 121.618 32.2307 121.611 32.1397C121.604 32.061 121.598 31.9823 121.591 31.9013C121.571 31.6836 121.571 31.6836 121.476 31.4286C119.814 31.4286 118.153 31.4286 116.441 31.4286C116.439 32.3155 116.439 32.3155 116.489 33.1921C116.497 33.282 116.497 33.282 116.504 33.3737C116.521 33.5671 116.538 33.7604 116.556 33.9537C116.568 34.0902 116.579 34.2266 116.591 34.363C116.616 34.6468 116.641 34.9304 116.666 35.2141C116.699 35.5769 116.73 35.9398 116.762 36.3028C116.786 36.5836 116.811 36.8644 116.836 37.1451C116.847 37.279 116.859 37.4129 116.871 37.5467C116.887 37.7334 116.904 37.92 116.921 38.1067C116.93 38.2126 116.939 38.3186 116.949 38.4277C116.977 38.6763 117.016 38.9154 117.07 39.1594C118.358 39.5738 119.65 39.974 120.947 40.3583C121.12 40.4095 121.293 40.4608 121.465 40.5121C121.823 40.6182 122.181 40.724 122.538 40.8298C122.995 40.965 123.452 41.1009 123.909 41.2369C124.264 41.3425 124.619 41.4476 124.974 41.5525C125.143 41.6024 125.311 41.6525 125.48 41.7028C125.714 41.7728 125.949 41.8421 126.184 41.9111C126.252 41.9317 126.321 41.9522 126.391 41.9734C127.119 42.1858 127.699 42.2561 128.433 42.0311C128.54 42 128.54 42 128.65 41.9682C128.886 41.8996 129.121 41.8289 129.356 41.7583C129.523 41.7094 129.689 41.6606 129.856 41.6119C130.295 41.4832 130.734 41.3528 131.172 41.2221C131.61 41.0921 132.048 40.9636 132.485 40.8349C133.236 40.6142 133.986 40.3918 134.736 40.1686C135.223 40.024 135.711 39.8816 136.199 39.7409C136.315 39.7072 136.431 39.6735 136.547 39.6398C136.755 39.5797 136.963 39.52 137.171 39.4611C137.26 39.4353 137.348 39.4095 137.44 39.3829C137.554 39.3504 137.554 39.3504 137.67 39.3171C137.857 39.2642 137.857 39.2642 137.93 39.0695C137.953 38.8815 137.972 38.6928 137.988 38.5039C137.994 38.4452 137.999 38.3866 138.004 38.3261C138.022 38.1286 138.039 37.931 138.056 37.7334C138.068 37.5921 138.08 37.4508 138.093 37.3095C138.127 36.9249 138.16 36.5402 138.193 36.1555C138.228 35.7528 138.263 35.3502 138.298 34.9476C138.357 34.2708 138.416 33.5939 138.474 32.917C138.542 32.1355 138.61 31.354 138.678 30.5726C138.744 29.8205 138.809 29.0684 138.875 28.3163C138.902 27.9965 138.93 27.6768 138.958 27.3571C138.991 26.9797 139.024 26.6023 139.056 26.2249C139.068 26.0868 139.08 25.9487 139.092 25.8106C139.109 25.6212 139.125 25.4317 139.141 25.2423C139.155 25.0836 139.155 25.0836 139.169 24.9218C139.192 24.5444 139.189 24.1658 139.189 23.7877C133.403 23.7432 133.403 23.7432 127.5 23.6978C132.265 21.6303 132.265 21.6303 134.024 20.8886C134.289 20.7762 134.554 20.6638 134.827 20.548C135.376 20.3155 135.929 20.0942 136.485 19.878C136.855 19.7332 137.223 19.5843 137.592 19.4348C137.77 19.3635 137.95 19.294 138.13 19.2264C138.38 19.1321 138.628 19.0319 138.875 18.9299C138.95 18.9037 139.025 18.8774 139.102 18.8503C139.346 18.7566 139.346 18.7566 139.638 18.484C139.873 16.8428 140.017 15.1898 140.178 13.5399C131.751 13.5399 123.324 13.5399 114.643 13.5399Z" fill="#2DC7ED"/>
</g>
</g>
<defs>
<clipPath id="clip0_137_773">
<rect width="161" height="56" fill="white"/>
</clipPath>
</defs>
</svg>
