<svg width="292" height="123" viewBox="0 0 292 123" fill="none" xmlns="http://www.w3.org/2000/svg">
<g clip-path="url(#clip0_137_161)">
<path d="M160.779 43.9243C155.199 43.9243 151.04 46.634 151.04 53.1504C151.04 58.0595 153.777 61.4709 160.478 61.4709C166.159 61.4709 170.018 58.1678 170.018 52.9476C170.018 47.0338 166.565 43.9243 160.779 43.9243ZM149.618 89.951C148.297 91.5524 146.98 93.2576 146.98 95.2645C146.98 99.2739 152.151 100.477 159.257 100.477C165.148 100.477 173.165 100.071 173.165 94.6666C173.165 91.4487 169.307 91.2506 164.433 90.9487L149.618 89.951ZM179.661 44.2261C181.484 46.5349 183.416 49.7436 183.416 54.3566C183.416 65.4814 174.587 72.0023 161.799 72.0023C158.547 72.0023 155.605 71.6014 153.777 71.0979L150.43 76.4126L160.373 77.0117C177.935 78.1177 188.285 78.6223 188.285 91.9522C188.285 103.483 178.035 110 160.373 110C142.005 110 135 105.387 135 97.465C135 92.9522 137.032 90.5524 140.585 87.2366C137.232 85.8414 136.121 83.3344 136.121 80.6247C136.121 78.4195 137.232 76.4126 139.063 74.5047C140.889 72.6014 142.917 70.697 145.355 68.4918C140.384 66.0839 136.626 60.8683 136.626 53.4476C136.626 41.9173 144.338 34 159.868 34C164.232 34 166.87 34.3963 169.207 35.0046H189V43.5233L179.662 44.2261" fill="#FAFAFA"/>
<mask id="mask0_137_161" style="mask-type:luminance" maskUnits="userSpaceOnUse" x="197" y="10" width="28" height="76">
<path d="M197 10H224.855V86H197V10Z" fill="white"/>
</mask>
<g mask="url(#mask0_137_161)">
<path d="M209.679 27.2602C204.151 27.2602 200.952 24.0624 200.952 18.5293C200.952 13.0061 204.151 9.9989 209.679 9.9989C215.305 9.9989 218.505 13.0073 218.505 18.5293C218.505 24.0613 215.306 27.2602 209.679 27.2602ZM197.169 85.5387V77.8775L202.114 77.2023C203.473 77.0073 203.667 76.7153 203.667 75.2569V46.7499C203.667 45.688 203.377 45.005 202.406 44.7176L197.169 42.8724L198.236 35.0206H218.309V75.2591C218.309 76.8179 218.405 77.0084 219.864 77.2045L224.807 77.8797V85.5399L197.169 85.5387Z" fill="#FAFAFA"/>
</g>
<mask id="mask1_137_161" style="mask-type:luminance" maskUnits="userSpaceOnUse" x="233" y="18" width="42" height="72">
<path d="M233 18H275V89.2448H233V18Z" fill="white"/>
</mask>
<g mask="url(#mask1_137_161)">
<path d="M275 84.7445C270.557 86.9116 264.048 88.8779 258.154 88.8779C245.857 88.8779 241.21 83.9205 241.21 72.2363V45.1669C241.21 44.5446 241.21 44.1326 240.378 44.1326H233.144V34.9349C242.244 33.9007 245.857 29.3505 246.994 18.0879H256.813V32.7643C256.813 33.4875 256.813 33.7974 257.639 33.7974H272.208V44.1326H256.813V68.8272C256.813 74.9258 258.26 77.3006 263.841 77.3006C266.734 77.3006 269.73 76.5775 272.208 75.6501L275 84.7445Z" fill="#FAFAFA"/>
</g>
<mask id="mask2_137_161" style="mask-type:luminance" maskUnits="userSpaceOnUse" x="0" y="1" width="123" height="122">
<path d="M0 1.05334H122.667V122.667H0V1.05334Z" fill="white"/>
</mask>
<g mask="url(#mask2_137_161)">
<path d="M119.23 56.4947L66.1722 3.44267C65.4457 2.71587 64.583 2.13932 63.6336 1.74596C62.6842 1.35261 61.6666 1.15015 60.6389 1.15015C59.6112 1.15015 58.5936 1.35261 57.6442 1.74596C56.6947 2.13932 55.8321 2.71587 55.1056 3.44267L44.0882 14.4587L58.0616 28.4373C59.7043 27.8773 61.4711 27.7888 63.1615 28.1819C64.852 28.575 66.3985 29.434 67.6256 30.6613C68.8586 31.8965 69.7195 33.4535 70.1099 35.1545C70.5003 36.8556 70.4046 38.6321 69.8336 40.2813L83.3029 53.7547C84.9517 53.1814 86.7288 53.0846 88.4301 53.4754C90.1314 53.8662 91.6881 54.7287 92.9216 55.964C93.7871 56.8279 94.4739 57.8541 94.9424 58.9838C95.411 60.1134 95.6522 61.3244 95.6522 62.5473C95.6522 63.7703 95.411 64.9813 94.9424 66.1109C94.4739 67.2406 93.7871 68.2667 92.9216 69.1307C92.0572 69.9964 91.0305 70.6833 89.9005 71.1519C88.7704 71.6205 87.559 71.8617 86.3356 71.8617C85.1121 71.8617 83.9007 71.6205 82.7707 71.1519C81.6406 70.6833 80.6139 69.9964 79.7496 69.1307C78.4511 67.8308 77.5661 66.1759 77.2057 64.3743C76.8453 62.5727 77.0257 60.7047 77.7242 59.0053L65.1616 46.4427V79.5C66.0735 79.9482 66.9058 80.5427 67.6256 81.26C69.3719 83.0072 70.3529 85.3764 70.3529 87.8467C70.3529 90.317 69.3719 92.6861 67.6256 94.4333C63.9856 98.068 58.0882 98.068 54.4589 94.4333C53.5929 93.5689 52.9059 92.5422 52.4372 91.412C51.9684 90.2818 51.7272 89.0702 51.7272 87.8467C51.7272 86.6231 51.9684 85.4116 52.4372 84.2813C52.9059 83.1511 53.5929 82.1244 54.4589 81.26C55.328 80.3856 56.3641 79.695 57.5056 79.2293V45.864C56.3641 45.3983 55.328 44.7077 54.4589 43.8333C53.1516 42.5269 52.2624 40.8611 51.9044 39.0479C51.5463 37.2347 51.7356 35.356 52.4482 33.6507L38.6722 19.8693L2.29222 56.2493C1.56521 56.9759 0.988497 57.8386 0.595022 58.7882C0.201547 59.7377 -0.000976563 60.7555 -0.000976562 61.7833C-0.000976563 62.8112 0.201547 63.829 0.595022 64.7785C0.988497 65.728 1.56521 66.5908 2.29222 67.3173L55.3496 120.375C56.0761 121.101 56.9387 121.678 57.8882 122.071C58.8376 122.465 59.8552 122.667 60.8829 122.667C61.9106 122.667 62.9282 122.465 63.8776 122.071C64.827 121.678 65.6897 121.101 66.4162 120.375L119.23 67.568C120.698 66.0995 121.523 64.1079 121.523 62.0313C121.523 59.9547 120.698 57.9632 119.23 56.4947Z" fill="#2DC7ED"/>
</g>
</g>
<defs>
<clipPath id="clip0_137_161">
<rect width="292" height="122.667" fill="white"/>
</clipPath>
</defs>
</svg>
