<svg width="1920" height="960" viewBox="0 0 1920 960" fill="none" xmlns="http://www.w3.org/2000/svg">
<path d="M451.776 120.289C453.522 120.672 455.268 121.05 457.016 121.42C479.323 126.328 501.463 132.989 521.905 143.248C524.075 144.256 526.249 145.259 528.424 146.257C553.266 157.73 576.889 170.913 598.408 187.89C599.246 188.547 600.084 189.205 600.947 189.883C612.44 198.952 623.556 208.345 634.11 218.502C634.837 219.201 635.563 219.9 636.312 220.62C646.05 230.045 655.102 239.68 663.436 250.389C664.587 251.824 665.739 253.257 666.893 254.689C674.347 263.979 681.371 273.423 687.662 283.552C688.257 284.504 688.852 285.457 689.464 286.438C697.901 300.061 705.636 313.921 712.606 328.353C713.228 329.636 713.851 330.919 714.492 332.24C718.074 339.82 721.011 347.416 723.526 355.414C724.571 358.597 725.776 361.633 727.11 364.705C733.136 379.444 736.679 395.558 739.94 411.101C740.243 412.527 740.243 412.527 740.552 413.982C749.19 455.083 749.789 496.972 745.04 538.65C744.924 539.682 744.808 540.714 744.688 541.778C737.266 603.789 710.801 664.842 673.637 714.668C672.505 716.187 672.505 716.187 671.351 717.737C645.843 751.193 615.904 780.967 580.557 803.952C579.595 804.578 578.632 805.205 577.639 805.85C557.06 819.13 535.832 830.767 512.979 839.666C511.353 840.356 509.728 841.049 508.103 841.743C497.703 846.072 487.435 849.803 476.003 847.319C471.132 844.175 468.232 841.085 465.802 835.839C465.256 831.659 465.31 827.513 465.352 823.302C465.349 822.045 465.346 820.787 465.344 819.491C465.34 816.761 465.344 814.03 465.356 811.3C465.374 806.959 465.366 802.618 465.35 798.276C465.311 785.932 465.317 773.588 465.343 761.244C465.357 753.686 465.339 746.128 465.305 738.57C465.298 735.709 465.303 732.848 465.32 729.987C465.467 706.05 463.741 681.163 446.955 662.382C445.194 660.645 443.39 658.952 441.576 657.27C441.576 656.429 441.576 655.587 441.576 654.719C442.626 654.566 443.677 654.413 444.759 654.255C473.695 649.977 502.159 645.675 528.28 631.761C529.111 631.335 529.942 630.909 530.798 630.471C548.28 621.497 563.166 610.29 575.457 594.771C576.197 593.837 576.937 592.904 577.699 591.941C600.059 561.849 610.212 522.105 611.159 485.079C611.199 484 611.238 482.922 611.279 481.81C612.539 444.889 605.805 405.823 580.269 377.32C579.443 376.472 578.618 375.623 577.768 374.749C574.411 371.122 574.196 370.71 574.023 365.422C574.657 362.607 575.508 359.927 576.414 357.188C579.653 346.881 579.934 336.935 579.84 326.201C579.838 325.302 579.835 324.403 579.832 323.477C579.765 309.174 578.319 295.997 574.182 282.276C573.435 279.46 572.691 276.644 571.951 273.826C571.425 271.964 570.897 270.103 570.357 268.246C554.431 268.839 539.21 270.115 524.629 277.159C521.902 278.451 519.159 279.484 516.326 280.522C501 286.607 486.133 294.771 472.994 304.727C463.948 309.519 452.857 304.95 443.489 302.843C418.872 297.54 394.902 296.102 369.774 295.988C368.762 295.981 367.75 295.973 366.707 295.966C347.44 295.868 328.467 297.301 309.607 301.408C307.575 301.834 305.543 302.259 303.511 302.684C300.396 303.342 297.282 304.006 294.172 304.687C278.952 307.919 278.952 307.919 271.988 303.611C270.043 302.304 268.106 300.984 266.176 299.655C257.318 293.801 248.374 288.701 238.762 284.189C237.687 283.684 236.612 283.179 235.504 282.658C215.991 273.662 199.16 268.784 177.639 269.521C166.464 297.837 163.57 328.313 171.423 357.849C172.478 362.371 173.179 365.696 172.538 370.285C170.197 373.808 170.197 373.808 166.96 377.539C147.72 400.909 136.801 431.385 136.623 461.592C136.617 462.479 136.612 463.365 136.606 464.278C136.594 467.12 136.594 469.961 136.598 472.803C136.598 473.774 136.599 474.746 136.6 475.746C136.648 497.948 138.816 518.44 144.487 539.925C144.916 541.666 144.916 541.666 145.354 543.443C148.018 553.414 152.608 562.633 157.238 571.813C157.621 572.576 158.004 573.34 158.398 574.127C175.764 608.147 207.032 630.722 242.866 642.478C248.284 644.169 253.745 645.66 259.242 647.066C260.173 647.305 261.103 647.543 262.062 647.789C276.322 651.362 290.513 653.405 305.145 654.719C303.366 658.925 300.78 662 297.834 665.453C290.393 674.769 287.058 685.484 284.983 696.97C283.183 706.081 283.183 706.081 279.678 709.386C276.256 710.833 273.106 711.501 269.443 712.117C268.184 712.482 266.925 712.847 265.628 713.223C248.177 717.953 225.831 719.515 209.515 710.841C208.549 710.394 207.582 709.947 206.587 709.486C190.148 701.32 179.61 686.632 169.829 671.62C159.261 655.691 145.198 644.621 126.636 639.414C125.836 639.169 125.035 638.924 124.211 638.671C120.535 637.938 116.994 637.92 113.248 637.899C111.815 637.881 110.382 637.863 108.905 637.844C105.126 638.126 103.039 638.717 99.86 640.689C99.9919 646.097 101.297 649.006 104.96 652.806C108.315 655.936 111.791 658.525 115.639 661.017C135.958 674.178 145.874 693.338 155.852 714.598C164.504 732.989 174.529 743.772 192.461 753.171C193.244 753.596 194.027 754.021 194.834 754.459C208.651 761.418 223.795 762.476 238.999 762.289C241.643 762.259 244.284 762.263 246.928 762.272C255.802 762.252 264.274 761.763 272.961 759.854C275.818 759.31 275.818 759.31 280.918 759.31C281.067 768.945 281.18 778.58 281.249 788.217C281.282 792.692 281.327 797.167 281.399 801.642C281.482 806.796 281.513 811.95 281.541 817.105C281.574 818.699 281.607 820.292 281.641 821.934C281.644 831.216 280.803 837.662 274.543 844.768C269.784 849.12 265.234 849.055 259.065 848.981C252.376 848.271 246.498 845.637 240.356 843.014C238.272 842.148 238.272 842.148 236.146 841.264C231.928 839.491 227.731 837.677 223.541 835.839C222.329 835.308 221.118 834.777 219.87 834.23C177.893 815.56 141.667 788.578 108.785 756.759C107.719 755.729 106.652 754.7 105.553 753.64C74.9175 723.525 52.7518 686.414 33.557 648.342C32.7959 646.866 32.0349 645.389 31.2509 643.868C18.515 617.973 11.038 588.267 5.18688 560.094C4.99416 559.188 4.80145 558.283 4.60289 557.35C0.376324 535.809 -0.0665532 514.052 0.00694757 492.174C0.00884802 490.775 0.0107485 489.375 0.0127065 487.933C0.0820787 459.485 1.3956 431.544 8.56317 403.874C9.4359 400.489 10.2616 397.094 11.089 393.697C14.7025 379.098 18.8737 365.043 24.6315 351.153C25.0507 350.124 25.4698 349.095 25.9016 348.035C38.6284 316.913 54.5371 286.911 75.6339 260.593C76.8875 258.998 78.1409 257.404 79.3943 255.81C89.033 243.656 99.2921 232.212 110.061 221.053C111.061 220.013 112.062 218.974 113.094 217.904C137.085 193.482 165.663 173.806 195.489 157.278C196.368 156.784 197.247 156.291 198.152 155.782C207.67 150.442 217.181 145.783 227.491 142.107C231.212 140.767 231.212 140.767 234.663 138.913C250.32 131.259 267.738 126.51 284.584 122.282C285.832 121.967 287.081 121.653 288.366 121.329C295.667 119.563 302.778 118.503 310.245 117.738C311.086 117.317 311.928 116.896 312.795 116.462C357.328 107.769 407.829 109.75 451.776 120.289Z" fill="#2DC7ED"/>
<path d="M924.454 361.004C925.526 361.007 926.598 361.009 927.702 361.012C952.836 361.11 978.434 362.564 1001.31 374.107C1003.93 377.435 1003.96 378.064 1003.69 382.114C1002.41 390.308 1000.32 398.364 998.25 406.391C997.563 409.06 996.891 411.732 996.221 414.405C992.915 427.445 992.915 427.445 991.528 428.827C985.994 428.419 980.99 427.438 975.666 425.892C961.759 421.982 947.751 421.188 933.367 421.225C931.835 421.205 930.304 421.186 928.726 421.166C910.61 421.156 892.491 425.484 878.977 438.279C860.486 459.477 858.07 486.217 858.134 513.136C858.135 514.174 858.136 515.212 858.136 516.281C858.213 542.496 860.198 570.061 879.133 590.219C879.851 590.984 880.569 591.75 881.309 592.538C890.291 601.193 902.577 606.022 915.016 606.036C917.03 606.038 917.03 606.038 919.084 606.041C921.181 606.034 921.181 606.034 923.321 606.027C924.686 606.031 926.052 606.036 927.458 606.041C929.488 606.039 929.488 606.039 931.559 606.036C932.775 606.035 933.991 606.033 935.244 606.032C941.128 605.82 946.991 605.203 952.855 604.672C952.855 585.594 952.855 566.516 952.855 546.86C940.236 546.955 940.236 546.955 927.617 547.077C925.271 547.086 925.271 547.086 922.877 547.095C922.054 547.108 921.231 547.12 920.384 547.133C918.314 547.133 916.245 547.008 914.181 546.86C911.316 544.005 911.459 543.447 911.451 539.572C911.443 538.567 911.436 537.563 911.428 536.527C911.433 535.441 911.438 534.354 911.443 533.235C911.44 532.121 911.438 531.008 911.436 529.86C911.434 527.503 911.439 525.146 911.449 522.789C911.462 519.173 911.449 515.558 911.433 511.941C911.435 509.655 911.438 507.368 911.443 505.082C911.438 503.995 911.433 502.909 911.428 501.789C911.439 500.282 911.439 500.282 911.451 498.745C911.453 497.859 911.455 496.973 911.457 496.06C911.764 493.866 911.764 493.866 914.181 491.457C917.334 491.218 920.359 491.128 923.514 491.145C924.959 491.139 924.959 491.139 926.432 491.132C929.625 491.122 932.818 491.129 936.01 491.137C938.223 491.135 940.436 491.133 942.648 491.13C947.289 491.126 951.93 491.132 956.571 491.143C962.529 491.157 968.487 491.149 974.445 491.134C979.015 491.126 983.585 491.128 988.155 491.135C990.353 491.136 992.55 491.134 994.747 491.129C997.815 491.123 1000.88 491.132 1003.95 491.145C1004.86 491.14 1005.78 491.135 1006.72 491.13C1013.01 491.182 1013.01 491.182 1015.7 493.866C1016 496.495 1016 496.495 1015.99 499.825C1015.99 501.715 1015.99 501.715 1016 503.643C1015.99 505.725 1015.99 505.725 1015.97 507.849C1015.97 509.306 1015.97 510.763 1015.97 512.264C1015.97 516.265 1015.96 520.266 1015.94 524.268C1015.93 528.447 1015.93 532.626 1015.92 536.806C1015.92 544.722 1015.9 552.639 1015.87 560.556C1015.85 569.568 1015.83 578.58 1015.82 587.591C1015.8 606.132 1015.75 624.673 1015.7 643.213C1012.81 644.767 1009.92 646.317 1007.03 647.865C1006.22 648.302 1005.41 648.739 1004.58 649.19C998.402 652.489 992.215 655.233 985.561 657.44C984.551 657.784 983.541 658.128 982.501 658.483C973.153 661.561 963.799 663.477 954.063 664.892C952.821 665.111 951.58 665.33 950.301 665.556C913.71 669.77 872.105 665.465 841.668 643.213C812.683 620.063 799.053 587.541 794.473 551.473C793.114 538.788 793.081 526.031 793.024 513.287C793.017 512.398 793.01 511.51 793.004 510.594C792.936 498.364 793.82 486.697 795.743 474.595C795.913 473.432 796.083 472.268 796.258 471.07C800.535 442.34 809.756 414.787 830.791 393.899C831.571 393.05 832.352 392.201 833.156 391.326C839.252 384.831 846.035 380.248 853.753 375.833C854.696 375.288 855.638 374.743 856.609 374.182C877.867 362.753 900.797 360.901 924.454 361.004Z" fill="#FAFAFA"/>
<path d="M1739.25 371.023C1740.97 371.012 1740.97 371.012 1742.72 371C1743.96 371.005 1745.2 371.01 1746.47 371.015C1747.74 371.013 1749.01 371.01 1750.31 371.008C1753 371.006 1755.68 371.011 1758.37 371.021C1762.49 371.034 1766.61 371.021 1770.73 371.005C1773.33 371.007 1775.94 371.01 1778.54 371.015C1779.78 371.01 1781.02 371.005 1782.29 371C1783.44 371.008 1784.58 371.015 1785.76 371.023C1786.77 371.025 1787.78 371.027 1788.82 371.029C1791.28 371.336 1791.28 371.336 1793.67 373.752C1793.93 376.805 1794.05 379.731 1794.06 382.787C1794.07 383.719 1794.08 384.65 1794.09 385.609C1794.13 388.695 1794.15 391.78 1794.17 394.865C1794.19 397.002 1794.22 399.138 1794.24 401.274C1794.3 406.903 1794.35 412.532 1794.39 418.16C1794.44 423.902 1794.5 429.643 1794.56 435.384C1794.68 446.653 1794.78 457.923 1794.87 469.192C1795.81 468.616 1796.75 468.04 1797.71 467.446C1800.47 465.805 1802.9 464.683 1805.92 463.671C1806.84 463.361 1807.76 463.051 1808.71 462.731C1809.66 462.422 1810.61 462.112 1811.58 461.792C1812.52 461.473 1813.46 461.154 1814.43 460.825C1831.81 455.051 1853.07 454.492 1870.4 460.735C1871.42 461.058 1872.44 461.38 1873.49 461.712C1889.61 467.334 1901.01 480.266 1908.33 495.34C1911.3 501.771 1913.25 508.189 1914.75 515.1C1914.98 516.042 1915.21 516.984 1915.45 517.955C1923.97 553.743 1921.05 604.375 1902.19 636.509C1894.04 649.342 1882.53 659.099 1867.81 663.21C1839.71 669.343 1809.98 665.453 1785.27 650.662C1782.82 649.027 1780.43 647.363 1778.09 645.575C1778.14 647.07 1778.19 648.565 1778.24 650.105C1778.37 654.181 1777.57 656.49 1775.69 660.072C1769.76 660.132 1763.83 660.176 1757.9 660.205C1755.88 660.217 1753.86 660.233 1751.84 660.254C1748.94 660.284 1746.05 660.297 1743.15 660.308C1742.24 660.32 1741.34 660.333 1740.4 660.346C1738.18 660.346 1735.96 660.22 1733.74 660.072C1730.51 656.825 1731.04 654.337 1731.02 649.925C1731.02 648.829 1731.03 647.733 1731.03 646.603C1731.03 645.444 1731.03 644.284 1731.02 643.089C1731.01 639.179 1731.02 635.269 1731.03 631.358C1731.02 628.565 1731.02 625.771 1731.01 622.978C1731 615.373 1731.01 607.767 1731.02 600.162C1731.02 592.219 1731.02 584.276 1731.01 576.333C1731.01 562.136 1731.02 547.939 1731.03 533.743C1731.04 520.861 1731.04 507.98 1731.03 495.098C1731.01 480.152 1731.01 465.206 1731.01 450.261C1731.02 442.344 1731.02 434.428 1731.01 426.511C1731 419.07 1731.01 411.63 1731.02 404.189C1731.03 401.451 1731.02 398.713 1731.02 395.975C1731.01 392.251 1731.02 388.528 1731.03 384.804C1731.03 383.708 1731.02 382.612 1731.02 381.483C1731.06 373.971 1731.45 371.038 1739.25 371.023Z" fill="#FAFAFA"/>
<path d="M1299.25 371.023C1300.97 371.012 1300.97 371.012 1302.72 371C1303.96 371.005 1305.2 371.01 1306.48 371.015C1307.74 371.012 1309.01 371.01 1310.32 371.008C1313.01 371.006 1315.69 371.011 1318.38 371.021C1322.5 371.034 1326.63 371.021 1330.75 371.005C1333.36 371.007 1335.96 371.01 1338.57 371.015C1339.81 371.01 1341.05 371.005 1342.32 371C1343.47 371.008 1344.61 371.015 1345.79 371.023C1346.8 371.025 1347.81 371.027 1348.85 371.029C1351.31 371.335 1351.31 371.335 1353.71 373.748C1353.94 377.091 1354.01 380.313 1353.98 383.657C1353.98 384.681 1353.98 385.705 1353.99 386.76C1353.98 390.154 1353.96 393.549 1353.95 396.943C1353.94 399.293 1353.94 401.642 1353.94 403.992C1353.93 410.184 1353.9 416.376 1353.88 422.568C1353.85 429.993 1353.84 437.418 1353.82 444.843C1353.8 456.131 1353.75 467.418 1353.71 478.705C1380.63 478.705 1407.55 478.705 1435.29 478.705C1435.26 471.156 1435.23 463.608 1435.2 455.83C1435.19 451.058 1435.18 446.286 1435.17 441.514C1435.16 433.933 1435.14 426.353 1435.11 418.772C1435.08 412.663 1435.07 406.554 1435.06 400.445C1435.06 398.11 1435.05 395.776 1435.03 393.441C1435.02 390.179 1435.01 386.918 1435.02 383.657C1435.01 382.684 1435 381.711 1434.99 380.709C1435.01 374.023 1435.01 374.023 1437.69 371.335C1440.15 371.029 1440.15 371.029 1443.21 371.023C1444.93 371.012 1444.93 371.012 1446.68 371C1448.54 371.007 1448.54 371.007 1450.43 371.015C1451.7 371.012 1452.97 371.01 1454.28 371.008C1456.97 371.006 1459.65 371.011 1462.34 371.021C1466.46 371.034 1470.58 371.021 1474.71 371.005C1477.31 371.007 1479.92 371.01 1482.52 371.015C1483.76 371.01 1485 371.005 1486.28 371C1487.43 371.008 1488.57 371.015 1489.75 371.023C1490.76 371.025 1491.77 371.027 1492.81 371.029C1495.27 371.335 1495.27 371.335 1497.67 373.748C1497.91 377.463 1497.99 381.069 1497.97 384.785C1497.98 386.522 1497.98 386.522 1497.99 388.294C1498 392.199 1497.99 396.104 1497.98 400.008C1497.98 402.798 1497.99 405.588 1497.99 408.377C1498 415.972 1498 423.566 1497.99 431.161C1497.99 439.093 1497.99 447.025 1498 454.956C1498 469.133 1497.99 483.31 1497.98 497.487C1497.97 510.35 1497.97 523.213 1497.98 536.077C1498 551.001 1498 565.926 1497.99 580.851C1497.99 588.756 1497.99 596.662 1498 604.567C1498 611.997 1498 619.428 1497.99 626.858C1497.98 629.592 1497.98 632.326 1497.99 635.061C1497.99 638.779 1497.99 642.497 1497.97 646.215C1497.98 647.857 1497.98 647.857 1497.99 649.532C1497.94 656.977 1497.94 656.977 1495.27 659.665C1492.81 659.971 1492.81 659.971 1489.75 659.977C1488.61 659.985 1487.46 659.992 1486.28 660C1484.42 659.993 1484.42 659.993 1482.52 659.985C1481.26 659.988 1479.99 659.99 1478.68 659.992C1475.99 659.994 1473.31 659.989 1470.62 659.979C1466.5 659.966 1462.37 659.979 1458.25 659.995C1455.64 659.993 1453.04 659.99 1450.43 659.985C1449.19 659.99 1447.95 659.995 1446.68 660C1445.53 659.992 1444.39 659.985 1443.21 659.977C1442.2 659.975 1441.19 659.973 1440.15 659.971C1437.69 659.665 1437.69 659.665 1435.29 657.252C1434.99 655.052 1434.99 655.052 1435 652.336C1435 651.307 1434.99 650.279 1434.99 649.219C1435 647.523 1435 647.523 1435.02 645.793C1435.02 644.604 1435.01 643.415 1435.01 642.191C1435.02 638.248 1435.03 634.305 1435.05 630.362C1435.06 627.634 1435.06 624.906 1435.06 622.177C1435.07 614.986 1435.1 607.794 1435.12 600.603C1435.15 591.98 1435.16 583.357 1435.18 574.734C1435.2 561.624 1435.25 548.515 1435.29 535.406C1407.97 535.406 1380.66 535.406 1352.51 535.406C1352.51 576.013 1352.51 616.62 1352.51 658.458C1349.66 659.894 1347.89 659.825 1344.7 659.84C1343.58 659.848 1342.46 659.855 1341.31 659.863C1340.09 659.865 1338.88 659.866 1337.63 659.867C1336.39 659.871 1335.14 659.875 1333.86 659.88C1331.23 659.886 1328.6 659.888 1325.97 659.888C1321.94 659.891 1317.9 659.913 1313.87 659.936C1311.31 659.939 1308.76 659.942 1306.21 659.943C1304.39 659.956 1304.39 659.956 1302.54 659.969C1301.42 659.965 1300.29 659.962 1299.14 659.958C1298.15 659.96 1297.16 659.961 1296.14 659.963C1293.73 659.665 1293.73 659.665 1291.33 657.252C1291.09 653.537 1291.01 649.931 1291.03 646.215C1291.02 645.057 1291.02 643.899 1291.01 642.706C1291 638.801 1291.01 634.896 1291.02 630.992C1291.02 628.202 1291.01 625.412 1291.01 622.623C1291 615.028 1291 607.434 1291.01 599.839C1291.01 591.907 1291.01 583.975 1291 576.044C1291 561.867 1291.01 547.69 1291.02 533.513C1291.03 520.65 1291.03 507.787 1291.02 494.923C1291 479.999 1291 465.074 1291.01 450.149C1291.01 442.244 1291.01 434.338 1291 426.433C1291 419.003 1291 411.572 1291.01 404.142C1291.02 401.408 1291.02 398.674 1291.01 395.939C1291.01 392.221 1291.01 388.503 1291.03 384.785C1291.02 383.69 1291.01 382.596 1291.01 381.468C1291.06 373.967 1291.44 371.038 1299.25 371.023Z" fill="#FAFAFA"/>
<path d="M1528.23 463.037C1529.27 463.039 1530.3 463.04 1531.37 463.042C1532.54 463.038 1533.72 463.035 1534.93 463.031C1536.2 463.039 1537.47 463.048 1538.78 463.057C1540.73 463.058 1540.73 463.058 1542.72 463.059C1545.47 463.062 1548.22 463.072 1550.97 463.087C1555.2 463.109 1559.43 463.111 1563.66 463.111C1566.32 463.117 1568.99 463.124 1571.66 463.132C1572.93 463.134 1574.21 463.135 1575.52 463.136C1576.69 463.144 1577.86 463.152 1579.06 463.16C1580.62 463.166 1580.62 463.166 1582.2 463.173C1584.57 463.334 1584.57 463.334 1585.77 464.537C1585.89 466.196 1585.92 467.86 1585.92 469.523C1585.93 470.599 1585.93 471.674 1585.94 472.782C1585.94 473.972 1585.94 475.161 1585.94 476.387C1585.94 477.632 1585.95 478.878 1585.95 480.162C1585.96 482.879 1585.96 485.596 1585.97 488.314C1585.98 492.622 1586 496.93 1586.02 501.238C1586.08 513.491 1586.14 525.744 1586.16 537.997C1586.17 545.485 1586.21 552.972 1586.26 560.459C1586.27 563.308 1586.28 566.157 1586.27 569.006C1586.27 573.01 1586.3 577.013 1586.33 581.017C1586.32 582.182 1586.31 583.347 1586.31 584.547C1586.44 594.059 1588.04 603.927 1594.98 610.851C1600.21 612.957 1604.58 613.125 1610.16 612.988C1611.13 612.997 1612.09 613.005 1613.09 613.014C1623.06 612.91 1631.02 609.758 1639.81 605.246C1640.61 605.246 1641.4 605.246 1642.22 605.246C1642.21 604.529 1642.21 603.813 1642.21 603.074C1642.16 585.65 1642.12 568.226 1642.09 550.803C1642.08 542.377 1642.06 533.951 1642.03 525.525C1642.01 517.399 1641.99 509.274 1641.99 501.149C1641.98 498.042 1641.97 494.936 1641.96 491.83C1641.94 487.493 1641.94 483.156 1641.94 478.819C1641.93 477.523 1641.93 476.227 1641.92 474.892C1641.92 473.715 1641.92 472.538 1641.93 471.325C1641.92 470.298 1641.92 469.272 1641.92 468.214C1642.22 465.739 1642.22 465.739 1644.62 463.334C1647.08 463.029 1647.08 463.029 1650.14 463.023C1651.86 463.012 1651.86 463.012 1653.62 463C1654.86 463.005 1656.1 463.01 1657.38 463.015C1658.65 463.012 1659.92 463.01 1661.23 463.008C1663.92 463.006 1666.61 463.011 1669.3 463.021C1673.43 463.033 1677.55 463.021 1681.68 463.005C1684.29 463.007 1686.9 463.01 1689.51 463.015C1690.75 463.01 1691.99 463.005 1693.27 463C1694.41 463.008 1695.56 463.015 1696.74 463.023C1697.75 463.025 1698.76 463.027 1699.81 463.029C1702.27 463.334 1702.27 463.334 1704.67 465.739C1704.97 469.015 1704.97 469.015 1704.97 473.272C1704.98 474.444 1704.98 474.444 1704.99 475.639C1705 478.269 1704.99 480.898 1704.98 483.528C1704.98 485.408 1704.99 487.289 1704.99 489.169C1705 494.285 1705 499.401 1704.99 504.517C1704.99 509.863 1704.99 515.208 1705 520.553C1705 529.531 1704.99 538.509 1704.98 547.487C1704.97 557.878 1704.97 568.268 1704.99 578.659C1705 587.568 1705 596.477 1704.99 605.387C1704.99 610.713 1704.99 616.039 1705 621.366C1705 626.372 1705 631.379 1704.99 636.386C1704.98 638.227 1704.98 640.068 1704.99 641.91C1704.99 644.416 1704.99 646.921 1704.97 649.427C1704.97 651.534 1704.97 651.534 1704.97 653.684C1704.67 656.96 1704.67 656.96 1702.27 659.365C1696.81 659.874 1691.34 659.812 1685.86 659.811C1683.14 659.816 1680.42 659.86 1677.7 659.905C1675.97 659.912 1674.24 659.917 1672.51 659.919C1670.14 659.934 1670.14 659.934 1667.73 659.949C1663.83 659.365 1663.83 659.365 1661.5 657.207C1659.71 653.465 1660 650.224 1660.23 646.136C1659.13 646.761 1658.02 647.386 1656.88 648.029C1629.23 663.401 1598.47 670.386 1567.16 663.109C1556.84 659.833 1547.57 655.397 1540.13 647.339C1539.47 646.649 1538.81 645.959 1538.13 645.248C1525.22 630.739 1523.13 612.443 1523.14 593.707C1523.13 591.635 1523.13 591.635 1523.13 589.52C1523.11 584.97 1523.11 580.421 1523.11 575.871C1523.11 572.707 1523.1 569.543 1523.1 566.379C1523.09 559.758 1523.09 553.138 1523.09 546.517C1523.09 538.86 1523.08 531.202 1523.06 523.545C1523.04 516.172 1523.04 508.8 1523.04 501.428C1523.04 498.291 1523.03 495.155 1523.02 492.018C1523.01 487.647 1523.01 483.277 1523.02 478.906C1523.01 477.601 1523.01 476.296 1523 474.951C1523.01 473.766 1523.01 472.581 1523.02 471.36C1523.01 470.326 1523.01 469.293 1523.01 468.228C1523.44 464.65 1524.66 463.459 1528.23 463.037Z" fill="#FAFAFA"/>
<path d="M1162.33 408C1163.4 408.003 1164.47 408.005 1165.58 408.008C1166.79 408.008 1168 408.008 1169.25 408.008C1170.56 408.015 1171.88 408.021 1173.23 408.027C1175.24 408.03 1175.24 408.03 1177.29 408.032C1181.59 408.039 1185.89 408.054 1190.19 408.07C1193.1 408.076 1196.01 408.081 1198.91 408.086C1206.06 408.098 1213.2 408.122 1220.34 408.145C1220.34 426.415 1220.34 444.685 1220.34 463.508C1234.61 463.46 1234.61 463.46 1248.88 463.4C1250.66 463.396 1252.45 463.393 1254.23 463.391C1255.16 463.384 1256.09 463.378 1257.06 463.372C1259.33 463.372 1261.6 463.433 1263.87 463.508C1266.43 466.058 1265.27 471.748 1265.28 475.276C1265.28 476.867 1265.28 476.867 1265.29 478.491C1265.3 480.74 1265.3 482.99 1265.3 485.239C1265.3 488.689 1265.32 492.138 1265.35 495.588C1265.35 497.769 1265.35 499.949 1265.35 502.13C1265.36 503.167 1265.37 504.204 1265.38 505.272C1265.35 512.578 1265.35 512.578 1262.66 515.261C1259.45 515.472 1256.37 515.54 1253.16 515.496C1252.23 515.493 1251.29 515.489 1250.33 515.486C1247.34 515.472 1244.34 515.442 1241.35 515.411C1239.32 515.399 1237.29 515.388 1235.27 515.378C1230.29 515.352 1225.32 515.31 1220.34 515.261C1220.42 525.964 1220.51 536.667 1220.63 547.37C1220.68 552.34 1220.73 557.31 1220.76 562.28C1220.79 567.08 1220.84 571.879 1220.9 576.678C1220.92 578.506 1220.94 580.335 1220.94 582.163C1220.96 584.73 1220.99 587.296 1221.03 589.863C1221.04 591.322 1221.06 592.781 1221.07 594.285C1221.7 599.518 1223.41 603.595 1226.99 607.507C1232.39 611.693 1235.97 612.88 1242.72 613.087C1244.01 613.132 1245.3 613.177 1246.63 613.223C1249.37 613.308 1252.1 613.393 1254.83 613.477C1256.12 613.522 1257.41 613.567 1258.74 613.614C1259.92 613.65 1261.11 613.687 1262.33 613.724C1265.08 613.952 1265.08 613.952 1266.28 615.156C1266.64 621.115 1266.66 627.077 1266.71 633.046C1266.73 635.056 1266.76 637.066 1266.81 639.076C1266.87 641.97 1266.9 644.861 1266.92 647.755C1266.94 648.654 1266.97 649.553 1267 650.479C1266.99 653.022 1266.99 653.022 1266.28 657.28C1256.64 665.557 1240.86 665.07 1228.88 664.953C1226.75 664.974 1226.75 664.974 1224.59 664.995C1207.05 664.937 1190.88 661.324 1177.29 649.791C1165 637.18 1159.45 620.986 1159.62 603.663C1159.62 602.699 1159.62 601.734 1159.62 600.741C1159.62 597.596 1159.64 594.451 1159.66 591.306C1159.66 589.108 1159.66 586.911 1159.67 584.714C1159.68 578.962 1159.7 573.211 1159.73 567.459C1159.75 561.577 1159.76 555.695 1159.77 549.814C1159.8 538.296 1159.84 526.778 1159.89 515.261C1158.99 515.273 1158.09 515.286 1157.16 515.299C1153.08 515.349 1149.01 515.38 1144.93 515.411C1143.51 515.431 1142.09 515.452 1140.62 515.472C1138.59 515.484 1138.59 515.484 1136.51 515.496C1135.26 515.509 1134.01 515.521 1132.72 515.534C1129.67 515.261 1129.67 515.261 1127.25 512.854C1127.04 509.834 1126.97 506.949 1127.01 503.931C1127.02 503.052 1127.02 502.174 1127.02 501.269C1127.04 498.461 1127.07 495.653 1127.1 492.845C1127.11 490.942 1127.12 489.04 1127.13 487.137C1127.16 482.47 1127.2 477.803 1127.25 473.137C1139.09 469.16 1139.09 469.16 1145.01 467.495C1146.06 467.192 1147.11 466.89 1148.19 466.578C1151.76 465.846 1155.05 465.871 1158.68 465.915C1158.68 465.209 1158.68 464.503 1158.67 463.776C1158.65 456.455 1158.63 449.134 1158.62 441.813C1158.61 439.078 1158.6 436.342 1158.59 433.607C1158.58 429.685 1158.57 425.762 1158.56 421.84C1158.56 420.609 1158.55 419.378 1158.55 418.109C1158.55 416.411 1158.55 416.411 1158.55 414.678C1158.54 413.675 1158.54 412.673 1158.54 411.641C1158.74 408.436 1159.12 408.191 1162.33 408Z" fill="#FAFAFA"/>
<path d="M1050.34 463.006C1051.35 463.008 1052.37 463.01 1053.41 463.011C1054.56 463.008 1055.71 463.004 1056.9 463C1058.14 463.009 1059.38 463.017 1060.67 463.026C1061.94 463.027 1063.21 463.027 1064.52 463.028C1067.22 463.032 1069.91 463.041 1072.6 463.056C1076.74 463.078 1080.88 463.081 1085.02 463.081C1087.63 463.087 1090.24 463.094 1092.85 463.102C1094.1 463.103 1095.35 463.105 1096.63 463.106C1097.78 463.114 1098.92 463.121 1100.1 463.129C1101.12 463.134 1102.13 463.139 1103.18 463.143C1105.49 463.305 1105.49 463.305 1106.69 464.515C1106.81 467.006 1106.85 469.5 1106.85 471.994C1106.86 472.784 1106.86 473.574 1106.86 474.387C1106.87 477.053 1106.87 479.719 1106.87 482.385C1106.87 484.289 1106.87 486.192 1106.88 488.096C1106.89 493.281 1106.89 498.465 1106.89 503.65C1106.89 507.971 1106.9 512.292 1106.9 516.613C1106.91 526.804 1106.92 536.994 1106.92 547.185C1106.91 557.713 1106.93 568.242 1106.95 578.771C1106.96 587.796 1106.97 596.821 1106.97 605.846C1106.97 611.242 1106.97 616.639 1106.98 622.036C1107 627.109 1107 632.183 1106.99 637.257C1106.99 639.123 1106.99 640.989 1107 642.855C1107 645.395 1107 647.935 1106.99 650.474C1106.99 651.898 1106.99 653.322 1106.99 654.789C1106.69 658.107 1106.69 658.107 1104.29 660.527C1101.93 660.842 1101.93 660.842 1099.01 660.859C1097.91 660.871 1096.82 660.882 1095.69 660.894C1094.51 660.893 1093.32 660.892 1092.1 660.891C1090.89 660.896 1089.68 660.901 1088.43 660.906C1085.86 660.913 1083.29 660.914 1080.72 660.909C1076.78 660.905 1072.84 660.933 1068.9 660.964C1066.4 660.967 1063.91 660.967 1061.42 660.966C1060.23 660.977 1059.05 660.989 1057.84 661C1056.19 660.989 1056.19 660.989 1054.51 660.977C1053.06 660.978 1053.06 660.978 1051.58 660.979C1048.3 660.389 1047.45 659.588 1045.47 656.897C1045.02 653.471 1045.02 653.471 1045.02 649.219C1045.01 648.437 1045.01 647.655 1045 646.849C1044.99 644.224 1045.01 641.599 1045.02 638.974C1045.02 637.094 1045.01 635.214 1045.01 633.334C1045 628.224 1045.01 623.115 1045.02 618.005C1045.04 612.665 1045.03 607.324 1045.03 601.983C1045.03 593.015 1045.04 584.047 1045.06 575.079C1045.09 564.7 1045.09 554.321 1045.09 543.942C1045.08 533.969 1045.09 523.996 1045.1 514.023C1045.11 509.774 1045.11 505.524 1045.1 501.274C1045.1 496.274 1045.11 491.274 1045.13 486.273C1045.14 484.434 1045.14 482.596 1045.13 480.757C1045.13 478.254 1045.14 475.752 1045.15 473.249C1045.16 471.846 1045.16 470.444 1045.16 468.998C1045.53 465.037 1046.27 463.499 1050.34 463.006Z" fill="#FAFAFA"/>
<path d="M1843.14 513.28C1851.3 519.656 1854.63 528.615 1856.39 538.596C1857.09 545.576 1857.04 552.579 1856.95 559.586C1856.92 562.781 1856.93 565.974 1856.94 569.17C1856.91 598.491 1856.91 598.491 1848.03 607.461C1846.83 608.734 1846.83 608.734 1845.59 610.033C1839.55 615.212 1834.01 615.009 1826.36 614.996C1825.23 614.995 1824.1 614.994 1822.93 614.993C1812.61 614.818 1800.25 613.807 1792.56 606.105C1791.98 602.284 1791.98 602.284 1792.01 597.506C1792.01 596.635 1792.01 595.764 1792.01 594.867C1792.01 591.99 1792.05 589.115 1792.09 586.238C1792.1 584.243 1792.1 582.248 1792.11 580.253C1792.13 575.003 1792.17 569.753 1792.23 564.503C1792.28 559.146 1792.3 553.789 1792.32 548.431C1792.37 537.919 1792.46 527.408 1792.56 516.897C1794.29 516.118 1796.03 515.341 1797.76 514.565C1798.73 514.132 1799.69 513.699 1800.69 513.253C1814.33 507.318 1829.94 505.245 1843.14 513.28Z" fill="#040506"/>
<path d="M1092.88 382.552C1101.01 388.02 1106.9 393.172 1109.46 402.975C1110.6 415.392 1110.6 425.322 1102.73 435.518C1094.71 443.891 1087.81 447.469 1076.26 448C1067.1 447.734 1060.65 445.187 1053.88 438.977C1045.78 430.322 1042.89 422.564 1043 410.635C1043.35 400.595 1046.75 393.774 1053.92 386.927C1065.82 377.491 1079.24 374.741 1092.88 382.552Z" fill="#FAFAFA"/>
</svg>
