<svg width="161" height="56" viewBox="0 0 161 56" fill="none" xmlns="http://www.w3.org/2000/svg">
<g clip-path="url(#clip0_137_115)">
<path d="M112 5L115.726 46.3433L132.441 51L149.271 46.3433L153 5H112ZM144.904 18.4857H125.278L125.715 23.6883H144.466L143.011 39.3298L132.559 42.1741V42.2048H132.443L121.902 39.3298L121.261 31.3365H126.356L126.735 35.3615L132.443 36.8857L138.176 35.3615L138.819 28.8065H120.998L119.628 13.4548H145.372L144.904 18.4857Z" fill="#2DC7ED"/>
<g clip-path="url(#clip1_137_115)">
<path d="M93.625 36.0312V13.2812H87.9375V41.7188H105V36.0312H93.625Z" fill="#FAFAFA"/>
<path d="M82.25 13.2812H76.5625L72.2969 24.6562L68.0312 13.2812H62.3438V41.7188H68.0312V21.8125L72.2969 33.1875L76.5625 21.8125V41.7188H82.25V13.2812Z" fill="#FAFAFA"/>
<path d="M39.5938 18.9688H45.2812V41.7188H50.9688V18.9688H56.6562V13.2812H39.5938V18.9688Z" fill="#FAFAFA"/>
<path d="M28.2188 13.2812V24.6562H19.6875V13.2812H14V41.7188H19.6875V30.3438H28.2188V41.7188H33.9062V13.2812H28.2188Z" fill="#FAFAFA"/>
</g>
</g>
<defs>
<clipPath id="clip0_137_115">
<rect width="161" height="56" fill="white"/>
</clipPath>
<clipPath id="clip1_137_115">
<rect width="91" height="91" fill="white" transform="translate(14 -18)"/>
</clipPath>
</defs>
</svg>
