<svg width="154" height="77" viewBox="0 0 154 77" fill="none" xmlns="http://www.w3.org/2000/svg">
<path d="M28.1109 43.0001C30.8723 43.0001 33.1109 40.5127 33.1109 37.4444C33.1109 34.3762 30.8723 31.8889 28.1109 31.8889C25.3494 31.8889 23.1108 34.3762 23.1108 37.4444C23.1108 40.5127 25.3494 43.0001 28.1109 43.0001Z" fill="#2DC7ED"/>
<path fill-rule="evenodd" clip-rule="evenodd" d="M28.1116 27.4446C34.6519 27.4446 40.7279 28.44 45.3089 30.1126C50.8286 32.1279 54.2223 35.1826 54.2223 37.9487C54.2223 40.8311 50.6257 44.0764 44.6983 46.1591C40.217 47.7338 34.3201 48.5557 28.1116 48.5557C21.7462 48.5557 15.7185 47.7842 11.1867 46.1419C5.45332 44.0635 2 40.7763 2 37.9487C2 35.2051 5.24028 32.1739 10.6823 30.1617C15.2806 28.4614 21.5073 27.4446 28.1116 27.4446Z" stroke="#2DC7ED" stroke-width="1.66272"/>
<path fill-rule="evenodd" clip-rule="evenodd" d="M20.0621 32.6308C23.3306 26.4965 27.1799 21.3054 30.8359 17.8617C35.2408 13.7126 39.4326 12.0876 41.6926 13.4982C44.0478 14.9682 44.902 19.9969 43.6418 26.6184C42.6899 31.6246 40.4137 37.5744 37.3111 43.3975C34.1301 49.3677 30.4876 54.6277 26.8815 58.0396C22.3183 62.3571 17.9066 63.9196 15.5964 62.4775C13.3546 61.0793 12.4973 56.4933 13.5727 50.3627C14.4814 45.1829 16.7617 38.825 20.061 32.6307L20.0621 32.6308Z" stroke="#2DC7ED" stroke-width="1.66272"/>
<path fill-rule="evenodd" clip-rule="evenodd" d="M20.038 43.3772C16.7691 37.2456 14.5435 31.0378 13.6145 25.8862C12.4962 19.679 13.2869 14.9331 15.5388 13.5174C17.8854 12.0421 22.325 13.7536 26.9831 18.2454C30.5048 21.6415 34.1213 26.7499 37.2245 32.5717C40.4061 38.5403 42.7907 44.5872 43.7183 49.6763C44.8921 56.1163 43.9421 61.0369 41.6402 62.4841C39.4066 63.8884 35.3194 62.4016 30.9612 58.3285C27.2788 54.8871 23.3391 49.5698 20.038 43.3772Z" stroke="#2DC7ED" stroke-width="1.66272"/>
<path d="M81.6289 51.5383L82.5105 51.543L82.03 50.801L75.6845 41.0047C77.211 40.7212 78.6435 40.0042 79.7448 38.8552C81.0328 37.5112 81.842 35.6032 81.842 33.1821C81.842 30.7178 80.9836 28.6624 79.4926 27.2239C78.0038 25.7874 75.9199 25 73.5268 25H63.4754H63V25.4772V51.0417V51.5189H63.4754H66.5892H67.0646V51.0417V41.3611H71.3161L77.5527 51.2961L77.6916 51.5175L77.9524 51.5189L81.6289 51.5383ZM73.1543 37.6283H67.0662V28.8089H73.1543C74.5286 28.8089 75.6517 29.2691 76.4289 30.0292C77.2051 30.7886 77.6681 31.8783 77.6681 33.2C77.6681 34.5221 77.2045 35.6229 76.4263 36.3929C75.6854 37.1261 74.6323 37.5858 73.3506 37.6283H73.1543ZM86.2533 49.1464C87.897 50.8606 90.1719 51.8749 92.7935 51.9741L92.7959 51.9968H93.2223C96.3005 51.9968 98.864 50.9586 100.764 49.019L101.045 48.7319L100.81 48.4053L99.4596 46.5261L99.1255 46.0614L98.7307 46.4752C97.3993 47.8704 95.4271 48.6658 93.4855 48.6658C90.0674 48.6658 87.8814 46.2656 87.4824 43.2209H101.623H102.099V42.7437V42.0148C102.099 39.1473 101.266 36.5501 99.6899 34.6607C98.1063 32.7626 95.7956 31.6098 92.9194 31.6098C87.4379 31.6098 83.5182 36.2005 83.5182 41.7847C83.5182 44.7874 84.522 47.3408 86.2533 49.1464ZM120.307 51.5367L120.782 51.5372V51.0595V38.334C120.782 35.966 119.934 34.2565 118.528 33.1523C117.142 32.0627 115.271 31.6082 113.294 31.6082C110.203 31.6082 107.751 32.6554 105.709 34.8243L105.45 35.0996L105.658 35.4154L106.971 37.4081L107.306 37.9172L107.717 37.4675C109.247 35.7947 110.888 35.0542 112.919 35.0542C114.151 35.0542 115.181 35.3872 115.892 35.9675C116.593 36.5389 117.021 37.3779 117.021 38.4862V40.6679C115.541 39.3996 113.648 38.8126 111.494 38.8126C109.862 38.8126 108.164 39.3302 106.865 40.4186C105.554 41.5167 104.677 43.1753 104.677 45.3844C104.677 49.7396 108.225 51.9951 111.494 51.9951C113.636 51.9951 115.525 51.3442 117.021 50.0789V51.0563V51.5329L117.495 51.5335L120.307 51.5367ZM133.434 51.9734V51.9968H133.909C137.379 51.9968 139.462 50.5297 140.928 48.5888L141.187 48.2461L140.874 47.9523L138.999 46.1896L138.607 45.8214L138.29 46.2563C137.176 47.785 135.78 48.4747 134.077 48.4747C132.281 48.4747 130.849 47.7665 129.859 46.597C128.862 45.4199 128.289 43.7445 128.289 41.7847C128.289 39.8252 128.863 38.1602 129.858 36.9933C130.847 35.8336 132.279 35.1336 134.077 35.1336C135.802 35.1336 137.193 35.7909 138.285 37.3454L138.601 37.7932L138.999 37.4187L140.874 35.656L141.187 35.3624L140.928 35.0198C139.464 33.0767 137.379 31.6114 133.909 31.6114C128.206 31.6114 124.395 36.0831 124.395 41.7863C124.395 47.3671 127.995 51.7329 133.434 51.9734ZM148.342 46.5752V35.5532H151.544H152.02V35.076V32.5471V32.0699H151.544H148.342V27.4876V27.0105H147.867H145.052H144.577V27.4876V32.0699H142.051H141.576V32.5471V35.0776V35.5548H142.051H144.577V47.1909C144.577 48.6426 144.931 49.8581 145.709 50.7136C146.494 51.5766 147.64 52 149.066 52H149.542V51.983C151.035 51.8944 152.038 51.3854 152.773 50.6761L153 50.4563L152.887 50.1605L152.062 48.0139L151.783 47.2862L151.265 47.8672C150.99 48.1751 150.391 48.4747 149.705 48.4747C149.232 48.4747 148.918 48.2931 148.707 48.0006C148.48 47.688 148.342 47.2048 148.342 46.5752ZM97.0327 36.8124C97.8161 37.7795 98.2436 39.0012 98.3495 40.1557H87.4806C87.633 38.9743 88.1033 37.7501 88.8964 36.7876C89.7931 35.6994 91.1065 34.9376 92.8862 34.9376C94.8026 34.9376 96.1501 35.7228 97.0327 36.8124ZM112.507 48.972C110.097 48.972 108.518 47.4558 108.518 45.4249C108.518 44.3668 108.925 43.4807 109.61 42.8553C110.299 42.2271 111.296 41.839 112.507 41.839C114.33 41.839 116.029 42.5212 117.021 43.8195V46.9932C116.031 48.2897 114.331 48.972 112.507 48.972Z" fill="#FAFAFA" stroke="#FAFAFA"/>
<mask id="mask0_137_821" style="mask-type:luminance" maskUnits="userSpaceOnUse" x="8" y="2" width="125" height="63">
<path d="M133 2H8V64.5H133V2Z" fill="white"/>
</mask>
<g mask="url(#mask0_137_821)">
</g>
</svg>
