<svg width="616" height="76" viewBox="0 0 616 76" fill="none" xmlns="http://www.w3.org/2000/svg">
<g clip-path="url(#clip0_137_841)">
<mask id="mask0_137_841" style="mask-type:luminance" maskUnits="userSpaceOnUse" x="0" y="0" width="616" height="76">
<path d="M616 0H0V76H616V0Z" fill="white"/>
</mask>
<g mask="url(#mask0_137_841)">
<mask id="path-2-inside-1_137_841" fill="white">
<path d="M176.967 34.778H165.881V56.1722C165.881 61.8769 169.64 61.7845 176.967 61.4303V70.0758C162.13 71.8619 156.226 67.7585 156.226 56.1722V34.778H148V25.5012H156.226V13.53L165.881 10.6815V25.5012H176.967V34.778ZM219.233 25.5012H228.888V70.0758H219.233V63.6552C215.835 68.3821 210.553 71.2383 203.581 71.2383C191.427 71.2383 181.325 60.9838 181.325 47.7885C181.325 34.5085 191.427 24.3465 203.581 24.3465C210.553 24.3465 215.835 27.1949 219.233 31.8294V25.5012ZM205.103 62.0539C213.152 62.0539 219.233 56.0799 219.233 47.7885C219.233 39.4972 213.152 33.5231 205.103 33.5231C197.054 33.5231 190.981 39.4972 190.981 47.7885C190.981 56.0799 197.054 62.0539 205.103 62.0539ZM244.978 18.8189C241.58 18.8189 238.805 15.9628 238.805 12.6678C238.813 11.8594 238.974 11.0588 239.282 10.312C239.592 9.56533 240.047 8.8873 240.619 8.31664C241.192 7.74599 241.871 7.29391 242.618 6.98623C243.364 6.67829 244.171 6.51662 244.978 6.51662C245.785 6.51662 246.585 6.67829 247.338 6.98623C248.084 7.29417 248.76 7.74838 249.337 8.31808C249.906 8.89547 250.359 9.57294 250.675 10.312C250.982 11.0588 251.143 11.8594 251.143 12.6678C251.143 15.9628 248.376 18.8189 244.978 18.8189ZM240.15 70.0758V25.5012H249.806V70.0758H240.15ZM260.983 70.0758V5H270.639V70.0758H260.983ZM333.308 25.5012H343.501L329.464 70.0758H319.985L310.691 40.0361L301.305 70.0758H291.826L277.788 25.5012H287.982L296.654 56.2569L306.04 25.5012H315.25L324.544 56.2569L333.308 25.5012ZM355.478 18.8189C352.081 18.8189 349.313 15.9628 349.313 12.6678C349.313 11.8594 349.475 11.0588 349.782 10.312C350.097 9.57294 350.551 8.89547 351.12 8.31808C351.696 7.74838 352.373 7.29417 353.118 6.98623C353.872 6.67829 354.671 6.51662 355.478 6.51662C357.112 6.517 358.679 7.16463 359.837 8.31808C360.414 8.89547 360.867 9.57294 361.175 10.312C361.49 11.0588 361.652 11.8594 361.652 12.6678C361.652 15.9628 358.876 18.8189 355.478 18.8189ZM350.651 70.0758V25.5012H360.306V70.0758H350.651ZM412.166 42.7075V70.0758H402.511V43.6929C402.511 36.9105 398.575 33.3461 392.494 33.3461C386.144 33.3461 381.139 37.0952 381.139 46.1872V70.0758H371.484V25.5012H381.139V31.2059C384.091 26.5713 388.919 24.3465 395 24.3465C405.009 24.3465 412.166 31.1212 412.166 42.7075ZM457.938 7.6714H467.593V70.0758H457.938V63.6552C454.54 68.3821 449.266 71.2383 442.294 71.2383C430.132 71.2383 420.031 60.9838 420.031 47.7885C420.031 34.5085 430.132 24.3465 442.294 24.3465C449.266 24.3465 454.54 27.1949 457.938 31.8294V7.6714ZM443.816 62.0539C451.857 62.0539 457.938 56.0799 457.938 47.7885C457.938 39.4972 451.857 33.5231 443.816 33.5231C435.767 33.5231 429.686 39.4972 429.686 47.7885C429.686 56.0799 435.767 62.0539 443.816 62.0539ZM476.357 47.7885C476.357 34.5085 486.458 24.3465 499.958 24.3465C508.722 24.3465 516.317 28.8886 519.891 35.8481L511.581 40.6597C509.613 36.4717 505.231 33.7926 499.866 33.7926C492.001 33.7926 486.013 39.7666 486.013 47.7885C486.013 55.8104 492.001 61.7845 499.866 61.7845C505.231 61.7845 509.613 59.0207 511.758 54.9251L520.076 59.6443C516.317 66.6884 508.722 71.2383 499.958 71.2383C486.458 71.2383 476.357 60.9838 476.357 47.7885ZM560.036 57.5041C560.036 66.419 552.256 71.2383 542.6 71.2383C533.66 71.2383 527.225 67.2196 524.366 60.8068L532.676 55.9875C534.113 60.0061 537.688 62.4081 542.6 62.4081C546.898 62.4081 550.203 60.9838 550.203 57.4194C550.203 49.4822 526.157 53.9397 526.157 37.9806C526.157 29.6046 533.398 24.3465 542.516 24.3465C549.842 24.3465 555.923 27.7338 559.052 33.6155L550.918 38.1653C549.312 34.6856 546.183 33.0843 542.516 33.0843C539.026 33.0843 535.989 34.5932 535.989 37.8035C535.989 45.9178 560.036 41.0138 560.036 57.5041ZM601.256 57.5041C601.256 66.419 593.476 71.2383 583.821 71.2383C574.88 71.2383 568.438 67.2196 565.578 60.8068L573.896 55.9875C575.326 60.0061 578.901 62.4081 583.821 62.4081C588.111 62.4081 591.416 60.9838 591.416 57.4194C591.416 49.4822 567.37 53.9397 567.37 37.9806C567.37 29.6046 574.611 24.3465 583.729 24.3465C591.063 24.3465 597.143 27.7338 600.272 33.6155L592.131 38.1653C590.524 34.6856 587.396 33.0843 583.729 33.0843C580.246 33.0843 577.202 34.5932 577.202 37.8035C577.202 45.9178 601.256 41.0138 601.256 57.5041Z"/>
</mask>
<path d="M176.967 34.778H165.881V56.1722C165.881 61.8769 169.64 61.7845 176.967 61.4303V70.0758C162.13 71.8619 156.226 67.7585 156.226 56.1722V34.778H148V25.5012H156.226V13.53L165.881 10.6815V25.5012H176.967V34.778ZM219.233 25.5012H228.888V70.0758H219.233V63.6552C215.835 68.3821 210.553 71.2383 203.581 71.2383C191.427 71.2383 181.325 60.9838 181.325 47.7885C181.325 34.5085 191.427 24.3465 203.581 24.3465C210.553 24.3465 215.835 27.1949 219.233 31.8294V25.5012ZM205.103 62.0539C213.152 62.0539 219.233 56.0799 219.233 47.7885C219.233 39.4972 213.152 33.5231 205.103 33.5231C197.054 33.5231 190.981 39.4972 190.981 47.7885C190.981 56.0799 197.054 62.0539 205.103 62.0539ZM244.978 18.8189C241.58 18.8189 238.805 15.9628 238.805 12.6678C238.813 11.8594 238.974 11.0588 239.282 10.312C239.592 9.56533 240.047 8.8873 240.619 8.31664C241.192 7.74599 241.871 7.29391 242.618 6.98623C243.364 6.67829 244.171 6.51662 244.978 6.51662C245.785 6.51662 246.585 6.67829 247.338 6.98623C248.084 7.29417 248.76 7.74838 249.337 8.31808C249.906 8.89547 250.359 9.57294 250.675 10.312C250.982 11.0588 251.143 11.8594 251.143 12.6678C251.143 15.9628 248.376 18.8189 244.978 18.8189ZM240.15 70.0758V25.5012H249.806V70.0758H240.15ZM260.983 70.0758V5H270.639V70.0758H260.983ZM333.308 25.5012H343.501L329.464 70.0758H319.985L310.691 40.0361L301.305 70.0758H291.826L277.788 25.5012H287.982L296.654 56.2569L306.04 25.5012H315.25L324.544 56.2569L333.308 25.5012ZM355.478 18.8189C352.081 18.8189 349.313 15.9628 349.313 12.6678C349.313 11.8594 349.475 11.0588 349.782 10.312C350.097 9.57294 350.551 8.89547 351.12 8.31808C351.696 7.74838 352.373 7.29417 353.118 6.98623C353.872 6.67829 354.671 6.51662 355.478 6.51662C357.112 6.517 358.679 7.16463 359.837 8.31808C360.414 8.89547 360.867 9.57294 361.175 10.312C361.49 11.0588 361.652 11.8594 361.652 12.6678C361.652 15.9628 358.876 18.8189 355.478 18.8189ZM350.651 70.0758V25.5012H360.306V70.0758H350.651ZM412.166 42.7075V70.0758H402.511V43.6929C402.511 36.9105 398.575 33.3461 392.494 33.3461C386.144 33.3461 381.139 37.0952 381.139 46.1872V70.0758H371.484V25.5012H381.139V31.2059C384.091 26.5713 388.919 24.3465 395 24.3465C405.009 24.3465 412.166 31.1212 412.166 42.7075ZM457.938 7.6714H467.593V70.0758H457.938V63.6552C454.54 68.3821 449.266 71.2383 442.294 71.2383C430.132 71.2383 420.031 60.9838 420.031 47.7885C420.031 34.5085 430.132 24.3465 442.294 24.3465C449.266 24.3465 454.54 27.1949 457.938 31.8294V7.6714ZM443.816 62.0539C451.857 62.0539 457.938 56.0799 457.938 47.7885C457.938 39.4972 451.857 33.5231 443.816 33.5231C435.767 33.5231 429.686 39.4972 429.686 47.7885C429.686 56.0799 435.767 62.0539 443.816 62.0539ZM476.357 47.7885C476.357 34.5085 486.458 24.3465 499.958 24.3465C508.722 24.3465 516.317 28.8886 519.891 35.8481L511.581 40.6597C509.613 36.4717 505.231 33.7926 499.866 33.7926C492.001 33.7926 486.013 39.7666 486.013 47.7885C486.013 55.8104 492.001 61.7845 499.866 61.7845C505.231 61.7845 509.613 59.0207 511.758 54.9251L520.076 59.6443C516.317 66.6884 508.722 71.2383 499.958 71.2383C486.458 71.2383 476.357 60.9838 476.357 47.7885ZM560.036 57.5041C560.036 66.419 552.256 71.2383 542.6 71.2383C533.66 71.2383 527.225 67.2196 524.366 60.8068L532.676 55.9875C534.113 60.0061 537.688 62.4081 542.6 62.4081C546.898 62.4081 550.203 60.9838 550.203 57.4194C550.203 49.4822 526.157 53.9397 526.157 37.9806C526.157 29.6046 533.398 24.3465 542.516 24.3465C549.842 24.3465 555.923 27.7338 559.052 33.6155L550.918 38.1653C549.312 34.6856 546.183 33.0843 542.516 33.0843C539.026 33.0843 535.989 34.5932 535.989 37.8035C535.989 45.9178 560.036 41.0138 560.036 57.5041ZM601.256 57.5041C601.256 66.419 593.476 71.2383 583.821 71.2383C574.88 71.2383 568.438 67.2196 565.578 60.8068L573.896 55.9875C575.326 60.0061 578.901 62.4081 583.821 62.4081C588.111 62.4081 591.416 60.9838 591.416 57.4194C591.416 49.4822 567.37 53.9397 567.37 37.9806C567.37 29.6046 574.611 24.3465 583.729 24.3465C591.063 24.3465 597.143 27.7338 600.272 33.6155L592.131 38.1653C590.524 34.6856 587.396 33.0843 583.729 33.0843C580.246 33.0843 577.202 34.5932 577.202 37.8035C577.202 45.9178 601.256 41.0138 601.256 57.5041Z" fill="#FAFAFA" stroke="#FAFAFA" stroke-width="2" mask="url(#path-2-inside-1_137_841)"/>
<path d="M64.0982 0C47.1625 0 36.5691 8.4453 32.3333 25.3359C38.6909 16.8906 46.1017 13.7188 54.5733 15.8282C59.4011 17.0369 62.8528 20.532 66.6812 24.4044C72.908 30.7018 80.1189 38 95.863 38C112.799 38 123.384 29.5547 127.62 12.6641C121.27 21.1094 113.859 24.2735 105.388 22.1641C100.56 20.9631 97.1007 17.4603 93.28 13.5956C87.0531 7.29052 79.8422 0 64.0982 0ZM32.3333 38C15.3977 38 4.812 46.4453 0.576172 63.3359C6.92606 54.8906 14.3368 51.7265 22.8085 53.8359C27.6439 55.0369 31.0956 58.5397 34.9163 62.4044C41.1432 68.7095 48.3541 76 64.0982 76C81.0414 76 91.6272 67.5547 95.863 50.6641C89.5054 59.1094 82.0946 62.2812 73.6307 60.1718C68.7952 58.9631 65.3435 55.468 61.5151 51.5956C55.2883 45.2982 48.0774 38 32.3333 38Z" fill="#2DC7ED"/>
</g>
</g>
<defs>
<clipPath id="clip0_137_841">
<rect width="616" height="76" fill="white"/>
</clipPath>
</defs>
</svg>
